<svg xmlns="http://www.w3.org/2000/svg" xmlns:xlink="http://www.w3.org/1999/xlink" version="1.1" id="Layer_1" x="0px" y="0px" width="100%" viewBox="0 0 172 160" enable-background="new 0 0 172 160" xml:space="preserve">
<path fill="#000000" opacity="1.000000" stroke="none" d=" M1.355868,42.267014   C1.000000,29.547331 1.155425,17.091436 0.897119,4.644126   C0.827440,1.286433 1.942136,0.922796 4.829915,0.936702   C28.240396,1.049427 51.651657,1.000000 75.531342,1.000000   C77.803940,3.528885 75.153435,4.250054 73.893944,5.896094   C73.184769,6.658209 72.586662,7.006386 71.812454,7.662088   C71.220039,8.155224 70.865959,8.417641 70.222961,8.849053   C68.626938,9.922365 67.516174,11.038070 66.259811,12.470240   C65.773819,13.034931 65.481041,13.336668 64.974701,13.854939   C64.680916,14.269006 64.581146,14.447381 64.359253,14.907909   C64.060570,15.801825 63.936829,16.427259 63.640507,17.357033   C61.617657,21.569256 61.194771,25.789928 60.801643,30.370686   C61.363297,35.749226 63.230377,40.270378 66.341873,44.653740   C74.692688,56.491638 92.787331,57.335041 102.809776,49.631813   C104.436371,48.381618 105.507950,46.779480 107.124886,45.123425   C110.620560,40.971748 112.227432,36.359177 113.181366,31.105894   C112.901344,26.477251 112.576469,22.209265 110.511383,17.955990   C110.079109,17.039797 109.939194,16.393484 109.761887,15.435963   C109.592575,14.948846 109.511276,14.759631 109.273270,14.304393   C108.844482,13.718369 108.554939,13.414907 108.044525,12.875378   C106.869957,11.424740 105.795700,10.330111 104.309631,9.188219   C103.659767,8.770614 103.294060,8.522752 102.668579,8.063488   C101.867783,7.449472 101.361404,7.000791 100.544327,6.380351   C99.365967,4.622809 96.829277,4.059160 97.774567,1.279877   C121.909126,1.000000 145.818542,1.053553 169.726990,0.925565   C172.418167,0.911158 173.134735,1.358752 173.087402,4.204232   C172.883072,16.487469 173.000000,28.776049 173.000000,41.531342   C171.026352,43.601589 168.663712,43.488136 166.336151,43.493153   C158.682449,43.509636 151.027023,43.596176 143.375610,43.464325   C138.510757,43.380501 133.744705,43.788479 128.663513,45.210060   C126.212219,45.777241 125.254776,48.165573 122.672913,48.256889   C122.095444,48.033993 121.878853,47.842693 121.667198,47.645523   C121.375885,47.374153 121.417534,47.417614 122.016708,47.961273   C123.741562,48.904495 124.859764,50.182419 126.271118,51.083645   C129.289108,53.010799 132.071823,53.373516 135.608734,51.842331   C142.490891,48.862949 149.580902,46.116405 157.202332,49.961666   C159.723679,51.233772 161.558228,49.430668 163.454285,48.001442   C166.163925,45.958958 168.586670,43.239170 172.736206,43.769249   C173.000000,81.626045 172.957001,119.252220 173.078262,156.877869   C173.088409,160.029587 172.809967,161.122604 169.130157,161.111740   C114.356445,160.949951 59.582062,160.975250 4.808022,161.067657   C1.837917,161.072678 0.894881,160.591629 0.907586,157.315643   C1.052850,119.856644 1.000000,82.396873 1.000000,44.468658   C4.902859,42.261730 7.264290,45.429504 9.538430,47.293800   C12.725832,49.906780 15.391435,50.848183 19.411417,49.138748   C26.370117,46.179668 32.697369,49.753471 39.047108,52.040390   C41.104431,52.781353 42.924526,53.639690 45.191200,52.408009   C48.876839,50.405273 49.154892,49.327339 45.958366,45.541119   C35.389362,42.110027 24.864407,44.031605 14.488760,43.484318   C10.224842,43.259403 5.861548,44.296730 1.355868,42.267014  z"/>
<path fill="#A7884F" opacity="1.000000" stroke="none" d=" M122.030312,48.517765   C124.165733,47.385082 123.566269,44.967625 124.946106,43.297394   C130.999176,41.929996 136.943604,42.601070 142.861740,42.538860   C152.613571,42.436348 162.368347,42.419071 172.560730,42.781052   C173.000000,43.000000 173.000000,43.500000 173.000000,43.750000   C168.131958,45.759232 165.277206,50.331276 160.842407,52.714539   C159.883301,53.229961 159.275055,54.504429 157.922638,53.380390   C150.439774,47.161114 143.176010,51.382080 136.004700,54.055317   C131.755203,55.639393 124.054474,54.145546 121.402840,50.597492   C121.182495,50.302650 121.763527,49.408913 122.030312,48.517765  z"/>
<path fill="#A7884F" opacity="1.000000" stroke="none" d=" M48.577896,43.548389   C49.369972,46.547871 53.425087,48.392036 50.818127,51.596329   C47.868225,55.222141 42.807350,55.949669 38.730614,54.394535   C31.273676,51.549973 23.762756,46.950615 15.870920,53.501247   C14.517333,54.624794 13.844409,53.145878 12.996816,52.513432   C9.227758,49.701065 5.470188,46.873306 1.354233,44.025555   C1.000000,44.000000 1.000000,43.500000 1.000000,43.250000   C6.385131,41.875957 11.830502,42.630676 17.244444,42.539703   C25.994886,42.392654 34.749752,42.474445 43.502392,42.523445   C45.108822,42.532436 46.821686,42.045658 48.577896,43.548389  z"/>
<path fill="#D3BF7D" opacity="1.000000" stroke="none" d=" M72.025742,5.318097   C73.018410,3.273066 75.665352,3.544413 76.331566,1.245007   C83.020950,1.000000 90.041893,1.000000 97.531418,1.000000   C97.603073,4.025134 100.653564,3.096353 102.027710,4.647008   C100.761223,6.980586 98.980942,6.662184 96.985588,5.802008   C90.305603,2.922327 83.585342,2.934290 76.918808,5.849877   C75.287163,6.563474 73.791878,6.805650 72.025742,5.318097  z"/>
<path fill="#CAB76F" opacity="1.000000" stroke="none" d=" M48.888321,43.515915   C46.882290,42.808270 44.706139,43.014400 42.567928,43.013954   C29.024315,43.011143 15.480700,43.018974 1.468543,43.011646   C1.000000,43.000000 1.000000,42.500000 1.000000,42.250000   C15.529682,41.999870 30.059584,41.964561 44.588703,42.054764   C46.020702,42.063652 47.913071,40.984390 48.888321,43.515915  z"/>
<path fill="#CAB76F" opacity="1.000000" stroke="none" d=" M173.000000,42.750000   C157.342529,43.007832 141.685043,43.015659 125.566025,43.003296   C126.236984,41.048317 128.091446,42.060894 129.565262,42.051823   C143.730637,41.964607 157.896774,41.999619 172.531342,41.999817   C173.000000,42.000000 173.000000,42.500000 173.000000,42.750000  z"/>
<path fill="#8F713F" opacity="1.000000" stroke="none" d=" M82.475983,106.355682   C81.622490,103.412163 81.631378,100.576569 80.494606,98.317451   C77.658600,92.681427 76.545792,86.976166 78.085152,80.384178   C78.344315,79.709152 78.533356,79.459999 78.833069,79.002792   C78.949631,78.799225 78.968956,78.375145 79.033463,78.172920   C82.130882,74.212090 88.397362,73.502853 94.502319,76.624176   C97.967987,85.616623 95.526604,93.735207 92.592285,101.826485   C92.211052,102.877716 92.167664,104.051468 91.916367,105.576393   C89.065926,108.878883 86.018723,108.745621 82.475983,106.355682  z"/>
<path fill="#7D5F33" opacity="1.000000" stroke="none" d=" M93.491295,118.623413   C92.542488,127.588776 91.392052,136.212677 89.901695,144.777420   C89.158241,149.049881 89.437119,153.576889 86.872612,157.631958   C83.511177,145.187546 82.630051,132.353928 80.261841,119.380020   C84.313904,115.544640 88.691536,116.189774 93.491295,118.623413  z"/>
<path fill="#BA9C5D" opacity="1.000000" stroke="none" d=" M71.506905,5.045300   C73.054001,4.818715 74.473351,4.971151 75.614746,4.478992   C83.285835,1.171297 90.880913,1.210508 98.520805,4.544806   C99.388786,4.923621 100.440422,4.881619 101.821709,4.999533   C102.663574,5.270698 103.090630,5.577076 103.763649,5.995129   C104.261864,6.321061 104.522957,6.523937 105.009186,6.836833   C106.752548,8.368806 108.279602,9.779378 109.921448,11.482697   C110.184013,12.072940 110.364716,12.348869 110.732925,12.796940   C110.887489,12.990648 111.046684,13.380274 111.043350,13.590695   C111.173820,14.032367 111.307625,14.263618 111.310020,14.873532   C110.444534,16.573366 109.141731,16.858734 107.425598,17.112625   C105.755028,16.969578 105.113594,16.015568 104.322151,15.133276   C94.336250,4.001081 79.165665,4.221575 69.295570,15.618078   C68.851852,16.130413 68.400185,16.590586 67.424850,17.010618   C65.691162,17.079107 64.371002,16.927383 63.079330,15.598975   C62.741901,15.017246 62.648052,14.762262 62.757301,14.153928   C62.960396,13.800577 62.953362,13.376651 63.032932,13.180159   C63.324306,12.733623 63.525234,12.475122 63.837189,11.994953   C65.367371,10.252726 66.775635,8.723712 68.476028,7.078809   C69.063354,6.806183 69.342705,6.625004 69.801605,6.263082   C70.414864,5.779904 70.832718,5.453007 71.506905,5.045300  z"/>
<path fill="#A7884F" opacity="1.000000" stroke="none" d=" M109.097061,45.708469   C100.024361,59.040459 75.854744,59.943752 65.020782,46.367634   C64.985649,44.627819 65.110008,43.192215 66.895950,42.226681   C67.458809,42.039669 67.693962,41.997822 68.285515,41.973785   C68.869896,42.053505 69.097893,42.115410 69.635559,42.340645   C70.116592,42.656399 70.287964,42.808826 70.926987,43.445019   C71.538116,44.095310 71.681580,44.261841 72.012238,44.695190   C72.299011,45.151978 72.398590,45.341949 72.655914,45.807587   C73.803391,47.648289 75.356155,48.188469 77.403076,48.480064   C77.944336,48.601208 78.158386,48.667080 78.662079,48.906593   C83.948265,52.459866 89.077614,52.363804 94.562668,49.455574   C94.996300,49.117229 95.173615,48.990276 95.641380,48.724342   C96.716751,48.353600 97.500854,48.119724 98.444977,47.528206   C98.821899,47.227642 98.970551,47.106937 99.355736,46.830185   C100.088333,46.456348 100.586105,46.241730 101.189491,45.700607   C101.459885,45.344421 101.557495,45.190655 101.820816,44.810631   C102.114624,44.440865 102.242737,44.297348 102.790565,43.720798   C103.357239,43.136253 103.504189,42.984745 103.904808,42.626244   C104.358627,42.317841 104.558762,42.216431 105.091919,42.028408   C105.657997,41.933014 105.891075,41.924225 106.471786,41.981232   C108.344025,42.624165 109.000381,43.786774 109.097061,45.708469  z"/>
<path fill="#846637" opacity="1.000000" stroke="none" d=" M93.888802,118.587845   C89.579315,118.990952 85.325394,118.992607 80.619118,118.991753   C80.187981,115.523842 78.727196,111.940422 81.080856,108.298004   C81.306427,107.760742 81.441010,107.579002 81.770370,107.119537   C81.965149,106.841812 82.001282,106.403900 82.068176,106.194641   C85.083946,105.987328 88.032829,105.989281 91.423325,105.987778   C93.419144,109.904938 94.947311,113.829994 93.888802,118.587845  z"/>
<path fill="#9C7E47" opacity="1.000000" stroke="none" d=" M70.828659,65.743942   C71.264313,65.936386 71.648499,65.923317 71.827225,65.994019   C72.903313,67.208206 74.664787,67.146980 75.221191,68.808090   C74.442291,73.234764 73.523224,77.251244 70.804153,81.120102   C70.047081,75.991600 60.566719,75.839951 64.511780,68.152596   C65.408806,67.613701 65.486618,66.977043 65.788612,66.108772   C65.917809,65.826157 65.903984,65.920876 65.857071,65.911377   C67.260834,64.778755 68.840614,65.344246 70.828659,65.743942  z"/>
<path fill="#9C7E47" opacity="1.000000" stroke="none" d=" M108.733360,67.721909   C111.263733,70.861023 111.073929,73.291840 107.955673,75.677971   C106.089073,77.106323 104.224442,78.697594 103.221840,81.743805   C100.304588,77.694420 100.089546,73.633797 98.971397,69.505692   C98.269897,66.776642 100.928322,67.682083 101.724464,66.296310   C101.993950,66.064728 102.351501,65.923309 102.543648,65.929810   C104.233070,65.378723 105.742302,64.933708 107.771408,65.673920   C108.189659,65.901657 108.100830,65.916946 108.095947,65.872147   C108.332573,66.354897 108.500099,66.904144 108.733360,67.721909  z"/>
<path fill="#9C7E47" opacity="1.000000" stroke="none" d=" M94.891953,76.587494   C89.849930,77.338058 84.797722,76.297707 79.476013,77.815315   C78.568001,75.476372 79.537727,73.162781 80.032761,70.382378   C84.384872,68.487556 88.787064,69.837151 93.507370,69.709152   C94.247307,72.051270 94.596054,74.121635 94.891953,76.587494  z"/>
<path fill="#9C7E47" opacity="1.000000" stroke="none" d=" M111.763901,60.407673   C111.969093,60.092876 112.339867,59.929485 112.541382,59.950237   C113.154137,59.749073 113.336418,59.398201 113.271965,58.615822   C113.482239,56.807606 114.346252,55.970745 116.182060,55.931450   C116.672691,55.803307 116.847710,55.586334 117.386162,55.162567   C117.999779,54.834064 118.249962,54.712353 118.875343,54.773361   C119.250542,54.956089 119.657997,54.924549 119.845024,55.006859   C120.279625,55.319798 120.540207,55.534531 121.040909,55.847633   C122.130882,56.711788 122.995872,57.459080 123.950020,58.482574   C124.317146,59.183624 124.449501,59.649807 124.255981,60.483444   C122.286087,61.648914 120.772423,63.126556 119.531975,64.394753   C115.772827,68.238007 113.831398,66.489426 111.987000,62.452816   C111.625885,61.707336 111.485558,61.247475 111.763901,60.407673  z"/>
<path fill="#9C7E47" opacity="1.000000" stroke="none" d=" M49.782986,59.085495   C50.700996,57.891750 51.440842,57.025291 52.454144,56.063850   C53.035320,55.820591 53.323208,55.640594 53.782051,55.259007   C53.972839,55.089138 54.344368,54.924480 54.546955,54.940109   C54.999813,54.834042 55.250088,54.712341 55.875717,54.773296   C56.491867,55.091888 56.732658,55.227821 57.233334,55.687004   C59.062374,55.566517 59.980186,56.364765 60.707909,57.977184   C60.690750,58.720905 60.671947,59.149178 60.991890,59.773415   C61.250538,59.966579 61.656776,59.928730 61.843536,60.010803   C62.385654,60.488789 62.519913,60.949188 62.226639,61.788136   C59.779579,67.174034 59.088711,67.284294 54.723808,64.455368   C53.188938,63.460613 51.883156,62.304531 50.237019,60.965500   C49.632225,60.386211 49.526043,59.920589 49.782986,59.085495  z"/>
<path fill="#B09155" opacity="1.000000" stroke="none" d=" M145.041428,35.458008   C140.398056,35.878403 135.766388,35.753479 131.160934,36.044044   C126.661659,36.327908 126.052803,34.425854 127.820984,30.457396   C126.975052,27.541952 128.575302,27.450245 130.808472,27.747753   C131.669876,28.255959 132.096756,28.562304 132.768127,28.980946   C133.266205,29.298300 133.511307,29.513073 133.954880,29.867630   C134.161865,29.997700 134.023041,29.947956 134.048798,29.878868   C137.158493,32.776295 141.632263,32.852566 145.041428,35.458008  z"/>
<path fill="#B29457" opacity="1.000000" stroke="none" d=" M106.696411,16.401724   C107.941673,15.724404 109.025955,15.396646 110.452202,15.054835   C111.193253,14.952276 111.466316,15.088825 111.728592,15.725800   C114.752655,20.269222 115.416138,25.064247 114.917885,30.546671   C113.449654,32.399551 111.929497,32.216614 110.029587,31.073080   C108.180046,26.249203 107.910484,21.376074 106.696411,16.401724  z"/>
<path fill="#B29457" opacity="1.000000" stroke="none" d=" M62.914127,15.053087   C64.314507,15.287746 65.414360,15.532671 66.826660,15.916196   C66.947762,20.900394 65.467865,25.477198 63.976204,30.450783   C62.585926,31.863520 61.302799,32.253315 59.476845,31.264305   C58.257339,25.895178 59.666439,21.119610 61.514626,16.167349   C62.150311,15.714239 62.405052,15.408332 62.914127,15.053087  z"/>
<path fill="#AA8B51" opacity="1.000000" stroke="none" d=" M109.825867,30.129740   C111.497322,30.313070 112.833504,30.636473 114.514328,30.975597   C115.760857,36.803047 112.294250,41.098236 109.445351,45.886295   C108.386681,45.187675 107.630943,44.315788 106.673813,43.234909   C106.263451,42.926498 106.054482,42.827080 105.628998,42.454033   C105.281662,41.724449 105.264481,41.262817 105.482819,40.472923   C105.894531,39.763599 106.147041,39.365211 106.514709,38.623734   C108.533203,35.950336 107.998428,32.751152 109.825867,30.129740  z"/>
<path fill="#AA8B51" opacity="1.000000" stroke="none" d=" M59.068504,31.401981   C60.259693,30.741457 61.378345,30.491571 62.815765,30.104189   C65.020828,29.796804 65.403061,31.141445 65.408684,32.505505   C65.416481,34.402588 66.316284,36.022472 66.888992,38.103279   C67.333015,38.808224 67.611305,39.193817 68.114082,39.854664   C68.557098,40.555531 68.695518,41.001751 68.665382,41.824688   C68.453407,42.354931 68.307976,42.538929 67.845039,42.874413   C66.788658,43.915993 66.049782,44.806095 65.087875,45.880630   C61.610504,41.848759 58.888557,37.413227 59.068504,31.401981  z"/>
<path fill="#B09155" opacity="1.000000" stroke="none" d=" M46.241928,29.728388   C47.683250,35.981289 47.683254,35.986595 41.722580,35.990688   C37.788429,35.993393 33.854275,35.978138 29.457001,35.895836   C30.377840,32.940872 33.652351,33.576958 35.867397,32.181198   C37.611744,31.082037 39.881451,30.884275 41.712112,29.110479   C41.925045,28.813494 41.928539,28.909184 41.880669,28.908421   C43.389469,28.910341 45.249725,25.868618 46.241928,29.728388  z"/>
<path fill="#B29457" opacity="1.000000" stroke="none" d=" M123.701202,21.645212   C125.496994,25.581732 125.939445,29.407114 126.025581,33.344807   C126.076500,35.672310 125.006279,36.135719 123.016472,35.985352   C120.723549,35.812073 120.864609,34.732674 121.498116,32.990757   C123.099220,28.588379 121.066559,24.268484 120.933289,19.463364   C122.936432,18.462830 123.237747,19.900211 123.701202,21.645212  z"/>
<path fill="#B29457" opacity="1.000000" stroke="none" d=" M52.759880,18.904165   C53.031982,24.222176 50.670925,29.322922 52.739933,34.625500   C53.252712,35.939690 51.664360,35.919384 50.719742,35.959633   C49.358170,36.017651 48.153831,36.090233 47.983570,34.066925   C47.687241,30.545380 48.517166,27.189249 49.112801,23.351948   C49.327633,22.748487 49.461491,22.572084 49.809753,22.141975   C50.024158,21.888269 50.006912,22.038366 49.931782,22.030487   C50.840408,21.041931 50.580261,19.080561 52.759880,18.904165  z"/>
<path fill="#AA8B51" opacity="1.000000" stroke="none" d=" M116.129532,55.736588   C115.614151,56.915276 114.730637,57.810268 113.780823,58.862862   C113.632118,58.878151 113.580391,58.647781 113.462700,58.606777   C111.756447,58.012398 108.566154,60.322803 108.451691,57.280914   C108.349121,54.555256 111.169746,52.308220 113.861702,51.782795   C116.756516,51.217785 116.753281,53.355526 116.129532,55.736588  z"/>
<path fill="#A7884F" opacity="1.000000" stroke="none" d=" M60.605019,58.752396   C59.552475,58.288948 58.742992,57.293171 57.713364,56.153824   C58.360130,54.448322 57.210602,50.717133 59.616295,51.471550   C61.831024,52.166096 65.452271,54.063377 65.590172,56.805111   C65.757362,60.129196 62.770634,58.662388 60.605019,58.752396  z"/>
<path fill="#B09155" opacity="1.000000" stroke="none" d=" M73.588882,64.736191   C73.098061,64.499527 72.959221,64.406570 72.845253,64.289413   C71.518509,62.925621 67.338631,63.583576 69.045364,60.221794   C70.729774,56.903969 73.134026,59.946133 75.212494,60.542297   C76.753197,60.984222 77.180939,61.948227 76.976166,63.479858   C76.684929,65.658142 75.096825,64.715714 73.588882,64.736191  z"/>
<path fill="#B09155" opacity="1.000000" stroke="none" d=" M101.187347,64.284470   C99.398933,64.779221 97.532738,66.043816 97.066238,63.389187   C96.470383,59.998505 99.805389,60.346523 101.469917,59.288288   C102.389626,58.703575 104.486786,57.925461 104.963982,60.235020   C105.516853,62.910809 103.271599,63.312557 101.187347,64.284470  z"/>
<path fill="#9C7E47" opacity="1.000000" stroke="none" d=" M92.469147,63.716972   C92.985199,64.890076 93.359497,66.435997 92.480141,66.563759   C88.722389,67.109741 84.887718,67.698143 81.185974,66.207329   C80.967781,66.119453 81.045029,65.297974 81.059082,64.385208   C84.744560,62.985001 88.430138,63.744434 92.469147,63.716972  z"/>
<path fill="#B09155" opacity="1.000000" stroke="none" d=" M122.141479,48.172585   C122.098740,48.005302 122.056877,47.744190 121.963112,47.723999   C120.298744,47.365494 118.822716,50.036301 116.997879,47.958046   C115.933968,46.746395 117.149239,46.009438 117.423271,45.114960   C118.286774,42.296352 120.434776,42.895569 122.746368,43.337143   C123.030205,45.043560 121.732933,46.239418 121.709625,47.958965   C122.088409,48.242088 122.118187,48.190884 122.141479,48.172585  z"/>
<path fill="#CAB76F" opacity="1.000000" stroke="none" d=" M41.556831,28.896095   C40.903309,32.596764 37.051098,32.037880 34.552280,33.534153   C33.051971,34.432526 31.240185,34.810730 29.281132,35.621727   C28.395306,35.817883 27.644352,36.280346 27.272947,35.493187   C26.760317,34.406712 27.540367,34.287796 28.376579,33.975010   C32.669571,32.369221 36.922012,30.655024 41.556831,28.896095  z"/>
<path fill="#AA8B51" opacity="1.000000" stroke="none" d=" M53.719292,43.030403   C54.701687,43.550091 55.889614,44.215042 55.803101,44.530762   C55.390625,46.035999 58.635715,46.357452 56.914845,47.920620   C56.074017,48.684399 54.823288,49.591640 53.580254,48.092358   C52.407444,46.677773 50.837654,45.445004 51.528320,43.326382   C51.616867,43.054764 52.709869,43.110600 53.719292,43.030403  z"/>
<path fill="#CAB76F" opacity="1.000000" stroke="none" d=" M145.394867,35.880234   C141.590912,33.683014 137.063477,33.786987 134.134308,30.160532   C137.977875,31.213985 141.884552,32.609024 145.783005,34.026615   C147.503372,34.652187 147.461655,35.311623 145.394867,35.880234  z"/>
<path fill="#BA9C5D" opacity="1.000000" stroke="none" d=" M93.933617,69.575539   C89.604263,69.991997 85.309967,70.003082 80.558563,69.997604   C79.958771,68.918236 80.186928,67.616302 81.422775,68.076202   C85.394173,69.554070 89.270386,68.480827 93.192665,68.152176   C93.421295,68.133018 93.708649,68.814659 93.933617,69.575539  z"/>
<path fill="#CAB76F" opacity="1.000000" stroke="none" d=" M53.419197,18.853695   C52.183022,19.892000 51.264591,20.749071 50.101402,21.814377   C50.202141,18.689589 51.583832,15.986009 54.888718,14.325191   C54.504791,15.774282 54.120865,17.223372 53.419197,18.853695  z"/>
<path fill="#CAB76F" opacity="1.000000" stroke="none" d=" M123.919762,21.581158   C123.053726,21.067993 122.250916,20.175314 121.171814,19.157249   C119.406815,17.842247 120.335838,15.771533 119.398453,14.219424   C122.245949,15.685729 123.513306,18.162769 123.919762,21.581158  z"/>
<path fill="#CAB76F" opacity="1.000000" stroke="none" d=" M92.899063,63.563633   C89.255508,63.959953 85.644394,63.967274 81.583328,63.963562   C81.163078,63.459625 81.192772,62.966724 81.222473,62.473820   C85.074615,63.557243 89.049026,62.597916 92.899063,63.563633  z"/>
<path fill="#CAB76F" opacity="1.000000" stroke="none" d=" M46.360641,29.922672   C45.443165,27.792746 43.706276,29.226919 42.159210,28.950089   C42.901707,26.910955 45.233051,26.716034 47.136185,24.678514   C46.944473,26.885746 46.819759,28.321575 46.360641,29.922672  z"/>
<path fill="#CAB76F" opacity="1.000000" stroke="none" d=" M131.049316,27.652086   C130.134232,28.244188 128.788956,28.047209 128.085083,29.751505   C126.112846,28.881895 127.332245,27.113441 127.009514,25.278870   C128.452347,26.057539 129.653992,26.706051 131.049316,27.652086  z"/>
<path fill="#BA9C5D" opacity="1.000000" stroke="none" d=" M108.111877,65.538300   C106.672974,65.946960 105.156296,65.992264 103.187698,65.986938   C104.435959,65.223694 105.835823,62.421310 108.111877,65.538300  z"/>
<path fill="#BA9C5D" opacity="1.000000" stroke="none" d=" M71.052048,65.632774   C69.749496,65.950424 68.234673,65.964462 66.265007,65.940193   C67.016159,61.578712 69.138649,65.304146 71.052048,65.632774  z"/>
<path fill="#BA9C5D" opacity="1.000000" stroke="none" d=" M101.636948,66.030060   C101.860168,67.647987 100.412361,67.925690 99.190826,68.881950   C98.056862,67.381027 98.056862,67.381027 101.636948,66.030060  z"/>
<path fill="#BA9C5D" opacity="1.000000" stroke="none" d=" M75.350174,68.952110   C74.070274,68.303329 73.106369,67.495567 72.074203,66.376266   C73.614799,66.452637 75.914169,65.914207 75.350174,68.952110  z"/>
<path fill="#CAB76F" opacity="1.000000" stroke="none" d=" M124.367508,60.755219   C124.047821,60.353836 124.019844,59.898121 124.015518,59.100594   C124.866386,59.208038 125.148941,59.831188 124.367508,60.755219  z"/>
<path fill="#CAB76F" opacity="1.000000" stroke="none" d=" M49.708214,58.920288   C49.965847,59.214272 49.970539,59.670338 49.949318,60.468018   C48.757866,60.507473 48.975014,59.830574 49.708214,58.920288  z"/>
<path fill="#BA9C5D" opacity="1.000000" stroke="none" d=" M108.944839,67.648712   C108.621529,67.451614 108.352188,66.939720 108.086960,66.127579   C108.754448,66.112137 109.022263,66.635277 108.944839,67.648712  z"/>
<path fill="#CAB76F" opacity="1.000000" stroke="none" d=" M62.301193,61.981995   C61.995159,61.654808 61.970192,61.207401 61.987762,60.426434   C63.211086,60.371468 63.058807,61.066025 62.301193,61.981995  z"/>
<path fill="#CAB76F" opacity="1.000000" stroke="none" d=" M111.669891,60.150475   C111.991760,60.539326 112.014435,60.985779 112.008392,61.767151   C110.998573,61.720924 110.861435,61.068417 111.669891,60.150475  z"/>
<path fill="#BA9C5D" opacity="1.000000" stroke="none" d=" M65.634689,65.983040   C65.710587,66.404961 65.503357,66.983772 65.053650,67.766914   C64.991302,67.360809 65.171440,66.750366 65.634689,65.983040  z"/>
<path fill="#D3BF7D" opacity="1.000000" stroke="none" d=" M111.918724,15.643876   C111.572159,15.830176 111.322456,15.640165 110.954895,15.217299   C110.840744,14.835333 110.887314,14.629883 110.986946,14.112774   C111.698639,14.095728 112.008430,14.604012 111.918724,15.643876  z"/>
<path fill="#D3BF7D" opacity="1.000000" stroke="none" d=" M63.142963,14.733921   C62.914272,15.256823 62.613899,15.470824 62.077911,15.829952   C62.025234,15.358571 62.208172,14.742065 62.675751,13.963068   C62.997356,14.008725 63.034321,14.216874 63.142963,14.733921  z"/>
<path fill="#D3BF7D" opacity="1.000000" stroke="none" d=" M63.719280,11.911217   C63.786709,12.064114 63.625984,12.352978 63.294716,12.815998   C63.234825,12.669343 63.357143,12.355020 63.719280,11.911217  z"/>
<path fill="#CAB76F" opacity="1.000000" stroke="none" d=" M134.061508,29.740253   C133.869812,29.842169 133.586060,29.672709 133.161621,29.291277   C133.328781,29.223097 133.644974,29.352953 134.061508,29.740253  z"/>
<path fill="#CAB76F" opacity="1.000000" stroke="none" d=" M49.785789,21.976715   C49.801426,22.089655 49.622261,22.324303 49.340225,22.758553   C49.311657,22.638315 49.429539,22.351738 49.785789,21.976715  z"/>
<path fill="#9C7E47" opacity="1.000000" stroke="none" d=" M78.726532,78.927017   C78.816399,79.085045 78.658096,79.356239 78.312057,79.783325   C78.267403,79.654167 78.385422,79.354492 78.726532,78.927017  z"/>
<path fill="#D3BF7D" opacity="1.000000" stroke="none" d=" M105.093666,6.717015   C104.931816,6.798589 104.638153,6.638938 104.177048,6.293047   C104.327026,6.229801 104.644440,6.352795 105.093666,6.717015  z"/>
<path fill="#8F713F" opacity="1.000000" stroke="none" d=" M81.748032,106.960701   C81.829582,107.114197 81.670311,107.371925 81.329582,107.778732   C81.090645,107.571259 81.210335,107.283630 81.748032,106.960701  z"/>
<path fill="#D3BF7D" opacity="1.000000" stroke="none" d=" M69.719666,6.103204   C69.734619,6.309490 69.472221,6.512178 68.988983,6.838894   C68.992874,6.675149 69.217598,6.387378 69.719666,6.103204  z"/>
<path fill="#CAB76F" opacity="1.000000" stroke="none" d=" M113.423920,59.209335   C113.714523,59.020458 113.605766,59.090870 113.601593,59.155647   C113.556320,59.534786 113.377022,59.699818 112.901215,59.843254   C112.873047,59.780064 113.003189,59.589138 113.423920,59.209335  z"/>
<path fill="#CAB76F" opacity="1.000000" stroke="none" d=" M60.463001,59.448006   C60.361961,59.284721 60.422421,59.152966 60.377502,59.096138   C60.515583,59.164124 60.698574,59.288940 61.066055,59.690166   C61.064671,59.764763 60.835838,59.646332 60.463001,59.448006  z"/>
<path fill="#CAB76F" opacity="1.000000" stroke="none" d=" M121.116570,55.736980   C120.956673,55.811394 120.647461,55.658291 120.185150,55.297180   C120.343781,55.229267 120.655518,55.369366 121.116570,55.736980  z"/>
<path fill="#D3BF7D" opacity="1.000000" stroke="none" d=" M110.891060,12.715652   C110.599358,12.797626 110.399902,12.536783 110.162674,11.991781   C110.322372,11.997181 110.608505,12.218918 110.891060,12.715652  z"/>
<path fill="#CAB76F" opacity="1.000000" stroke="none" d=" M53.699463,55.110527   C53.710785,55.299084 53.448727,55.509022 52.957138,55.843918   C52.960430,55.689884 53.193260,55.410900 53.699463,55.110527  z"/>
<path fill="#CAB76F" opacity="1.000000" stroke="none" d=" M119.097473,54.720058   C119.000511,54.978355 118.750481,55.000626 118.125023,54.989334   C118.068565,54.597702 118.239014,53.863441 119.097473,54.720058  z"/>
<path fill="#CAB76F" opacity="1.000000" stroke="none" d=" M56.097809,54.720016   C56.000946,54.978371 55.750816,55.000786 55.125114,54.989471   C55.068558,54.597553 55.239208,53.863480 56.097809,54.720016  z"/>
<path fill="#000000" opacity="1.000000" stroke="none" d=" M66.187439,40.097168   C64.344460,36.939987 63.955303,33.698391 63.460663,30.185684   C64.191513,25.504938 63.908844,20.672277 66.970764,16.386913   C76.685768,1.453691 98.405052,2.455500 106.557297,15.890095   C109.576736,20.056263 110.281166,24.577932 110.209045,29.638218   C110.200729,33.209461 109.755707,36.314980 107.992752,39.495285   C107.766624,40.178482 107.525467,40.451565 107.008438,40.826370   C106.448624,40.939640 106.206062,41.067070 105.997833,41.553680   C105.819038,42.074436 105.657784,42.370293 105.279747,42.820885   C105.093201,42.992275 104.935753,43.362511 104.949326,43.563213   C104.794083,44.090691 104.584213,44.388954 104.133942,44.845566   C103.929161,45.028648 104.028328,45.021721 104.025650,44.972088   C103.798851,45.186970 103.562645,45.440205 103.118240,45.852688   C102.922134,46.023220 103.038025,45.933914 102.993866,45.875587   C102.405449,46.847031 101.336296,47.148750 100.120850,47.784710   C99.831879,47.921059 99.944817,47.921711 99.943077,47.865269   C99.388420,48.859417 98.306564,49.171726 97.063507,49.811340   C96.773941,49.959492 96.363586,49.940041 96.174637,50.020611   C90.301476,53.330467 84.516365,53.085129 78.340302,50.352654   C78.014282,50.101177 77.636215,49.939991 77.430946,49.949596   C75.182442,48.959702 72.943504,48.275826 71.257462,46.100792   C71.059753,45.820225 70.968109,45.930668 71.022972,45.976921   C70.813499,45.798878 70.559685,45.563293 70.147552,45.118511   C69.977013,44.922421 69.971680,45.021709 70.021278,45.025154   C69.789970,44.792007 69.536766,44.528526 69.172119,44.002789   C69.036888,43.763618 69.064217,43.362213 68.985504,43.177086   C68.644226,42.774986 68.430519,42.516823 68.152184,41.993401   C68.059769,41.443604 67.928825,41.202503 67.441528,41.000488   C66.902061,40.794350 66.608887,40.579952 66.187439,40.097168  z"/>
<path fill="#CAB76F" opacity="1.000000" stroke="none" d=" M78.137039,50.440533   C83.740768,51.698212 89.464836,52.567390 95.581635,50.072563   C91.995911,53.911983 83.973808,54.219143 78.137039,50.440533  z"/>
<path fill="#CAB76F" opacity="1.000000" stroke="none" d=" M71.101807,46.184483   C73.409119,46.320202 74.940460,48.162170 77.045387,49.659065   C74.606430,49.878044 72.220634,49.380566 71.101807,46.184483  z"/>
<path fill="#CAB76F" opacity="1.000000" stroke="none" d=" M100.191963,47.947876   C100.451706,47.013241 101.043480,46.069561 102.628448,45.901093   C102.771393,47.226444 101.895210,47.860058 100.191963,47.947876  z"/>
<path fill="#CAB76F" opacity="1.000000" stroke="none" d=" M97.140236,49.970444   C97.428696,49.066254 98.012627,48.082680 99.616501,47.897301   C99.793182,49.276543 98.863586,49.868500 97.140236,49.970444  z"/>
<path fill="#CAB76F" opacity="1.000000" stroke="none" d=" M67.920219,42.080841   C68.327827,41.989975 68.610100,42.216412 68.899582,42.717400   C68.678200,43.015877 68.449593,43.039803 67.874260,43.044807   C67.616646,42.816647 67.705772,42.607395 67.920219,42.080841  z"/>
<path fill="#CAB76F" opacity="1.000000" stroke="none" d=" M103.119659,45.854130   C103.105743,45.705833 103.289360,45.388447 103.747971,44.996758   C103.787704,45.176651 103.552444,45.430843 103.119659,45.854130  z"/>
<path fill="#CAB76F" opacity="1.000000" stroke="none" d=" M105.437347,43.027916   C105.222153,42.675209 105.351105,42.358143 105.717041,41.902592   C106.036163,41.975861 106.118286,42.187614 106.336426,42.712643   C106.242119,43.038467 106.011803,43.051010 105.437347,43.027916  z"/>
<path fill="#CAB76F" opacity="1.000000" stroke="none" d=" M69.201721,43.981567   C69.334213,43.999184 69.631546,44.234745 69.999878,44.749454   C69.836105,44.752239 69.601326,44.475876 69.201721,43.981567  z"/>
<path fill="#CAB76F" opacity="1.000000" stroke="none" d=" M104.120087,44.834221   C104.107750,44.702999 104.286331,44.377350 104.713913,43.907806   C104.745598,44.055874 104.528297,44.347832 104.120087,44.834221  z"/>
<path fill="#CAB76F" opacity="1.000000" stroke="none" d=" M70.145981,45.120071   C70.294395,45.106022 70.611786,45.289623 71.003502,45.748199   C70.823540,45.788025 70.569237,45.552872 70.145981,45.120071  z"/>
<path fill="#CAB76F" opacity="1.000000" stroke="none" d=" M106.979996,40.790321   C106.995323,40.665062 107.221313,40.369160 107.711578,39.975060   C107.714119,40.124470 107.452385,40.372074 106.979996,40.790321  z"/>
<path fill="#CAB76F" opacity="1.000000" stroke="none" d=" M66.209534,40.073769   C66.334167,40.074085 66.644279,40.271381 67.092369,40.714706   C66.951904,40.730743 66.673462,40.500751 66.209534,40.073769  z"/>
<path fill="#B09155" opacity="1.000000" stroke="none" d=" M106.627228,24.557362   C109.578453,28.539381 106.905525,32.085228 106.493668,35.853729   C104.431175,37.489223 102.452126,38.194080 100.203194,38.231045   C91.405273,38.375641 82.607750,38.385357 73.810120,38.224125   C71.945297,38.189953 70.189079,37.786961 68.245819,36.362850   C66.344505,32.390511 64.966316,28.701645 66.976288,24.355036   C69.083466,21.506342 71.943733,21.060682 74.713058,20.917334   C82.791565,20.499159 90.885788,20.546640 98.967255,20.888781   C101.774109,21.007612 104.571213,21.576214 106.627228,24.557362  z"/>
<path fill="#B59759" opacity="1.000000" stroke="none" d=" M106.923393,24.611502   C95.845604,21.581944 84.601234,23.138418 73.421692,23.420187   C71.618523,23.465637 69.822556,23.796337 67.595909,23.994293   C66.467323,22.191601 67.733299,20.834421 68.544449,19.140911   C69.424118,18.598738 69.486992,17.965048 69.800797,17.114365   C69.936760,16.839161 70.023422,16.940634 69.972961,16.984282   C70.187859,16.800243 70.441963,16.560570 70.857895,16.112368   C71.029495,15.914237 71.031914,16.025753 70.976181,16.027855   C71.185585,15.801503 71.440987,15.562685 71.857208,15.113802   C72.029366,14.915797 72.030861,15.026198 71.975677,15.027838   C72.186302,14.801780 72.440681,14.561908 72.857147,14.113386   C73.029060,13.915192 73.030144,14.025943 72.974777,14.027350   C73.185036,13.801866 73.439758,13.563339 73.855042,13.115241   C74.026489,12.917294 73.936943,13.015965 73.887421,12.971402   C74.772522,12.430654 75.796265,12.090329 76.766159,11.084692   C76.940018,10.817583 76.943367,10.922499 76.890884,10.922098   C83.289963,8.355797 89.790276,8.335059 96.747459,10.734932   C97.161537,10.921576 97.054993,10.922664 97.056503,10.869411   C97.595543,11.849194 98.664551,12.148169 99.875000,12.787263   C100.161888,12.926497 100.065742,13.018307 100.019562,12.970488   C100.200943,13.188154 100.439926,13.442918 100.889069,13.857879   C101.087807,14.028796 100.976364,14.032584 100.973587,13.976899   C101.199005,14.186690 101.438454,14.441585 101.887573,14.857666   C102.085991,15.029412 101.975136,15.032314 101.972794,14.976917   C102.199272,15.186528 102.438362,15.441872 102.887672,15.857986   C103.086052,16.029882 102.974388,16.032106 102.972382,15.976298   C103.197800,16.185902 103.437355,16.439924 103.885147,16.855957   C104.082962,17.027746 103.983238,16.941715 104.026047,16.891674   C104.323456,17.349335 104.499771,17.881252 104.699966,18.695148   C105.721519,20.642153 107.133308,22.127867 106.923393,24.611502  z"/>
<path fill="#AA8B51" opacity="1.000000" stroke="none" d=" M67.908737,36.421280   C80.292717,36.058704 92.749565,36.048519 105.685440,36.053509   C103.113403,43.855244 97.145477,48.122669 89.095268,48.887901   C79.500710,49.799934 72.027985,45.177433 67.908737,36.421280  z"/>
<path fill="#D3BF7D" opacity="1.000000" stroke="none" d=" M96.954918,10.596962   C90.674355,9.972209 84.188332,9.302612 77.275307,10.962242   C83.341209,6.601945 90.004112,7.191063 96.954918,10.596962  z"/>
<path fill="#D3BF7D" opacity="1.000000" stroke="none" d=" M100.009026,12.632879   C98.903870,13.019945 97.792625,12.806635 97.128998,11.162773   C98.235970,10.873323 99.120560,11.469433 100.009026,12.632879  z"/>
<path fill="#D3BF7D" opacity="1.000000" stroke="none" d=" M76.618713,10.899931   C76.763580,12.219630 75.894180,12.848408 74.196930,12.940437   C74.442673,12.006640 75.030823,11.065420 76.618713,10.899931  z"/>
<path fill="#D3BF7D" opacity="1.000000" stroke="none" d=" M69.653587,16.993498   C69.725716,17.406250 69.514679,17.973339 69.081924,18.759590   C69.030281,18.368444 69.200348,17.758141 69.653587,16.993498  z"/>
<path fill="#D3BF7D" opacity="1.000000" stroke="none" d=" M104.900772,18.633659   C104.583244,18.436438 104.332123,17.929934 104.074921,17.132534   C104.731026,17.116121 105.002205,17.627495 104.900772,18.633659  z"/>
<path fill="#D3BF7D" opacity="1.000000" stroke="none" d=" M70.752167,15.989577   C70.785500,16.163893 70.541512,16.413546 70.110001,16.845564   C70.106606,16.706924 70.290726,16.385920 70.752167,15.989577  z"/>
<path fill="#D3BF7D" opacity="1.000000" stroke="none" d=" M102.011177,14.751316   C101.836716,14.784421 101.587440,14.539432 101.154488,14.107828   C101.292664,14.105217 101.614517,14.289221 102.011177,14.751316  z"/>
<path fill="#D3BF7D" opacity="1.000000" stroke="none" d=" M71.751274,14.990343   C71.783653,15.164396 71.537933,15.412994 71.106339,15.845774   C71.104691,15.708266 71.288940,15.386577 71.751274,14.990343  z"/>
<path fill="#D3BF7D" opacity="1.000000" stroke="none" d=" M103.010910,15.751909   C102.837067,15.784503 102.588089,15.539123 102.154778,15.107632   C102.292229,15.105659 102.613998,15.289798 103.010910,15.751909  z"/>
<path fill="#D3BF7D" opacity="1.000000" stroke="none" d=" M104.008286,16.750282   C103.834328,16.782862 103.585686,16.537977 103.153717,16.106792   C103.291451,16.104601 103.612526,16.288710 104.008286,16.750282  z"/>
<path fill="#D3BF7D" opacity="1.000000" stroke="none" d=" M72.750893,13.989632   C72.783859,14.164223 72.538651,14.413253 72.106972,14.845881   C72.104576,14.707676 72.288651,14.385874 72.750893,13.989632  z"/>
<path fill="#D3BF7D" opacity="1.000000" stroke="none" d=" M101.012665,13.751219   C100.836922,13.786155 100.586037,13.543509 100.154266,13.111766   C100.294769,13.106325 100.616158,13.289982 101.012665,13.751219  z"/>
<path fill="#D3BF7D" opacity="1.000000" stroke="none" d=" M73.748604,12.991024   C73.782539,13.166705 73.538597,13.416116 73.107033,13.847141   C73.103180,13.707422 73.286949,13.386087 73.748604,12.991024  z"/>
</svg>