<svg version="1.1" id="Layer_1" xmlns="http://www.w3.org/2000/svg" xmlns:xlink="http://www.w3.org/1999/xlink" x="0px" y="0px"
	 width="100%" viewBox="0 0 320 240" enable-background="new 0 0 320 240" xml:space="preserve">
<path fill="#1B190D" opacity="1.000000" stroke="none" 
	d="
M163.257843,240.742050 
	C155.645752,241.000000 148.291504,241.000000 140.468628,241.000000 
	C139.383438,240.322601 138.710953,239.617462 137.820312,239.437531 
	C132.729385,238.409012 131.857834,234.707474 129.849319,230.357529 
	C126.363266,222.807541 124.364845,213.898804 116.877762,208.578506 
	C115.104553,207.318481 114.706146,205.357986 114.211853,203.397949 
	C113.149445,199.185181 110.718597,196.490616 106.766151,194.110580 
	C102.420547,191.493835 100.808624,185.554596 95.997925,182.825943 
	C95.187576,182.366333 95.634277,180.620621 95.448074,179.478180 
	C94.626343,174.436340 92.023460,171.766495 86.980064,171.327835 
	C84.714119,171.130753 83.276939,170.400314 82.527443,168.238998 
	C81.710587,165.883438 80.079132,163.651108 77.608147,163.918610 
	C69.923141,164.750565 63.745747,160.593521 56.986259,158.363037 
	C56.511990,158.206528 55.947464,157.831863 55.562939,157.986130 
	C47.119247,161.373657 39.176929,154.890076 30.435177,157.054886 
	C24.581644,158.504456 19.655203,161.125748 14.565358,163.784973 
	C9.619698,166.368881 5.725776,166.104858 1.236180,162.235199 
	C1.000000,147.979111 1.000000,133.958206 1.000000,119.468658 
	C2.837494,115.048683 6.032043,114.177841 10.211876,113.289574 
	C16.017757,112.055740 21.428587,108.962135 27.650070,109.094551 
	C28.269110,109.107727 29.007507,108.629288 29.333553,108.098709 
	C32.306671,103.260429 36.367199,103.691132 41.036564,105.184723 
	C43.997551,106.131859 47.212399,106.550728 50.405033,105.728355 
	C51.535427,105.437180 52.815067,105.334824 53.857849,105.825058 
	C60.965473,109.166496 68.698242,111.043396 75.431068,115.288536 
	C80.896881,118.734802 85.623863,123.329201 91.726898,125.778648 
	C92.191902,125.965286 92.943985,126.192863 92.970108,126.526802 
	C93.480965,133.056198 99.661392,135.297455 103.007927,139.651794 
	C106.723915,144.486877 108.704605,150.020706 111.172958,155.408478 
	C112.906494,159.192322 115.225792,162.658813 118.394089,165.487900 
	C122.236855,168.919250 123.389854,174.051025 126.208839,178.153320 
	C127.531921,180.078720 128.738358,182.014252 130.484268,183.608093 
	C133.817017,186.650482 136.011200,189.997559 137.156677,194.780334 
	C138.463226,200.235794 142.461975,205.036880 146.055115,209.450684 
	C152.656982,217.560349 158.300781,226.319550 164.436783,234.738480 
	C165.873367,236.709564 165.542374,238.843140 163.257843,240.742050 
z"/>
<path fill="#120F08" opacity="1.000000" stroke="none" 
	d="
M125.236671,240.762299 
	C84.942093,241.000000 44.884121,240.969528 4.826436,241.063324 
	C1.919272,241.070129 0.817112,240.688904 0.898075,237.344131 
	C1.167484,226.214233 1.000000,215.073746 1.000000,203.468658 
	C2.118720,201.704819 3.655891,201.006577 5.034546,200.065292 
	C9.698911,196.880753 14.537368,193.874710 15.795598,187.593185 
	C16.297667,185.086655 25.335091,180.380753 27.754326,180.949585 
	C29.324333,181.318741 30.737179,182.349991 30.878338,183.841446 
	C31.224922,187.503433 30.403345,190.956039 28.750469,193.165375 
	C29.843136,190.614410 31.812359,187.462189 32.601028,183.661133 
	C33.651711,178.597290 38.273319,175.106064 42.992233,175.563034 
	C43.658825,175.627579 44.627083,175.522903 44.900909,175.957031 
	C47.266029,179.706818 51.917561,178.304550 55.049595,180.609177 
	C57.706684,182.564301 61.170300,181.862396 64.172844,180.592194 
	C66.851395,179.459030 68.951881,179.682968 70.682137,182.221313 
	C71.540108,183.479996 72.935303,184.788284 74.367889,184.508255 
	C80.639702,183.282227 82.993164,188.124298 86.123726,191.758408 
	C86.993790,192.768417 87.637581,194.251923 88.928291,194.488831 
	C93.050560,195.245438 95.731956,197.608109 98.548943,200.656601 
	C100.483162,202.749786 102.464592,204.388107 103.152634,207.285202 
	C103.791908,209.976929 105.543755,211.433502 108.455978,211.741974 
	C112.201164,212.138672 118.954803,219.268799 119.244469,223.050461 
	C119.399269,225.071350 119.968056,226.971024 120.325668,228.930084 
	C120.595695,230.409378 121.327896,231.112106 122.828262,231.589127 
	C128.182312,233.291397 128.946030,236.080154 125.236671,240.762299 
z"/>
<path fill="#66542E" opacity="1.000000" stroke="none" 
	d="
M1.272994,48.272816 
	C1.000000,44.969406 1.000000,41.938812 1.000000,38.454109 
	C2.917093,34.623859 6.737340,33.133747 9.681864,33.316223 
	C16.695276,33.750835 22.736830,30.477472 29.321096,29.436852 
	C37.270809,28.180428 45.235336,28.882271 53.085545,27.874598 
	C63.422474,26.547722 73.402115,29.244598 83.274101,30.771854 
	C92.096062,32.136665 100.958771,35.156876 109.267632,39.781448 
	C117.279358,44.240646 125.771767,48.404556 134.655548,51.098946 
	C140.381912,52.835716 144.751541,56.739761 150.063599,59.036190 
	C157.147507,62.098591 162.553757,67.665108 168.841125,71.897354 
	C181.166580,80.194061 193.413528,88.652184 208.818146,90.942513 
	C213.882446,91.695457 218.676163,94.174324 224.068695,94.842514 
	C236.551743,96.389282 249.089371,96.848152 261.581543,97.959625 
	C269.564728,98.669922 277.415649,97.483383 285.321228,97.926285 
	C285.986969,97.963585 286.797333,98.138367 287.292419,97.802422 
	C293.105499,93.858017 300.139191,95.404953 306.417633,93.497223 
	C311.485260,91.957405 316.602051,91.493149 320.719177,96.719162 
	C321.000000,101.356903 321.000000,105.713799 321.000000,110.535355 
	C318.093628,122.111603 308.576660,121.638153 300.211975,122.284821 
	C293.705231,122.787857 287.294861,122.965599 281.164307,125.548836 
	C278.019745,126.873856 274.561249,126.094383 271.290588,126.038895 
	C268.437439,125.990509 265.624023,126.003273 262.856415,126.529678 
	C259.503021,127.167488 256.366760,126.945953 253.066788,125.909737 
	C247.085648,124.031601 240.824005,125.377121 234.707245,125.168472 
	C227.111115,124.909378 219.943176,122.863060 212.924713,120.792671 
	C203.727585,118.079597 194.731125,114.474228 185.838028,110.746262 
	C184.129395,110.029999 182.351883,109.535553 181.273834,107.902657 
	C179.479248,105.184410 176.941940,103.277115 174.237549,101.627548 
	C168.324524,98.020866 162.046585,94.651848 157.441528,89.566368 
	C151.604248,83.120125 143.723129,79.259033 138.003113,72.853470 
	C134.920334,69.401207 130.859467,67.373322 126.946648,65.442604 
	C115.603493,59.845520 105.341347,51.829029 92.240997,49.994926 
	C88.891678,49.526009 85.719765,47.666290 82.372444,46.611343 
	C66.908493,41.737682 51.079834,41.559811 35.222031,42.444420 
	C27.956999,42.849697 21.021606,45.775055 14.149247,48.176151 
	C10.928967,49.301270 7.663363,49.299061 4.467967,50.052189 
	C3.125191,50.368671 2.362866,49.356609 1.272994,48.272816 
z"/>
<path fill="#211F12" opacity="1.000000" stroke="none" 
	d="
M163.468658,241.000000 
	C163.017532,236.299118 159.873566,232.842377 157.479492,229.505646 
	C153.066864,223.355637 147.934174,217.517517 143.872635,211.274628 
	C139.994736,205.314041 133.331665,200.407410 133.458557,192.110107 
	C133.485870,190.323700 132.217941,188.949249 130.877960,187.997971 
	C125.035583,183.850372 122.958672,177.182541 119.294350,171.535812 
	C115.539162,165.749054 110.354240,160.915985 107.476997,154.454315 
	C105.559273,150.147491 104.338058,145.548096 100.734268,141.996826 
	C99.214325,140.499023 98.402573,138.521744 95.890823,138.356323 
	C94.460014,138.262085 93.009247,137.278564 92.983658,135.984222 
	C92.837761,128.603302 86.456009,126.276779 81.889740,123.173454 
	C76.316795,119.385971 71.496750,113.577728 63.618729,113.873131 
	C62.304447,113.922417 60.866673,112.189301 59.580772,111.161217 
	C57.122440,109.195763 54.036083,107.488861 51.309158,108.697556 
	C46.394447,110.875984 42.280243,108.851936 37.956669,107.538567 
	C35.754230,106.869537 33.963512,106.407494 33.582684,109.461235 
	C33.283592,111.859543 31.646887,112.226868 29.642414,112.328812 
	C24.257303,112.602669 19.038391,112.566124 14.010589,115.816292 
	C10.625702,118.004417 5.408895,115.930511 1.328028,118.871262 
	C1.000000,112.312355 1.000000,105.624710 1.000000,98.468536 
	C2.988194,94.942169 6.083210,93.820854 9.456267,93.398277 
	C15.381498,92.655960 20.732546,89.925438 26.486597,88.637047 
	C35.130611,86.701569 43.869530,85.406471 52.751362,86.208725 
	C60.703392,86.926987 68.371399,88.819183 75.641510,92.274483 
	C80.955521,94.800087 86.527267,96.850266 90.548332,101.445580 
	C91.681206,102.740234 93.075653,104.101486 94.434113,104.687798 
	C98.822212,106.581673 101.416603,110.173004 104.592636,113.406174 
	C109.841736,118.749695 114.322342,124.832611 118.003006,131.026367 
	C123.667435,140.558350 130.303146,149.516312 135.138367,159.598907 
	C138.567963,166.750443 142.727036,173.647293 147.921997,179.764481 
	C149.665756,181.817795 151.211075,183.859695 151.996704,186.514816 
	C153.070160,190.142639 155.580078,192.925903 158.337051,195.343918 
	C169.161758,204.837830 179.418167,214.980637 190.843399,223.791122 
	C194.805466,226.846451 198.726761,229.937286 203.501404,231.664337 
	C205.598618,232.422928 207.242615,233.874008 208.793274,235.347412 
	C210.234879,236.717178 211.647385,238.388641 209.283096,240.714752 
	C193.979111,241.000000 178.958206,241.000000 163.468658,241.000000 
z"/>
<path fill="#544629" opacity="1.000000" stroke="none" 
	d="
M1.274095,61.273903 
	C1.000000,58.629444 1.000000,56.258884 1.000000,53.444164 
	C2.996682,50.258636 6.133235,49.929543 9.038861,49.686989 
	C13.100837,49.347908 16.832142,48.196522 20.519651,46.604740 
	C24.202286,45.015068 28.240490,44.944424 32.094021,44.101868 
	C42.982323,41.721191 53.731415,42.628765 64.771500,43.329414 
	C79.641777,44.273148 92.617676,50.951290 106.657722,54.180645 
	C110.022675,54.954613 112.976318,57.771599 116.126991,59.614014 
	C126.289635,65.556824 136.929047,70.844185 145.029221,79.883492 
	C148.914429,84.219147 154.679779,86.440804 158.690430,90.867149 
	C166.130844,99.078766 176.300095,104.170296 183.693253,112.531967 
	C186.606216,115.826530 190.551422,117.881477 195.330231,117.002464 
	C197.514404,116.600700 199.199219,117.138634 200.454956,119.124741 
	C202.225723,121.925438 204.882141,123.071304 208.165588,122.676003 
	C210.498154,122.395172 212.337830,123.497711 214.205597,124.636986 
	C218.472931,127.239937 222.885330,128.812469 227.960587,126.926910 
	C230.110321,126.128242 232.131104,126.874054 234.131363,128.010834 
	C238.402603,130.438278 243.028870,131.874786 247.996078,131.478134 
	C257.570709,130.713562 267.213776,131.977036 276.755280,130.454468 
	C280.970123,129.781906 285.063995,128.452454 289.495392,129.491272 
	C291.639313,129.993851 293.549377,128.400894 295.288361,127.011383 
	C299.918854,123.311409 304.757141,120.587517 311.002686,123.313438 
	C313.976471,124.611366 317.782623,122.626358 320.733582,125.735321 
	C321.000000,132.021149 321.000000,138.042297 321.000000,144.531723 
	C320.150085,145.782669 319.470428,146.778961 318.290771,147.146866 
	C301.028534,152.530457 284.131226,159.581100 265.476257,158.564529 
	C263.144379,158.437439 260.661163,158.541718 258.632690,159.690552 
	C254.763977,161.881607 250.500427,161.567230 247.033188,160.143692 
	C239.097137,156.885361 230.792862,156.781509 222.564789,155.856888 
	C218.529922,155.403473 214.793716,154.219131 211.116760,152.548187 
	C206.142288,150.287598 200.717514,148.916519 195.806503,146.864182 
	C189.643494,144.288605 182.801483,141.862030 178.176025,136.260040 
	C176.572250,134.317642 174.576324,132.639297 172.132156,131.971268 
	C168.175430,130.889862 165.873901,127.803665 164.367859,124.659973 
	C162.505051,120.771599 159.826401,117.849472 157.002167,114.769501 
	C148.123993,105.087448 138.499649,96.140594 129.618240,86.450623 
	C124.233803,80.575974 116.380692,77.607376 110.162689,72.585037 
	C103.055420,66.844421 94.540932,63.657829 86.275864,60.332306 
	C64.733681,51.664616 42.764168,51.471313 20.903688,59.326138 
	C15.810884,61.156067 10.595558,61.836845 5.391679,62.867992 
	C3.765253,63.190266 2.539277,62.834530 1.274095,61.273903 
z"/>
<path fill="#8A6F35" opacity="1.000000" stroke="none" 
	d="
M82.725861,1.261373 
	C83.444443,1.000000 83.888893,1.000000 84.666672,1.000000 
	C87.521378,3.474188 90.820618,2.908181 93.712173,2.689137 
	C103.867569,1.919837 113.227127,5.958687 123.034561,7.071719 
	C138.507339,8.827700 152.519516,16.362282 167.975327,18.089495 
	C170.142502,18.331680 172.104691,19.251873 173.863312,20.624929 
	C175.576889,21.962820 177.483658,23.217693 179.603455,23.556683 
	C191.729782,25.495886 203.076324,30.694286 215.351685,32.000237 
	C218.842270,32.371586 222.336594,32.737591 225.798569,32.194378 
	C232.175735,31.193748 238.363617,32.219913 244.512756,33.657436 
	C247.627747,34.385651 250.796234,34.783997 253.919830,34.584255 
	C264.352783,33.917118 274.769958,33.968956 285.195984,34.582867 
	C286.867432,34.681290 288.531555,34.462276 290.132080,33.983940 
	C295.575775,32.356983 300.952820,31.064272 306.636444,33.294727 
	C308.783203,34.137184 311.232666,33.303806 313.547882,33.000816 
	C315.961639,32.684929 318.517670,32.182236 320.719269,34.719490 
	C321.000000,40.688042 321.000000,46.376080 321.000000,52.532059 
	C317.094604,56.719753 312.131622,57.151466 307.134583,57.391956 
	C305.817352,57.455349 304.310486,56.732674 303.182312,57.331554 
	C292.412445,63.048607 280.646088,57.653652 269.626160,60.423252 
	C268.525208,60.699951 267.296814,60.512432 266.150604,60.270557 
	C254.851822,57.886311 243.303543,58.544388 231.895538,57.484798 
	C229.900421,57.299488 227.944443,57.175499 226.016937,56.549358 
	C222.656815,55.457848 219.140991,55.022198 215.657730,55.315178 
	C203.389206,56.347111 192.098694,52.041218 181.400681,47.453358 
	C169.145309,42.197620 157.476547,35.526287 144.953705,30.688551 
	C139.182693,28.459137 133.165390,27.160627 127.254860,25.759249 
	C117.235062,23.383568 107.306992,20.713831 97.330582,18.223858 
	C91.018524,16.648455 84.199059,16.304787 77.531540,16.897655 
	C75.972435,17.036291 74.260956,17.304779 72.976341,16.557480 
	C64.566505,11.665193 55.553562,13.930820 46.670734,13.923188 
	C35.420403,13.913524 24.788605,17.690311 13.724574,18.660337 
	C11.552934,18.850731 9.471112,19.421614 7.390192,20.025646 
	C5.159268,20.673218 3.110796,20.514202 1.268377,18.268295 
	C1.000000,14.969407 1.000000,11.938813 1.000000,8.454110 
	C2.201664,6.506256 3.716265,5.812423 5.668998,5.569248 
	C13.624235,4.578581 21.405958,2.158516 29.540003,2.674661 
	C30.753975,2.751694 31.515890,2.014189 32.718418,1.262427 
	C44.687561,1.000000 56.375122,1.000000 68.531342,1.000000 
	C73.385620,3.703504 77.924896,2.452970 82.725861,1.261373 
z"/>
<path fill="#937535" opacity="1.000000" stroke="none" 
	d="
M321.000000,34.531467 
	C314.116791,35.554455 307.278564,37.720116 300.330872,34.909721 
	C298.146667,34.026188 295.746643,35.472996 293.562195,36.138206 
	C286.985535,38.140961 280.453278,39.044128 273.730316,36.871468 
	C272.670685,36.529037 271.400391,36.633972 270.259216,36.779934 
	C257.257721,38.442875 244.522522,36.374104 231.659470,34.770454 
	C224.862991,33.923134 217.739960,35.230492 210.793182,34.309753 
	C203.162628,33.298382 195.674606,31.623569 188.557632,28.610422 
	C187.456924,28.144411 186.452026,27.817080 185.250565,27.790842 
	C180.444305,27.685888 176.137009,25.934860 172.313507,23.181635 
	C170.066254,21.563429 167.706665,20.566708 165.024918,20.217876 
	C157.060287,19.181873 149.313095,17.162970 141.929565,14.109426 
	C134.563171,11.062964 126.662560,11.000965 119.077957,9.228810 
	C109.620399,7.019036 100.273643,4.019102 90.354034,4.293823 
	C88.404945,4.347802 86.360199,3.711810 85.155167,1.316658 
	C113.354225,1.000000 141.708450,1.000000 170.531342,1.000000 
	C173.557053,3.382204 176.832855,2.094103 179.741394,2.690339 
	C186.862259,4.150081 194.066681,5.221619 201.030258,7.392741 
	C201.507278,7.541467 201.989792,7.760190 202.477020,7.770492 
	C214.759369,8.030170 226.867523,10.763595 239.242065,10.091450 
	C244.448669,9.808643 249.850433,8.937401 254.941788,11.346673 
	C256.618500,12.140104 258.515594,12.126600 260.351532,11.818005 
	C263.366547,11.311226 266.299530,11.535119 269.226624,12.448735 
	C271.848083,13.266957 274.547882,13.135766 277.094940,12.199789 
	C282.571808,10.187170 288.180206,10.605947 293.842560,10.800971 
	C300.812744,11.041039 307.789581,10.464694 314.774353,10.648643 
	C317.259766,10.714101 319.383453,10.865964 320.742004,13.726368 
	C321.000000,20.687645 321.000000,27.375290 321.000000,34.531467 
z"/>
<path fill="#38321F" opacity="1.000000" stroke="none" 
	d="
M320.756012,176.756485 
	C321.000000,181.689255 321.000000,186.378510 321.000000,191.533875 
	C320.093781,192.688339 319.586945,194.114441 318.342438,194.100861 
	C311.353577,194.024628 305.309326,197.828323 298.559204,198.773010 
	C291.138458,199.811584 284.442841,203.520706 277.008148,204.797775 
	C273.595825,205.383911 270.231506,205.695267 266.843140,206.120453 
	C254.804077,207.631210 243.128067,206.825272 231.222031,204.502167 
	C226.075363,203.497925 220.360580,203.438019 214.881180,203.466171 
	C214.048721,203.470459 212.996948,203.756546 212.421829,203.323410 
	C207.697006,199.764969 202.015503,198.544388 196.709610,196.360687 
	C193.311951,194.962357 189.812012,192.969101 186.790588,190.767136 
	C178.442688,184.683350 168.924835,179.821945 163.540100,170.337692 
	C163.127914,169.611710 162.769089,168.727295 162.078171,168.338547 
	C157.099777,165.537430 154.751968,160.363388 151.043747,156.441635 
	C148.710739,153.974289 146.959671,151.314667 145.262131,148.461166 
	C139.713623,139.134430 133.488754,130.296967 125.949821,122.427597 
	C123.906532,120.294754 123.021446,117.311348 120.929253,115.139885 
	C119.439690,113.593887 118.079002,112.004059 115.376389,111.666611 
	C114.783028,111.355385 114.585030,111.156334 114.291458,110.550255 
	C110.242416,103.936447 105.431763,98.542854 99.624298,93.964676 
	C93.756836,89.339211 87.486267,85.349327 81.017441,81.688248 
	C74.713638,78.120567 67.350327,77.770805 60.530056,75.758018 
	C49.452740,72.488899 38.127739,74.340149 27.509344,78.179100 
	C23.678730,79.564011 19.815710,77.863564 16.063757,80.244453 
	C13.586491,81.816452 10.045899,81.891739 7.254251,83.770599 
	C5.784152,84.760025 3.474425,85.343498 1.326115,83.318756 
	C1.000000,80.629440 1.000000,78.258888 1.000000,75.444168 
	C2.626457,72.164185 5.125108,70.766197 8.230066,69.746384 
	C15.499979,67.358597 22.859058,65.097610 30.198463,63.150127 
	C37.289726,61.268486 44.978149,61.514126 52.474339,62.454830 
	C61.847477,63.631069 71.248627,64.522881 80.253242,67.660614 
	C94.987045,72.794731 107.242653,81.715111 118.440552,92.333977 
	C128.718231,102.080193 137.994492,112.629562 146.271973,124.165695 
	C149.161575,128.192871 151.813095,132.650513 156.566544,135.468491 
	C159.633209,137.286484 161.540421,141.239487 163.514893,144.340088 
	C167.671158,150.866882 173.217346,156.170853 178.084412,161.992340 
	C181.792633,166.427734 186.012756,171.646454 193.040085,171.748627 
	C194.897064,171.775620 195.842239,173.337143 197.045425,174.476700 
	C200.811523,178.043640 205.153381,179.791321 210.512436,180.020752 
	C216.769165,180.288589 222.917191,182.060516 229.036987,183.391174 
	C236.880417,185.096603 244.778152,186.361359 252.714645,186.349335 
	C258.071198,186.341217 263.596069,185.366241 268.846619,184.255280 
	C278.530792,182.206207 288.346252,180.461319 297.694427,176.993256 
	C299.462616,176.337280 301.316132,176.531158 303.139801,176.494049 
	C306.169006,176.432404 309.301453,176.343155 311.804138,174.557312 
	C315.631042,171.826508 318.298920,172.794281 320.756012,176.756485 
z"/>
<path fill="#423A24" opacity="1.000000" stroke="none" 
	d="
M321.000000,176.533142 
	C318.050751,176.073517 315.266998,175.858017 312.420380,177.682678 
	C309.985352,179.243515 307.108887,179.376968 304.204346,179.153000 
	C300.992065,178.905334 297.802643,178.978165 295.934814,182.397156 
	C295.660736,182.898834 294.864532,183.546524 294.431793,183.466614 
	C285.533630,181.823502 277.516968,185.684738 269.142883,187.345459 
	C264.381073,188.289795 259.612457,188.714020 254.824265,190.052155 
	C250.780121,191.182343 244.951385,188.958542 239.870071,188.365601 
	C234.359589,187.722580 228.490356,187.922150 223.462051,186.400650 
	C219.550705,185.217133 215.052780,186.831207 211.377670,183.415344 
	C209.392395,181.570099 205.284790,183.043579 202.372162,181.338135 
	C190.654388,174.477005 178.331284,168.900223 169.585144,157.424103 
	C165.044556,151.466232 160.651443,145.343216 156.094299,139.372360 
	C153.860092,136.445038 150.382248,135.095398 148.180115,131.926071 
	C136.532104,115.162170 123.932961,98.893578 107.776100,86.433495 
	C96.826683,77.989372 85.140457,69.960213 70.232239,68.028526 
	C58.715977,66.536339 47.435883,64.321602 35.694851,65.148460 
	C29.869009,65.558739 24.872507,68.187599 19.370245,69.363602 
	C13.373292,70.645325 7.591330,72.932945 1.357822,74.891029 
	C1.000000,72.958336 1.000000,70.916664 1.000000,68.437500 
	C2.464302,65.031456 4.592121,63.090363 8.127431,62.953571 
	C15.598495,62.664486 21.980459,58.445816 29.165983,57.035198 
	C42.042973,54.507267 54.618618,53.471249 67.831223,56.670002 
	C83.211555,60.393559 96.447296,68.349510 110.179054,75.272926 
	C115.724937,78.069107 120.691376,82.889748 125.176643,87.475761 
	C130.891815,93.319328 136.759659,98.927322 143.033051,104.140945 
	C143.929321,104.885803 144.892181,105.663902 145.415070,106.685776 
	C148.959152,113.611618 155.087997,118.512932 159.482086,124.745468 
	C167.035675,135.459396 176.513306,144.152847 186.980026,151.881058 
	C191.161850,154.968735 195.376099,157.374756 200.948456,157.773758 
	C205.820831,158.122604 209.901291,161.799606 214.620377,163.398529 
	C220.124664,165.263504 225.278107,167.156937 231.527267,166.176193 
	C235.814911,165.503281 240.897629,166.764618 245.016281,168.665939 
	C248.434479,170.243927 251.626480,170.838379 255.098450,170.301163 
	C259.570862,169.609177 264.046997,169.544189 268.542480,169.572144 
	C269.879761,169.580475 271.318176,169.709976 272.495392,169.144104 
	C280.199585,165.440704 288.975311,165.133118 296.664795,161.445160 
	C298.554688,160.538757 300.530396,160.545349 302.518860,160.435120 
	C305.202240,160.286377 308.016998,160.119019 310.238831,158.644943 
	C314.417542,155.872696 317.611938,156.852524 320.741943,160.741989 
	C321.000000,166.022095 321.000000,171.044189 321.000000,176.533142 
z"/>
<path fill="#16140A" opacity="1.000000" stroke="none" 
	d="
M125.466118,241.000000 
	C125.037872,237.163422 125.151375,233.743347 119.323311,236.070709 
	C116.745163,237.100250 115.026382,234.595978 116.294212,232.170807 
	C118.266083,228.398880 114.135277,225.315079 115.687538,221.707596 
	C115.943390,221.112961 114.589378,220.683258 113.754082,220.504623 
	C112.952019,220.333084 111.500191,220.131760 111.475571,219.845383 
	C110.964584,213.901352 106.052505,214.810638 102.347435,213.831421 
	C100.616112,213.373871 100.028671,212.196548 100.226120,210.428299 
	C100.545273,207.570053 100.483963,204.884445 96.419479,205.089737 
	C96.110886,205.105316 95.526062,204.933578 95.515396,204.810349 
	C94.878723,197.453339 87.020866,198.271423 83.215179,194.291183 
	C80.562241,191.516556 78.252052,185.940933 72.325348,187.605530 
	C71.937935,187.714340 71.153603,187.434937 70.974701,187.106750 
	C68.454956,182.484177 64.577820,184.232361 60.766018,184.581436 
	C57.566422,184.874466 54.008347,186.649857 51.218990,182.724655 
	C49.995705,181.003235 48.750778,183.172089 47.910210,184.344345 
	C47.175472,185.369019 46.765076,187.053558 44.985229,186.211594 
	C43.722424,185.614227 43.100632,184.409195 42.976814,182.971405 
	C42.830788,181.275650 45.541023,178.069794 41.183941,178.516342 
	C38.218987,178.820190 36.104504,181.016357 35.951981,184.271210 
	C35.874302,185.928970 37.739277,187.544968 35.718578,189.275482 
	C31.902973,192.543137 28.586212,196.572754 22.989805,196.812134 
	C22.068251,196.851517 21.253563,196.603134 21.049772,195.645157 
	C20.732887,194.155548 21.798302,193.458450 22.974575,193.213318 
	C26.754454,192.425583 28.138248,189.889160 28.164892,186.349380 
	C28.176584,184.796417 26.542017,183.167450 25.921391,184.433411 
	C23.991718,188.369568 18.288273,187.285538 17.046600,192.572403 
	C15.827543,197.763016 6.061835,203.451416 1.363081,203.049179 
	C1.000000,189.645767 1.000000,176.291550 1.000000,162.468658 
	C10.678180,165.030121 17.430502,158.843369 24.626694,154.320633 
	C26.346840,153.239517 27.468821,151.321274 29.577026,153.483200 
	C29.790613,153.702225 30.388670,153.933716 30.433502,153.874695 
	C33.696102,149.579849 37.519436,154.367996 40.957787,153.210114 
	C42.716324,152.617920 44.228741,152.900711 45.372742,154.487778 
	C46.595993,156.184799 47.795387,155.734619 49.634422,155.093536 
	C53.021358,153.912857 56.749866,152.521378 60.054596,155.642120 
	C61.048489,156.580673 62.217045,156.291199 63.354671,156.022278 
	C65.323326,155.556854 67.035049,155.269211 66.987816,158.268768 
	C66.956322,160.268265 68.586197,160.554260 70.173264,160.607300 
	C72.499832,160.685059 74.828239,160.710403 77.154411,160.796921 
	C78.309654,160.839890 80.204208,160.568710 80.502144,161.120789 
	C84.124069,167.832291 93.701958,167.034012 96.877686,174.266739 
	C97.540985,175.777390 98.590454,177.097092 98.614571,178.850021 
	C98.623657,179.510300 98.644257,180.718414 98.821327,180.749283 
	C105.579956,181.927765 104.431587,190.790909 110.730415,192.739212 
	C114.473686,193.897049 115.501640,198.091736 116.587395,201.568726 
	C117.363884,204.055344 118.551437,205.862289 120.662819,207.530914 
	C124.620941,210.659058 125.883698,215.831497 128.811554,219.838669 
	C130.237671,221.790527 130.534546,224.506470 133.102585,225.988525 
	C134.792694,226.963913 133.976425,228.972046 133.728867,230.603088 
	C133.481842,232.230698 133.139069,234.993652 134.985641,234.744156 
	C140.033295,234.062119 138.952957,237.847702 139.917526,240.641632 
	C135.310745,241.000000 130.621490,241.000000 125.466118,241.000000 
z"/>
<path fill="#493E25" opacity="1.000000" stroke="none" 
	d="
M321.000000,160.533142 
	C312.438446,160.034073 304.470581,162.474686 296.638611,165.422638 
	C293.664368,166.542145 290.506775,166.962585 287.501984,167.574219 
	C278.347443,169.437592 269.731567,174.182648 259.865845,172.659912 
	C257.038635,172.223511 253.968658,173.400635 251.004074,173.793259 
	C249.869659,173.943481 248.264862,174.493103 247.651886,173.962509 
	C244.588837,171.311203 240.936508,170.922256 237.191971,170.450562 
	C235.213165,170.201279 232.736069,166.562759 231.853775,171.564819 
	C231.812546,171.798584 230.755615,172.161331 230.624725,172.025970 
	C227.637344,168.936630 223.049454,171.681915 219.701584,168.686218 
	C217.092789,166.351868 213.295547,165.115891 209.607635,164.730835 
	C207.340973,164.494156 205.398209,164.027237 203.890106,162.205856 
	C202.896103,161.005371 201.431152,159.973663 199.977859,160.371078 
	C194.212082,161.947800 190.288635,158.281204 186.569061,155.299759 
	C178.289337,148.663147 169.463425,142.277893 162.791992,134.195572 
	C157.047363,127.236046 150.776779,120.400993 146.202881,112.565178 
	C143.036057,107.139885 137.990051,103.941963 133.802765,99.849930 
	C127.557274,93.746483 121.380714,87.536560 114.269844,82.216774 
	C98.019707,70.059731 79.811066,62.566536 60.437996,57.504959 
	C54.735840,56.015167 48.815643,57.293991 43.032280,57.611477 
	C28.656469,58.400661 15.605264,64.869865 1.348525,67.871178 
	C1.000000,65.958336 1.000000,63.916668 1.000000,61.437500 
	C12.239673,60.217995 22.368563,54.792297 33.435928,53.258633 
	C41.328003,52.164989 49.200104,50.925938 57.077175,49.725910 
	C59.772030,49.315361 61.736000,51.489555 64.192314,51.714664 
	C78.576538,53.032883 91.088211,59.984253 104.294067,64.860809 
	C107.120483,65.904533 108.569977,68.498535 110.988098,69.966682 
	C115.527428,72.722702 119.477211,76.365837 124.350601,78.648903 
	C130.426163,81.495155 133.898941,87.253464 138.532501,91.714737 
	C146.630432,99.511574 153.694382,108.344795 162.405350,115.528854 
	C163.040131,116.052361 163.803436,116.605293 164.108688,117.315697 
	C169.994232,131.012970 182.906143,137.621063 194.784439,143.049240 
	C206.451538,148.380920 218.591904,155.252625 232.617523,154.124298 
	C238.353119,153.662888 243.705429,157.716904 249.096634,157.347534 
	C265.367493,156.232742 281.883240,156.588120 297.608398,150.811829 
	C304.871613,148.143860 312.055542,144.733231 320.561951,145.003113 
	C321.000000,150.022095 321.000000,155.044189 321.000000,160.533142 
z"/>
<path fill="#2C2919" opacity="1.000000" stroke="none" 
	d="
M1.277459,92.277435 
	C1.000000,90.611107 1.000000,89.222221 1.000000,87.416664 
	C3.704348,83.228783 8.107445,82.644798 12.039228,81.613754 
	C23.356014,78.646088 34.614960,75.447060 46.389709,74.419945 
	C55.142387,73.656433 62.970436,77.011833 71.215981,78.564705 
	C80.413826,80.296921 87.539825,85.758904 95.202225,90.479469 
	C103.268608,95.448906 108.458740,103.250069 115.662193,109.681343 
	C116.010056,109.987213 116.000305,109.999695 116.005585,109.994743 
	C127.677605,122.534698 137.596909,136.374390 146.710938,150.853714 
	C154.017090,162.460892 161.488983,173.989700 172.297501,182.833649 
	C174.865768,184.935089 176.685593,187.766495 179.181717,190.009048 
	C187.067688,197.093857 196.298630,201.603195 206.391556,204.219162 
	C211.623657,205.575272 216.071121,208.482819 221.081314,210.238983 
	C227.701187,212.559372 234.192047,212.651047 241.132065,212.145615 
	C246.615082,211.746292 252.231308,212.370255 257.858887,211.978806 
	C262.924316,211.626434 267.937714,209.660187 273.156830,211.126862 
	C274.581207,211.527130 276.084778,210.576126 277.284912,209.648483 
	C281.133392,206.673752 285.559021,205.604919 290.320557,205.328033 
	C295.619537,205.019897 299.996185,201.901031 304.742523,200.017776 
	C308.930603,198.356003 313.373657,197.572571 317.447052,195.695724 
	C318.773010,195.084778 319.657471,195.493927 320.739685,196.741089 
	C321.000000,201.024551 321.000000,205.049088 321.000000,209.536819 
	C318.203125,213.321716 314.270477,215.217316 310.434937,216.394058 
	C299.947815,219.611526 290.636810,225.624649 279.884766,228.331177 
	C274.399719,229.711868 269.349609,232.982452 263.517334,233.851578 
	C251.185257,235.689331 239.206039,235.688507 226.749908,232.748169 
	C217.016571,230.450546 208.175171,225.941177 198.460861,223.685059 
	C193.701111,222.579620 189.451004,217.831451 184.963058,214.740677 
	C180.996460,212.008942 177.405350,208.734909 172.942795,206.742004 
	C172.036331,206.337173 171.113525,205.885651 170.509064,205.056900 
	C163.285156,195.152466 153.741882,187.062317 147.275742,176.665115 
	C141.254654,166.983536 134.001923,158.035995 129.611160,147.309479 
	C126.993149,140.913742 122.439316,135.622833 117.786049,130.527206 
	C117.394615,130.098572 116.763931,129.652267 116.626167,129.253326 
	C113.957184,121.524727 106.605042,117.399551 102.499268,110.793739 
	C102.060883,110.088417 101.522308,109.368095 100.828674,108.953506 
	C91.214302,103.206947 83.916191,94.356003 72.404671,90.845955 
	C62.777050,87.910339 53.349525,85.559128 43.479469,86.310158 
	C37.193634,86.788460 30.870178,87.381584 24.566422,89.186836 
	C18.531059,90.915237 12.770440,94.143509 6.153765,94.055351 
	C4.272602,94.030273 2.795686,93.988518 1.277459,92.277435 
z"/>
<path fill="#705B30" opacity="1.000000" stroke="none" 
	d="
M321.000000,96.533882 
	C310.447571,94.393585 300.399353,96.561150 290.599304,100.412895 
	C286.541748,102.007645 282.340179,100.360535 278.310547,101.462624 
	C272.858795,102.953644 267.467804,100.822693 262.203156,100.943893 
	C246.735718,101.299965 231.691498,98.178406 216.453247,96.785477 
	C212.421707,96.416962 208.852722,93.969337 204.692764,93.396309 
	C202.486710,93.092430 200.563065,91.312180 198.320053,93.353027 
	C198.020981,93.625153 196.879089,93.473495 196.537140,93.120857 
	C191.051651,87.463898 183.301865,85.624474 177.040375,81.490395 
	C170.056519,76.879379 163.624191,71.263817 156.627060,66.593102 
	C149.927109,62.120781 143.025528,57.470478 135.535828,54.787624 
	C126.932541,51.705872 118.889603,47.362671 110.568901,43.826645 
	C104.563858,41.274693 98.209259,38.889664 92.322128,35.746719 
	C87.729080,33.294643 82.560738,32.858032 77.428062,32.083004 
	C66.032005,30.362225 54.630138,29.390228 43.140438,30.062019 
	C34.391136,30.573582 25.821117,32.236542 17.364374,34.670238 
	C12.279434,36.133595 6.966137,36.803444 1.377732,37.914948 
	C1.000000,36.933331 1.000000,35.866661 1.000000,34.399994 
	C2.899370,29.650908 6.552138,28.462883 10.901661,28.430229 
	C13.932767,28.407475 16.781391,27.393387 19.688330,26.671984 
	C37.641994,22.216473 55.656487,21.818983 73.999527,24.545612 
	C92.328575,27.270157 109.880798,32.391762 127.476830,37.985619 
	C144.376434,43.358082 159.114761,52.461552 174.050980,61.419754 
	C176.653992,62.980938 179.788239,63.263657 182.216537,65.086296 
	C191.489319,72.046257 202.600555,74.465309 213.507782,76.336281 
	C224.978699,78.303940 236.397583,80.644478 248.290283,80.933899 
	C259.092773,81.196793 269.816345,82.582863 280.625916,80.839966 
	C282.725403,80.501457 284.893219,81.406052 287.055542,81.546021 
	C288.720123,81.653755 290.612518,82.188065 291.969360,81.272346 
	C298.829742,76.642403 306.343628,78.307037 313.748962,78.664490 
	C316.349152,78.790001 318.652771,79.473114 320.725586,81.725662 
	C321.000000,86.689255 321.000000,91.378510 321.000000,96.533882 
z"/>
<path fill="#786232" opacity="1.000000" stroke="none" 
	d="
M321.000000,81.535355 
	C316.017609,81.620316 311.028290,81.313133 306.054962,80.838440 
	C301.937317,80.445419 298.073212,80.768150 294.749481,83.584648 
	C293.588165,84.568726 292.057892,85.660942 290.674591,85.087105 
	C285.377899,82.889915 279.869629,85.223701 274.565582,84.047623 
	C274.246460,83.976868 273.824554,83.878571 273.583191,84.019844 
	C266.351929,88.252441 259.352936,84.586281 252.293167,83.399162 
	C245.533218,82.262474 238.742126,84.176743 231.899109,82.842300 
	C228.125381,82.106392 224.360443,80.137711 220.886444,80.234703 
	C212.132965,80.479065 204.592667,75.706078 196.207718,75.349457 
	C190.334167,75.099632 185.955948,71.535629 181.607010,68.925117 
	C166.240417,59.701092 151.141174,49.875053 134.512146,43.223816 
	C117.223129,36.308598 99.098953,31.629028 80.799980,28.022516 
	C64.551437,24.820122 47.941132,24.440231 31.731417,26.939981 
	C21.704805,28.486217 11.336733,29.907339 1.342851,33.870407 
	C1.000000,31.629442 1.000000,29.258884 1.000000,26.444164 
	C3.264927,22.472881 6.623073,21.084555 10.671647,20.441847 
	C18.546719,19.191690 26.404596,17.812006 34.212933,16.148830 
	C39.919167,14.933405 45.876427,14.757482 51.584122,14.902423 
	C60.204227,15.121323 68.954529,15.357716 77.443802,17.603350 
	C83.556488,19.220316 89.965775,18.662413 96.175095,20.265116 
	C103.066589,22.043892 109.779465,24.615688 116.841698,25.639544 
	C127.788567,27.226576 137.379120,32.850578 147.888260,35.782867 
	C154.271286,37.563877 159.673431,41.870079 165.698898,44.687496 
	C173.379959,48.279053 180.911377,52.227196 189.093903,54.619534 
	C191.709045,55.384125 193.582993,57.383915 196.109512,58.361233 
	C201.443573,60.424572 207.116898,60.929070 212.541016,62.403931 
	C222.570435,65.131004 233.248077,63.964081 243.056320,68.097176 
	C246.694290,69.630196 251.066101,69.167068 254.865128,67.942253 
	C258.018311,66.925652 260.975647,66.587006 264.135162,67.315125 
	C268.330414,68.281937 272.387909,66.856628 276.512024,66.636253 
	C281.321136,66.379280 286.166107,66.188103 290.972412,67.010262 
	C297.605896,68.144958 303.245911,64.454361 309.356293,63.070488 
	C316.120148,61.538628 316.966309,61.691887 320.743530,67.731094 
	C321.000000,72.356903 321.000000,76.713799 321.000000,81.535355 
z"/>
<path fill="#7F6733" opacity="1.000000" stroke="none" 
	d="
M321.000000,67.533882 
	C315.378479,63.215931 309.376129,66.395203 303.862946,67.801460 
	C298.437500,69.185333 293.274536,70.177658 287.672394,69.411148 
	C284.252716,68.943260 280.619904,68.921562 277.238159,69.543709 
	C271.924133,70.521332 266.771118,70.336853 261.427673,69.839333 
	C256.821869,69.410492 252.598068,72.960381 247.486084,71.793922 
	C244.785599,71.177711 241.961853,71.096794 239.321198,69.947784 
	C234.835968,67.996155 230.255554,66.583565 225.302582,68.326225 
	C223.852646,68.836380 222.247375,68.860764 220.918076,68.077637 
	C213.381607,63.637665 204.549942,64.211342 196.443375,61.901566 
	C191.519089,60.498505 187.795013,57.386086 183.238617,55.561203 
	C173.882797,51.814117 164.348404,48.224396 155.754822,42.653702 
	C151.747147,40.055763 147.296234,38.116100 142.397263,37.317055 
	C139.303329,36.812424 136.258774,35.643356 133.841690,33.447800 
	C131.368301,31.201096 128.175247,31.896833 125.340134,31.141886 
	C117.497093,29.053410 109.651344,26.946394 101.909576,24.518543 
	C98.080017,23.317574 94.086189,22.751541 90.251015,22.149889 
	C72.547546,19.372612 54.719696,15.367831 36.768116,18.739458 
	C25.073904,20.935841 13.038912,21.664131 1.363883,25.902294 
	C1.000000,23.629442 1.000000,21.258884 1.000000,18.444164 
	C11.398272,16.893204 21.578861,14.558843 31.822151,12.569111 
	C39.148731,11.145941 46.620087,11.297404 54.014553,10.660779 
	C65.267296,9.691978 75.726410,14.406695 86.775970,14.471272 
	C87.436447,14.475132 88.131950,14.821844 88.750572,14.700399 
	C97.732048,12.937203 105.241722,18.214165 113.506569,19.857618 
	C122.247917,21.595819 130.919495,23.685923 139.663910,25.407154 
	C142.718506,26.008415 144.896469,28.372896 147.868378,28.934607 
	C158.962418,31.031454 168.312210,37.523254 178.277206,42.093758 
	C186.671249,45.943737 195.305740,47.773300 203.658966,50.846844 
	C211.840057,53.857071 219.933655,51.569870 227.968216,53.779045 
	C235.695480,55.903728 244.045486,56.166248 252.248428,55.497673 
	C254.351105,55.326294 256.539825,55.832710 258.651703,56.227360 
	C263.716339,57.173805 268.611084,57.863914 273.927582,56.884228 
	C280.412781,55.689182 287.162415,55.231606 293.759888,57.119659 
	C294.651367,57.374779 296.001709,57.476902 296.626801,56.990673 
	C303.816742,51.398106 312.631500,55.533112 320.643066,52.959774 
	C321.000000,57.689255 321.000000,62.378510 321.000000,67.533882 
z"/>
<path fill="#272417" opacity="1.000000" stroke="none" 
	d="
M1.000000,92.428467 
	C6.180491,92.116058 11.102407,91.960419 15.764505,88.729767 
	C19.266787,86.302818 24.047749,86.582222 28.196875,85.681618 
	C43.185066,82.428276 58.006126,82.829506 72.783630,88.306587 
	C80.773750,91.268021 87.079414,95.733459 93.768570,100.790070 
	C100.359329,105.772293 106.688995,110.791031 111.299225,117.360794 
	C119.155670,128.556564 129.926483,137.804840 134.386139,151.324539 
	C135.595413,154.990509 138.371475,157.912903 140.565186,160.872421 
	C144.866669,166.675491 147.505829,173.601639 152.732407,178.707672 
	C155.780441,181.685410 156.883102,186.045959 159.776901,188.956802 
	C170.116287,199.357254 180.423599,209.703278 193.582977,216.903061 
	C201.584457,221.280869 209.788300,225.084702 218.428757,227.376572 
	C226.226334,229.444870 234.129898,231.305176 242.006149,233.175049 
	C242.970306,233.403931 244.164215,233.836899 244.943863,233.487839 
	C251.913620,230.367218 259.560913,232.048203 266.859497,229.830521 
	C283.362396,224.816055 298.936462,217.640381 314.891327,211.348907 
	C316.572205,210.686111 318.435791,210.486588 320.607300,210.036072 
	C321.000000,212.700012 321.000000,215.400024 321.000000,218.550018 
	C317.497009,224.032913 312.700958,227.039139 306.708008,228.257812 
	C305.075134,228.589859 303.357758,229.168991 302.221069,230.350159 
	C297.049988,235.723770 290.423309,238.310303 283.272888,240.739868 
	C258.645782,241.000000 234.291550,241.000000 209.468658,241.000000 
	C208.060654,237.920898 206.071075,235.570709 203.068192,234.707504 
	C197.407791,233.080353 192.888702,229.584518 189.001678,225.618591 
	C182.326492,218.807922 173.025894,215.112503 167.339813,207.376617 
	C163.162125,201.692856 155.781906,199.393158 152.585632,193.007706 
	C146.509003,180.867966 136.906631,170.932037 131.446533,158.381058 
	C129.212906,153.246658 125.820740,148.597870 122.792305,143.831940 
	C118.307419,136.773911 113.859871,129.621704 108.967964,122.910423 
	C101.452370,112.599663 92.368263,103.687363 80.543823,97.851822 
	C72.166367,93.717415 63.997005,89.443443 54.445465,88.876427 
	C44.936516,88.311951 35.523430,89.018974 26.285997,91.280167 
	C18.063171,93.292999 9.926206,95.656593 1.375673,97.932693 
	C1.000000,96.285645 1.000000,94.571281 1.000000,92.428467 
z"/>
<path fill="#5D4D2C" opacity="1.000000" stroke="none" 
	d="
M321.000000,125.533882 
	C316.481140,126.466873 311.878021,128.591812 307.546051,125.266945 
	C307.201538,125.002541 306.204224,124.921654 306.150513,125.041771 
	C304.192535,129.420090 298.985016,127.289040 296.195648,130.067841 
	C294.230499,132.025528 291.613098,133.022232 288.873291,132.686523 
	C282.067322,131.852524 275.417389,133.336502 268.758667,134.029861 
	C259.027252,135.043152 249.412552,134.304077 239.784454,133.407852 
	C236.673660,133.118271 233.148346,133.606445 230.838242,130.233994 
	C229.957779,128.948624 228.020065,129.892197 226.594406,130.314056 
	C223.750687,131.155502 220.948547,130.952927 218.291565,129.751450 
	C213.959229,127.792397 209.144424,127.005516 204.932083,125.490608 
	C199.089661,123.389473 193.435913,120.525688 187.294662,118.736885 
	C184.111099,117.809570 181.655396,114.842209 179.347519,112.110825 
	C176.368851,108.585541 173.323914,104.918709 168.197571,104.225838 
	C167.341736,104.110176 166.412506,103.264030 165.841782,102.509819 
	C160.270996,95.148178 153.878281,88.761406 145.430313,84.694527 
	C144.709869,84.347702 144.087341,83.687584 143.566589,83.052284 
	C135.080673,72.699806 123.101494,67.400696 111.997772,60.697449 
	C100.415527,53.705322 87.591400,50.000504 74.826584,47.428375 
	C61.403034,44.723518 47.570488,43.392742 33.425098,46.480339 
	C24.867620,48.348228 16.836924,52.570164 7.854645,52.545498 
	C5.864041,52.540031 3.872615,52.834297 1.440784,52.995274 
	C1.000000,51.611111 1.000000,50.222221 1.000000,48.416664 
	C10.078115,45.622574 19.188091,43.359306 28.225737,40.836887 
	C38.041553,38.097279 47.931278,39.580879 57.834831,39.753857 
	C68.085320,39.932899 78.083351,41.917976 87.635216,44.977337 
	C97.989761,48.293785 108.551422,51.654247 117.862411,57.557682 
	C121.276718,59.722446 124.890678,61.386292 128.487366,63.021782 
	C135.916702,66.400063 140.729309,73.110893 147.360306,77.254257 
	C152.537033,80.488937 156.245010,85.631729 162.072922,87.829712 
	C162.377075,87.944420 162.764648,88.109039 162.898956,88.363564 
	C166.714859,95.594803 175.510910,96.767204 180.325684,102.367920 
	C186.214417,109.217957 194.604568,110.320282 201.861893,113.997238 
	C204.134628,115.148743 206.513382,115.792160 209.100067,115.024353 
	C210.263763,114.678925 211.503098,114.702644 212.333649,115.726608 
	C217.503769,122.100723 225.439178,120.575089 232.077744,122.072502 
	C240.341721,123.936539 249.090988,121.430527 257.704346,123.663612 
	C262.565704,124.923958 267.833923,121.684738 273.167877,122.308342 
	C282.898560,123.445976 291.965363,118.564789 301.932190,119.446800 
	C308.697357,120.045494 315.790375,117.537346 320.735474,111.200310 
	C321.000000,115.689255 321.000000,120.378510 321.000000,125.533882 
z"/>
<path fill="#302C1B" opacity="1.000000" stroke="none" 
	d="
M321.000000,196.583344 
	C309.389618,200.783951 298.696136,207.331467 286.229584,208.538925 
	C285.901154,208.570755 285.494598,208.582565 285.268829,208.773987 
	C278.743347,214.307007 270.635162,214.337570 262.838470,214.778870 
	C256.164459,215.156616 249.601318,218.948700 242.638611,215.138763 
	C240.370728,213.897766 237.143265,215.500702 234.352646,215.699051 
	C223.869308,216.444092 215.688675,209.361618 206.143127,207.884094 
	C198.235550,206.660110 192.934647,201.014252 185.669006,198.794128 
	C180.880310,197.330872 176.930435,192.363708 173.200089,188.404709 
	C169.309860,184.276062 164.627182,180.875381 161.158432,176.531342 
	C157.393692,171.816605 152.794113,167.349045 150.353668,161.980621 
	C146.431717,153.353149 139.850540,146.687943 135.274826,138.682755 
	C130.736801,130.743546 126.141708,123.058838 119.170776,116.926857 
	C117.584160,115.531189 117.170883,112.801659 116.114204,110.337936 
	C120.657181,111.175201 123.512131,114.008263 125.832100,118.349670 
	C128.205276,122.790634 131.571442,126.968704 135.329514,130.340622 
	C141.332001,135.726303 144.230942,143.063477 148.845383,149.255981 
	C152.886719,154.679443 156.362793,160.854279 162.518250,164.460403 
	C163.677170,165.139328 164.878311,165.764343 165.490524,167.023315 
	C171.014557,178.382950 181.495071,184.148788 191.781082,189.993286 
	C195.876190,192.320129 199.622482,196.313721 205.250931,194.530548 
	C205.819794,194.350311 207.043625,194.979004 207.397964,195.570892 
	C211.931839,203.144073 219.759064,200.965836 226.277435,201.382645 
	C230.925476,201.679855 235.579819,201.785934 240.018753,203.026184 
	C248.157639,205.300186 256.029602,204.054443 264.116241,202.685745 
	C268.440155,201.953918 272.929321,202.425598 277.418610,201.455719 
	C287.104767,199.363144 296.373474,195.891556 305.971802,193.553818 
	C310.669525,192.409683 315.279510,190.990860 320.594788,191.981415 
	C321.000000,193.388885 321.000000,194.777786 321.000000,196.583344 
z"/>
<path fill="#9E7D37" opacity="1.000000" stroke="none" 
	d="
M321.000000,13.523338 
	C317.399353,12.811341 313.647064,13.395038 310.077087,13.664065 
	C298.550842,14.532672 286.835052,11.685718 275.456085,15.493486 
	C273.063446,16.294134 270.510376,15.971319 268.062744,15.199609 
	C266.954926,14.850319 265.751099,14.256380 264.684082,14.412194 
	C254.313339,15.926620 244.265549,12.478155 233.837158,12.708149 
	C221.408966,12.982250 208.781525,11.915107 196.355103,9.085549 
	C189.254044,7.468597 182.320114,5.247584 175.194061,3.793856 
	C173.671982,3.483349 172.360458,2.839619 171.206879,1.282476 
	C219.530899,1.000000 268.062012,1.058189 316.592346,0.890596 
	C320.515594,0.877048 321.506409,1.957008 321.058105,5.574800 
	C320.753845,8.030125 321.000000,10.553651 321.000000,13.523338 
z"/>
<path fill="#302C1B" opacity="1.000000" stroke="none" 
	d="
M115.883598,109.663734 
	C113.047516,109.912720 111.253418,108.108597 109.473808,105.962738 
	C97.472237,91.491165 82.360176,82.597992 63.821259,78.496391 
	C53.775982,76.273949 43.870827,75.540092 34.221920,77.655235 
	C23.269320,80.056152 12.090913,82.158981 1.344556,86.873123 
	C1.000000,85.933327 1.000000,84.866661 1.000000,83.399994 
	C5.033237,83.216591 8.154089,80.364830 11.870443,79.694344 
	C23.913391,77.521622 35.513081,73.158485 47.895180,72.617569 
	C52.601048,72.412003 57.199825,72.774101 61.729481,73.846031 
	C72.373909,76.364983 82.845604,79.481003 91.836479,86.000908 
	C100.929947,92.595200 109.995148,99.296806 115.883598,109.663734 
z"/>
<path fill="#211F12" opacity="1.000000" stroke="none" 
	d="
M283.468384,241.000000 
	C283.357513,240.439178 283.581299,239.628693 284.092529,239.354782 
	C292.485931,234.857880 299.097290,227.466812 308.648590,224.747482 
	C312.731415,223.585037 316.427429,221.064026 320.649597,219.080170 
	C321.000000,222.361282 321.000000,225.722580 321.000000,229.541931 
	C317.342804,235.616837 310.610260,236.157608 305.469086,239.327301 
	C304.850952,239.708405 304.248566,240.204865 303.273254,240.741150 
	C296.645599,241.000000 290.291199,241.000000 283.468384,241.000000 
z"/>
<path fill="#937535" opacity="1.000000" stroke="none" 
	d="
M32.531342,1.000000 
	C32.466492,2.238935 31.855486,3.813428 30.489805,3.878062 
	C20.775356,4.337815 11.788554,9.748168 1.389294,8.031347 
	C0.999999,1.000000 0.999999,1.000000 7.840972,1.000000 
	C15.914876,1.000000 23.988779,1.000000 32.531342,1.000000 
z"/>
<path fill="#1B190D" opacity="1.000000" stroke="none" 
	d="
M303.469727,241.000000 
	C306.244537,233.371918 313.979706,232.926529 320.642334,230.096771 
	C321.000000,233.610138 322.415100,238.941238 320.644043,240.397507 
	C318.398285,242.244125 313.564728,240.953323 309.846863,240.996002 
	C307.877960,241.018616 305.908600,241.000000 303.469727,241.000000 
z"/>
<path fill="#937535" opacity="1.000000" stroke="none" 
	d="
M82.535355,1.000000 
	C79.055176,5.140424 74.091293,5.339819 69.195908,1.273314 
	C73.356903,1.000000 77.713799,1.000000 82.535355,1.000000 
z"/>
<path fill="#16140A" opacity="1.000000" stroke="none" 
	d="
M72.675537,193.188416 
	C72.815796,192.930130 73.000473,192.772766 73.185165,192.615417 
	C73.247864,192.748795 73.310555,192.882172 73.373245,193.015549 
	C73.155487,193.106812 72.937721,193.198090 72.675537,193.188416 
z"/>
</svg>