<svg version="1.1" id="Layer_1" xmlns="http://www.w3.org/2000/svg" xmlns:xlink="http://www.w3.org/1999/xlink" x="0px" y="0px"
	 width="100%" viewBox="0 0 750 750" enable-background="new 0 0 750 750" xml:space="preserve">
<path fill="#47704C" opacity="1.000000" stroke="none" 
	d="
M443.000000,751.000000 
	C295.333344,751.000000 148.166672,751.000000 1.000000,751.000000 
	C1.000000,501.000000 1.000000,251.000000 1.000000,1.000000 
	C251.000000,1.000000 501.000000,1.000000 751.000000,1.000000 
	C751.000000,251.000000 751.000000,501.000000 751.000000,751.000000 
	C648.500000,751.000000 546.000000,751.000000 443.000000,751.000000 
M487.454041,732.006104 
	C514.658997,723.381409 540.584717,711.930908 565.200256,697.432312 
	C590.705811,682.409424 614.163818,664.685181 635.273132,644.014648 
	C645.914001,633.594971 655.743774,622.298279 665.424377,610.957764 
	C680.933594,592.789124 693.773254,572.737732 705.042175,551.716125 
	C717.259521,528.925232 726.793091,505.039062 734.137451,480.209045 
	C743.619263,448.152679 747.964172,415.379822 748.935425,382.093597 
	C749.147400,374.828918 748.483276,367.524475 747.971436,360.256012 
	C747.101013,347.897308 746.320862,335.521027 744.980042,323.209076 
	C742.740662,302.645966 737.670593,282.661407 731.458252,262.978180 
	C723.018494,236.237869 711.591187,210.830215 697.341980,186.651031 
	C682.398560,161.293930 664.774658,137.966705 644.243469,116.958961 
	C633.834595,106.308548 622.535400,96.479340 611.193542,86.800644 
	C592.258789,70.642487 571.340271,57.346169 549.356323,45.732857 
	C527.368652,34.117603 504.368683,25.040668 480.523193,17.943792 
	C448.488220,8.409579 415.704803,4.062600 382.419250,3.061855 
	C375.155243,2.843458 367.850433,3.515568 360.581696,4.024520 
	C348.056641,4.901514 335.511932,5.668087 323.035522,7.030844 
	C302.640106,9.258566 282.798035,14.260960 263.278748,20.421978 
	C236.387466,28.909868 210.811493,40.380119 186.500458,54.744827 
	C161.160736,69.717354 137.831879,87.334915 116.835205,107.878273 
	C106.190277,118.293358 96.367332,129.596329 86.679451,140.930954 
	C70.939651,159.346176 57.919823,179.679703 46.552471,201.024948 
	C34.479137,223.695847 24.978806,247.422104 17.788774,272.129852 
	C10.754914,296.300934 6.088374,320.907715 4.214265,345.924103 
	C3.092193,360.901947 3.611616,376.044342 4.107943,391.089172 
	C4.527003,403.791901 5.641297,416.497742 7.044634,429.135956 
	C9.308319,449.522339 14.314788,469.359253 20.481817,488.881317 
	C28.927090,515.615295 40.330986,541.036316 54.577934,565.216919 
	C69.604118,590.719971 87.324989,614.180725 107.998856,635.287415 
	C118.420113,645.926880 129.726227,655.744446 141.054199,665.440674 
	C159.079391,680.869507 179.000717,693.638733 199.846313,704.857788 
	C222.605164,717.106567 246.498978,726.681763 271.323822,734.029846 
	C303.693237,743.611145 336.793243,748.048706 370.424927,748.931519 
	C377.858368,749.126648 385.322815,748.423401 392.763733,747.978882 
	C402.168121,747.416992 411.580383,746.882751 420.958496,746.007019 
	C443.380066,743.913269 465.176819,738.754639 487.454041,732.006104 
M689.424988,701.886780 
	C687.125671,696.180969 682.848755,700.107666 679.372009,699.113464 
	C679.372009,707.741089 679.372009,715.642090 679.372009,723.647461 
	C681.649292,723.647461 683.551819,723.647461 686.023926,723.647461 
	C686.023926,719.678650 686.023926,716.025208 686.023926,712.371765 
	C688.050476,715.344238 689.022766,718.467102 690.334229,721.440430 
	C690.783997,722.460022 692.207092,723.866089 692.964478,723.742371 
	C694.089294,723.558716 695.393860,722.362183 695.953735,721.257935 
	C697.258362,718.684631 698.164429,715.909241 699.231934,713.215759 
	C699.538818,713.260620 699.845764,713.305420 700.152649,713.350281 
	C700.152649,716.728516 700.152649,720.106812 700.152649,723.678833 
	C702.924500,723.678833 705.157654,723.678833 707.535889,723.678833 
	C707.535889,715.343933 707.535889,707.328857 707.535889,699.372864 
	C698.629150,698.457153 698.635864,698.460022 695.307983,706.252014 
	C694.712036,707.647339 694.034424,709.007751 693.029541,711.169556 
	C691.750671,707.753113 690.783752,705.170044 689.424988,701.886780 
M664.405212,699.000000 
	C660.118103,699.000000 655.831055,699.000000 651.621216,699.000000 
	C651.194702,702.981750 651.194702,702.981750 658.189331,705.038391 
	C658.189331,711.097473 658.189331,717.343750 658.189331,723.624023 
	C661.023926,723.624023 663.258118,723.624023 665.746216,723.624023 
	C665.746216,717.009460 665.746216,710.755798 665.746216,704.379822 
	C667.878052,704.072083 669.775146,703.798218 671.665649,703.525330 
	C672.838379,696.867798 667.910217,699.711121 664.405212,699.000000 
z"/>
<path fill="#D13639" opacity="1.000000" stroke="none" 
	d="
M487.057800,732.084473 
	C465.176819,738.754639 443.380066,743.913269 420.958496,746.007019 
	C411.580383,746.882751 402.168121,747.416992 392.763733,747.978882 
	C385.322815,748.423401 377.858368,749.126648 370.424927,748.931519 
	C336.793243,748.048706 303.693237,743.611145 271.323822,734.029846 
	C246.498978,726.681763 222.605164,717.106567 199.846313,704.857788 
	C179.000717,693.638733 159.079391,680.869507 141.054199,665.440674 
	C129.726227,655.744446 118.420113,645.926880 107.998856,635.287415 
	C87.324989,614.180725 69.604118,590.719971 54.577934,565.216919 
	C40.330986,541.036316 28.927090,515.615295 20.481817,488.881317 
	C14.314788,469.359253 9.308319,449.522339 7.044634,429.135956 
	C5.641297,416.497742 4.527003,403.791901 4.107943,391.089172 
	C3.611616,376.044342 3.092193,360.901947 4.214265,345.924103 
	C6.088374,320.907715 10.754914,296.300934 17.788774,272.129852 
	C24.978806,247.422104 34.479137,223.695847 46.552471,201.024948 
	C57.919823,179.679703 70.939651,159.346176 86.679451,140.930954 
	C96.367332,129.596329 106.190277,118.293358 116.835205,107.878273 
	C137.831879,87.334915 161.160736,69.717354 186.500458,54.744827 
	C210.811493,40.380119 236.387466,28.909868 263.278748,20.421978 
	C282.798035,14.260960 302.640106,9.258566 323.035522,7.030844 
	C335.511932,5.668087 348.056641,4.901514 360.581696,4.024520 
	C367.850433,3.515568 375.155243,2.843458 382.419250,3.061855 
	C415.704803,4.062600 448.488220,8.409579 480.523193,17.943792 
	C504.368683,25.040668 527.368652,34.117603 549.356323,45.732857 
	C571.340271,57.346169 592.258789,70.642487 611.193542,86.800644 
	C622.535400,96.479340 633.834595,106.308548 644.243469,116.958961 
	C664.774658,137.966705 682.398560,161.293930 697.341980,186.651031 
	C711.591187,210.830215 723.018494,236.237869 731.458252,262.978180 
	C737.670593,282.661407 742.740662,302.645966 744.980042,323.209076 
	C746.320862,335.521027 747.101013,347.897308 747.971436,360.256012 
	C748.483276,367.524475 749.147400,374.828918 748.935425,382.093597 
	C747.964172,415.379822 743.619263,448.152679 734.137451,480.209045 
	C726.793091,505.039062 717.259521,528.925232 705.042175,551.716125 
	C693.773254,572.737732 680.933594,592.789124 665.424377,610.957764 
	C655.743774,622.298279 645.914001,633.594971 635.273132,644.014648 
	C614.163818,664.685181 590.705811,682.409424 565.200256,697.432312 
	C540.584717,711.930908 514.658997,723.381409 487.057800,732.084473 
M342.320312,357.410522 
	C342.031921,353.845917 341.743530,350.281311 341.229797,345.939636 
	C341.173462,342.107574 341.103424,338.275635 341.063873,334.443390 
	C340.994080,327.680328 341.098938,327.581268 348.570160,327.096741 
	C356.954865,376.309875 365.345520,425.558105 373.733917,474.793030 
	C391.626709,474.793030 409.067291,474.793030 426.807526,474.793030 
	C426.874481,473.633759 426.919464,472.675964 426.986572,471.719788 
	C428.746490,446.637085 430.482819,421.552734 432.277130,396.472534 
	C434.463470,365.912170 436.740631,335.358276 438.882172,304.794830 
	C439.386993,297.590240 439.209656,297.577820 446.700592,296.364136 
	C451.051636,355.791748 455.401611,415.204590 459.757568,474.699402 
	C483.348328,474.699402 506.587769,474.699402 529.934692,474.699402 
	C538.141235,392.786987 546.317444,311.177612 554.518372,229.321365 
	C552.985962,228.823853 551.780457,228.343643 550.532043,228.040024 
	C507.790649,217.645004 465.032440,207.318390 422.320709,196.802887 
	C418.226959,195.795029 414.837311,195.946060 410.951416,197.788727 
	C344.350220,229.370407 277.676453,260.799042 211.025192,292.275177 
	C200.710388,297.146362 190.427933,302.085968 180.105667,307.005768 
	C192.312149,363.189392 204.426926,418.950897 216.548584,474.744080 
	C232.824677,474.744080 248.743271,474.744080 264.794647,474.744080 
	C264.043274,463.524078 263.331451,452.582520 262.573914,441.644073 
	C260.710083,414.732941 258.772919,387.826752 256.985748,360.910553 
	C256.540741,354.208160 256.750824,354.194214 263.852264,353.095490 
	C264.212524,354.317474 264.643127,355.558716 264.944092,356.830688 
	C273.964386,394.954071 283.025665,433.068024 291.883209,471.229248 
	C292.623077,474.416748 293.897919,475.150146 296.866425,475.076141 
	C304.193848,474.893463 311.528900,475.016205 318.860870,475.016205 
	C326.792938,475.016174 334.725037,475.016205 342.942322,475.016205 
	C342.942322,472.608246 342.967163,470.801331 342.938446,468.995270 
	C342.657532,451.337463 342.277740,433.680664 342.104553,416.021820 
	C341.915161,396.708649 341.914490,377.393616 342.320312,357.410522 
M465.172394,504.327759 
	C429.835083,502.558899 394.497772,500.790039 358.452698,498.985779 
	C364.210449,513.910950 369.611908,528.142700 375.297577,542.259949 
	C375.810547,543.533691 378.053650,544.482239 379.667480,544.886658 
	C419.741058,554.930969 459.835632,564.891663 499.933533,574.838562 
	C506.425629,576.449097 512.951294,577.924255 519.661743,579.509338 
	C522.102417,555.138611 524.466431,531.533264 526.861389,507.619537 
	C506.315643,506.531433 486.213318,505.466797 465.172394,504.327759 
z"/>
<path fill="#D13639" opacity="1.000000" stroke="none" 
	d="
M689.620911,702.236877 
	C690.783752,705.170044 691.750671,707.753113 693.029541,711.169556 
	C694.034424,709.007751 694.712036,707.647339 695.307983,706.252014 
	C698.635864,698.460022 698.629150,698.457153 707.535889,699.372864 
	C707.535889,707.328857 707.535889,715.343933 707.535889,723.678833 
	C705.157654,723.678833 702.924500,723.678833 700.152649,723.678833 
	C700.152649,720.106812 700.152649,716.728516 700.152649,713.350281 
	C699.845764,713.305420 699.538818,713.260620 699.231934,713.215759 
	C698.164429,715.909241 697.258362,718.684631 695.953735,721.257935 
	C695.393860,722.362183 694.089294,723.558716 692.964478,723.742371 
	C692.207092,723.866089 690.783997,722.460022 690.334229,721.440430 
	C689.022766,718.467102 688.050476,715.344238 686.023926,712.371765 
	C686.023926,716.025208 686.023926,719.678650 686.023926,723.647461 
	C683.551819,723.647461 681.649292,723.647461 679.372009,723.647461 
	C679.372009,715.642090 679.372009,707.741089 679.372009,699.113464 
	C682.848755,700.107666 687.125671,696.180969 689.620911,702.236877 
z"/>
<path fill="#D13639" opacity="1.000000" stroke="none" 
	d="
M664.884644,699.000000 
	C667.910217,699.711121 672.838379,696.867798 671.665649,703.525330 
	C669.775146,703.798218 667.878052,704.072083 665.746216,704.379822 
	C665.746216,710.755798 665.746216,717.009460 665.746216,723.624023 
	C663.258118,723.624023 661.023926,723.624023 658.189331,723.624023 
	C658.189331,717.343750 658.189331,711.097473 658.189331,705.038391 
	C651.194702,702.981750 651.194702,702.981750 651.621216,699.000000 
	C655.831055,699.000000 660.118103,699.000000 664.884644,699.000000 
z"/>
<path fill="#FFFFFF" opacity="1.000000" stroke="none" 
	d="
M341.831543,358.079407 
	C341.914490,377.393616 341.915161,396.708649 342.104553,416.021820 
	C342.277740,433.680664 342.657532,451.337463 342.938446,468.995270 
	C342.967163,470.801331 342.942322,472.608246 342.942322,475.016205 
	C334.725037,475.016205 326.792938,475.016174 318.860870,475.016205 
	C311.528900,475.016205 304.193848,474.893463 296.866425,475.076141 
	C293.897919,475.150146 292.623077,474.416748 291.883209,471.229248 
	C283.025665,433.068024 273.964386,394.954071 264.944092,356.830688 
	C264.643127,355.558716 264.212524,354.317474 263.852264,353.095490 
	C256.750824,354.194214 256.540741,354.208160 256.985748,360.910553 
	C258.772919,387.826752 260.710083,414.732941 262.573914,441.644073 
	C263.331451,452.582520 264.043274,463.524078 264.794647,474.744080 
	C248.743271,474.744080 232.824677,474.744080 216.548584,474.744080 
	C204.426926,418.950897 192.312149,363.189392 180.105667,307.005768 
	C190.427933,302.085968 200.710388,297.146362 211.025192,292.275177 
	C277.676453,260.799042 344.350220,229.370407 410.951416,197.788727 
	C414.837311,195.946060 418.226959,195.795029 422.320709,196.802887 
	C465.032440,207.318390 507.790649,217.645004 550.532043,228.040024 
	C551.780457,228.343643 552.985962,228.823853 554.518372,229.321365 
	C546.317444,311.177612 538.141235,392.786987 529.934692,474.699402 
	C506.587769,474.699402 483.348328,474.699402 459.757568,474.699402 
	C455.401611,415.204590 451.051636,355.791748 446.700592,296.364136 
	C439.209656,297.577820 439.386993,297.590240 438.882172,304.794830 
	C436.740631,335.358276 434.463470,365.912170 432.277130,396.472534 
	C430.482819,421.552734 428.746490,446.637085 426.986572,471.719788 
	C426.919464,472.675964 426.874481,473.633759 426.807526,474.793030 
	C409.067291,474.793030 391.626709,474.793030 373.733917,474.793030 
	C365.345520,425.558105 356.954865,376.309875 348.570160,327.096741 
	C341.098938,327.581268 340.994080,327.680328 341.063873,334.443390 
	C341.103424,338.275635 341.173462,342.107574 341.271484,346.733704 
	C341.485992,351.044983 341.658783,354.562195 341.831543,358.079407 
z"/>
<path fill="#FFFEFE" opacity="1.000000" stroke="none" 
	d="
M465.641693,504.364990 
	C486.213318,505.466797 506.315643,506.531433 526.861389,507.619537 
	C524.466431,531.533264 522.102417,555.138611 519.661743,579.509338 
	C512.951294,577.924255 506.425629,576.449097 499.933533,574.838562 
	C459.835632,564.891663 419.741058,554.930969 379.667480,544.886658 
	C378.053650,544.482239 375.810547,543.533691 375.297577,542.259949 
	C369.611908,528.142700 364.210449,513.910950 358.452698,498.985779 
	C394.497772,500.790039 429.835083,502.558899 465.641693,504.364990 
z"/>
<path fill="#CD272A" opacity="1.000000" stroke="none" 
	d="
M342.075928,357.744965 
	C341.658783,354.562195 341.485992,351.044983 341.384155,347.122253 
	C341.743530,350.281311 342.031921,353.845917 342.075928,357.744965 
z"/>
</svg>