<svg version="1.1" id="Layer_1" xmlns="http://www.w3.org/2000/svg" xmlns:xlink="http://www.w3.org/1999/xlink" x="0px" y="0px"
	 width="100%" viewBox="0 0 172 176" enable-background="new 0 0 172 176" xml:space="preserve">
<path fill="#030407" opacity="1.000000" stroke="none" 
	d="
M173.000000,75.000000 
	C173.000000,109.333336 173.000000,143.166672 173.000000,177.000000 
	C115.666664,177.000000 58.333332,177.000000 1.000000,177.000000 
	C1.000000,118.333336 1.000000,59.666668 1.000000,1.000000 
	C58.333332,1.000000 115.666664,1.000000 173.000000,1.000000 
	C173.000000,25.500000 173.000000,50.000000 173.000000,75.000000 
M103.990547,144.020737 
	C103.990547,144.020737 104.089966,143.994919 103.715645,143.492798 
	C103.133148,143.307755 102.550652,143.122711 101.999626,143.015472 
	C101.999626,143.015472 102.077477,142.984055 101.754097,142.438492 
	C101.160721,142.268951 100.567345,142.099396 100.010727,141.995514 
	C100.010727,141.995514 100.076340,141.958679 99.729889,141.365433 
	C97.818970,140.546631 95.908058,139.727844 94.010162,138.975739 
	C94.010162,138.975739 94.075371,138.956619 93.657516,138.388046 
	C81.336197,132.746353 68.631287,128.421890 54.518784,127.085243 
	C53.663731,127.083527 52.808681,127.081810 51.150860,126.954254 
	C43.029438,126.403145 34.909409,125.826279 26.781986,125.385956 
	C26.420450,125.366364 25.991577,126.589691 25.882572,127.863106 
	C28.337252,130.901855 30.791931,133.940613 33.544338,137.552780 
	C37.931839,141.197830 42.319340,144.842896 47.209461,148.921768 
	C69.840958,164.389130 102.303207,162.180374 117.156921,151.818680 
	C113.008446,149.404526 109.080429,147.118652 105.025002,144.894333 
	C105.025002,144.894333 105.085701,145.022156 104.906715,144.485397 
	C104.592690,144.297379 104.278664,144.109375 103.990547,144.020737 
M107.030525,119.984093 
	C107.030525,119.984093 107.097290,119.935349 106.775658,119.338364 
	C105.530533,118.918938 104.285400,118.499512 102.478645,117.697525 
	C100.287369,115.812973 98.096092,113.928429 95.653702,111.432281 
	C93.481560,108.639229 91.309418,105.846184 89.118156,102.377487 
	C88.771614,102.206070 88.425072,102.034653 88.672836,101.763962 
	C88.640282,101.565773 88.607719,101.367577 88.244644,100.611206 
	C86.887573,98.058609 85.530502,95.506012 84.086693,92.317276 
	C83.779160,91.787392 83.471626,91.257500 83.266602,90.823792 
	C83.266602,90.823792 83.362289,90.720825 83.191414,89.992393 
	C82.083427,86.658691 80.975441,83.324989 79.871910,79.219612 
	C78.589043,74.798485 77.306183,70.377357 76.010223,65.233864 
	C74.728867,62.826210 73.447517,60.418556 72.195740,57.276398 
	C69.537209,54.156841 66.878677,51.037285 63.898621,47.312134 
	C58.633377,41.671078 52.226887,37.802395 45.284771,34.502880 
	C42.439323,33.150471 40.455105,33.737545 38.824543,35.441441 
	C34.680927,39.771416 30.865883,44.415821 26.976498,48.972603 
	C26.976498,48.972603 26.957521,48.906464 26.440868,49.249855 
	C26.185955,49.806358 25.931042,50.362858 25.179197,51.368114 
	C24.050552,53.552563 22.921906,55.737011 21.244663,58.353474 
	C20.113520,61.555119 18.982376,64.756767 17.285686,68.461418 
	C16.785099,70.780350 16.284512,73.099274 15.657442,76.004120 
	C33.962448,75.412743 51.359161,75.994072 68.635803,80.989975 
	C69.545906,84.322456 70.456009,87.654945 71.489052,91.689636 
	C72.787788,95.120811 74.086525,98.551987 75.556747,102.640709 
	C77.679581,106.471672 79.802422,110.302643 82.084351,114.794975 
	C86.309174,118.915085 90.533989,123.035202 95.205803,127.685509 
	C108.264168,135.898499 122.301659,136.050323 136.924606,133.296921 
	C142.815643,132.187683 144.982773,128.437469 147.290222,122.933510 
	C142.706039,123.656189 138.905685,124.255295 134.595657,124.268616 
	C130.563446,124.190140 126.480240,124.482010 122.512421,123.935745 
	C117.956718,123.308548 113.503242,121.938797 109.007561,120.965958 
	C109.007561,120.965958 109.081902,120.963646 108.806084,120.380676 
	C108.198006,120.226212 107.589928,120.071754 107.030525,119.984093 
M150.151215,60.222309 
	C150.151215,60.222309 149.980957,60.000126 149.923111,59.293617 
	C148.337280,56.529148 146.751450,53.764679 144.971008,50.343105 
	C143.345886,48.390137 141.720764,46.437168 140.063110,43.767906 
	C139.707611,43.485294 139.352127,43.202682 139.118500,43.009666 
	C139.118500,43.009666 139.208374,42.888027 138.901825,42.267731 
	C135.062881,38.775028 131.223953,35.282326 126.949852,31.220165 
	C121.383446,28.504225 115.817047,25.788286 109.921890,22.439863 
	C109.270180,22.296106 108.618477,22.152349 107.588806,21.930426 
	C107.588806,21.930426 107.203537,21.953362 106.816383,21.308249 
	C101.213531,20.253139 95.610680,19.198030 89.167282,18.014469 
	C86.138969,18.299549 83.110649,18.584629 79.646698,18.196037 
	C72.480995,19.484760 65.315300,20.773485 58.149597,22.062208 
	C58.191940,22.637690 58.234280,23.213171 58.276619,23.788652 
	C59.156548,24.072475 60.036476,24.356298 61.660263,24.917316 
	C70.423019,27.990545 79.185776,31.063774 88.389626,34.663193 
	C95.182381,37.982719 101.975143,41.302250 109.294159,44.997662 
	C113.779747,47.558006 118.265327,50.118347 123.227257,53.099411 
	C127.486305,55.728783 131.745346,58.358150 136.258118,61.461113 
	C135.128983,62.279011 134.110031,63.426643 132.848465,63.848152 
	C129.965714,64.811325 126.964256,65.419243 123.318207,66.253021 
	C118.932426,68.681831 118.288727,72.532578 119.247581,77.702423 
	C121.122353,81.152443 122.997131,84.602470 125.084320,88.699318 
	C129.354858,92.214325 133.625397,95.729324 138.370850,99.743523 
	C143.540253,101.642059 148.709671,103.540588 154.482452,105.660713 
	C155.033432,102.070808 155.423508,99.529343 155.942429,96.096100 
	C155.906387,93.394150 155.870346,90.692207 155.953720,87.106163 
	C155.612625,83.736206 155.271530,80.366249 154.998352,76.198486 
	C154.307846,73.464874 153.617340,70.731270 152.966858,67.302032 
	C152.347214,65.854820 151.727570,64.407600 151.054565,62.269264 
	C150.737610,61.678898 150.420670,61.088535 150.151215,60.222309 
z"/>
<path fill="#6C5632" opacity="1.000000" stroke="none" 
	d="
M105.152412,144.832794 
	C109.080429,147.118652 113.008446,149.404526 117.156921,151.818680 
	C102.303207,162.180374 69.840958,164.389130 47.328606,148.455353 
	C49.710247,147.659683 51.971142,147.058594 54.235489,147.045319 
	C68.977478,146.958740 83.721367,147.090454 98.461464,146.902420 
	C100.700218,146.873856 102.922508,145.554886 105.152412,144.832794 
z"/>
<path fill="#96804F" opacity="1.000000" stroke="none" 
	d="
M68.431778,80.203697 
	C51.359161,75.994072 33.962448,75.412743 15.657442,76.004120 
	C16.284512,73.099274 16.785099,70.780350 17.973038,68.082947 
	C21.119942,67.470459 23.578632,67.045021 26.039186,67.033974 
	C40.441639,66.969292 54.844818,67.046631 69.246971,66.954399 
	C71.507790,66.939926 73.764641,66.304527 76.023323,65.956230 
	C77.306183,70.377357 78.589043,74.798485 79.409805,79.608475 
	C75.442390,80.066132 71.937088,80.134911 68.431778,80.203697 
z"/>
<path fill="#B0985F" opacity="1.000000" stroke="none" 
	d="
M87.948532,34.137001 
	C79.185776,31.063774 70.423019,27.990545 61.487221,24.505535 
	C63.110085,23.350033 64.849228,22.384995 66.713249,21.906826 
	C71.138130,20.771734 75.622192,19.867340 80.082336,18.869713 
	C83.110649,18.584629 86.138969,18.299549 89.797905,18.374319 
	C96.020195,19.807234 101.611870,20.880299 107.203537,21.953362 
	C107.203537,21.953362 107.588806,21.930426 108.026703,22.169895 
	C109.059944,22.630358 109.655296,22.851353 110.250641,23.072346 
	C115.817047,25.788286 121.383446,28.504225 126.757721,31.673525 
	C116.286369,32.418129 106.004845,32.649231 95.729523,33.042435 
	C93.125710,33.142078 90.541664,33.758205 87.948532,34.137001 
z"/>
<path fill="#715B35" opacity="1.000000" stroke="none" 
	d="
M105.088707,144.863556 
	C102.922508,145.554886 100.700218,146.873856 98.461464,146.902420 
	C83.721367,147.090454 68.977478,146.958740 54.235489,147.045319 
	C51.971142,147.058594 49.710247,147.659683 47.077297,148.238434 
	C42.319340,144.842896 37.931839,141.197830 33.847115,137.268463 
	C48.184528,136.989258 62.219467,137.041977 76.253479,136.951065 
	C78.504295,136.936508 80.750954,136.279907 83.363594,136.015381 
	C87.176895,137.059296 90.626129,138.007950 94.075371,138.956619 
	C94.075371,138.956619 94.010162,138.975739 94.183121,139.240295 
	C96.262833,140.322784 98.169586,141.140732 100.076340,141.958679 
	C100.076340,141.958679 100.010727,141.995514 100.225021,142.148468 
	C100.985374,142.528961 101.531425,142.756516 102.077477,142.984055 
	C102.077477,142.984055 101.999626,143.015472 102.223755,143.154190 
	C102.995247,143.526901 103.542610,143.760910 104.089966,143.994919 
	C104.089966,143.994919 103.990547,144.020737 104.161270,144.157288 
	C104.583237,144.536606 104.834465,144.779388 105.085701,145.022156 
	C105.085701,145.022156 105.025002,144.894333 105.088707,144.863556 
z"/>
<path fill="#9E8754" opacity="1.000000" stroke="none" 
	d="
M76.016769,65.595047 
	C73.764641,66.304527 71.507790,66.939926 69.246971,66.954399 
	C54.844818,67.046631 40.441639,66.969292 26.039186,67.033974 
	C23.578632,67.045021 21.119942,67.470459 18.255810,67.831436 
	C18.982376,64.756767 20.113520,61.555119 22.000462,58.153603 
	C39.226227,57.972790 55.696194,57.991844 72.166161,58.010902 
	C73.447517,60.418556 74.728867,62.826210 76.016769,65.595047 
z"/>
<path fill="#A38C57" opacity="1.000000" stroke="none" 
	d="
M72.180954,57.643650 
	C55.696194,57.991844 39.226227,57.972790 22.274761,57.937595 
	C22.921906,55.737011 24.050552,53.552563 25.630438,50.921715 
	C26.373625,49.952362 26.665573,49.429413 26.957520,48.906464 
	C26.957521,48.906464 26.976498,48.972603 27.421282,48.969009 
	C39.984093,48.616188 52.102119,48.266956 64.220146,47.917725 
	C66.878677,51.037285 69.537209,54.156841 72.180954,57.643650 
z"/>
<path fill="#765F38" opacity="1.000000" stroke="none" 
	d="
M82.999535,135.920120 
	C80.750954,136.279907 78.504295,136.936508 76.253479,136.951065 
	C62.219467,137.041977 48.184528,136.989258 33.698250,136.981750 
	C30.791931,133.940613 28.337252,130.901855 26.234558,127.525528 
	C31.668375,127.163872 36.750198,127.138283 41.832039,127.116226 
	C45.205887,127.101578 48.579765,127.091972 51.953629,127.080101 
	C52.808681,127.081810 53.663731,127.083527 54.976704,127.406189 
	C56.968529,128.255295 58.483727,128.847733 60.039509,129.300735 
	C67.686935,131.527527 75.345139,133.717285 82.999535,135.920120 
z"/>
<path fill="#AB935C" opacity="1.000000" stroke="none" 
	d="
M88.169083,34.400097 
	C90.541664,33.758205 93.125710,33.142078 95.729523,33.042435 
	C106.004845,32.649231 116.286369,32.418129 126.975304,31.958254 
	C131.223953,35.282326 135.062881,38.775028 138.572998,42.601379 
	C130.613266,42.957695 122.979095,42.863243 115.353516,43.076385 
	C113.145638,43.138100 110.962418,44.082199 108.767899,44.621780 
	C101.975143,41.302250 95.182381,37.982719 88.169083,34.400097 
z"/>
<path fill="#766039" opacity="1.000000" stroke="none" 
	d="
M135.105331,124.854408 
	C138.905685,124.255295 142.706039,123.656189 147.290222,122.933510 
	C144.982773,128.437469 142.815643,132.187683 136.924606,133.296921 
	C122.301659,136.050323 108.264168,135.898499 95.385063,127.257614 
	C98.003342,126.553375 100.438087,126.229164 102.882309,126.011177 
	C107.280739,125.618889 111.684853,125.290276 116.508774,124.964325 
	C122.989075,124.947189 129.047211,124.900803 135.105331,124.854408 
z"/>
<path fill="#917B4B" opacity="1.000000" stroke="none" 
	d="
M154.930450,76.996292 
	C155.271530,80.366249 155.612625,83.736206 155.436035,87.550125 
	C144.902878,88.013557 134.887390,88.033028 124.871902,88.052490 
	C122.997131,84.602470 121.122353,81.152443 119.696442,77.346321 
	C131.740341,76.992249 143.335388,76.994270 154.930450,76.996292 
z"/>
<path fill="#A9915B" opacity="1.000000" stroke="none" 
	d="
M64.059387,47.614929 
	C52.102119,48.266956 39.984093,48.616188 27.392685,48.949883 
	C30.865883,44.415821 34.680927,39.771416 38.824543,35.441441 
	C40.455105,33.737545 42.439323,33.150471 45.284771,34.502880 
	C52.226887,37.802395 58.633377,41.671078 64.059387,47.614929 
z"/>
<path fill="#98814F" opacity="1.000000" stroke="none" 
	d="
M154.964386,76.597389 
	C143.335388,76.994270 131.740341,76.992249 119.692001,76.989563 
	C118.288727,72.532578 118.932426,68.681831 123.858627,66.489868 
	C126.370354,67.331764 128.338959,68.441658 130.313477,68.452263 
	C137.850220,68.492722 145.388885,68.179062 152.926834,67.997658 
	C153.617340,70.731270 154.307846,73.464874 154.964386,76.597389 
z"/>
<path fill="#8C7548" opacity="1.000000" stroke="none" 
	d="
M124.978111,88.375900 
	C134.887390,88.033028 144.902878,88.013557 155.376343,87.992172 
	C155.870346,90.692207 155.906387,93.394150 155.473221,96.596039 
	C149.301315,97.812096 143.598633,98.528214 137.895935,99.244331 
	C133.625397,95.729324 129.354858,92.214325 124.978111,88.375900 
z"/>
<path fill="#7C663D" opacity="1.000000" stroke="none" 
	d="
M116.086594,124.935059 
	C111.684853,125.290276 107.280739,125.618889 102.882309,126.011177 
	C100.438087,126.229164 98.003342,126.553375 95.161560,126.992523 
	C90.533989,123.035202 86.309174,118.915085 82.368668,114.266647 
	C87.070267,113.173515 91.487541,112.608704 95.904816,112.043884 
	C98.096092,113.928429 100.287369,115.812973 102.964622,118.151093 
	C104.666161,119.048225 105.881729,119.491791 107.097290,119.935349 
	C107.097290,119.935349 107.030525,119.984093 107.233704,120.143356 
	C107.985229,120.522964 108.533562,120.743301 109.081902,120.963646 
	C109.081902,120.963646 109.007561,120.965958 109.193481,121.211769 
	C111.615135,122.616737 113.850868,123.775902 116.086594,124.935059 
z"/>
<path fill="#A78F5A" opacity="1.000000" stroke="none" 
	d="
M109.031029,44.809723 
	C110.962418,44.082199 113.145638,43.138100 115.353516,43.076385 
	C122.979095,42.863243 130.613266,42.957695 138.726273,42.911526 
	C139.208374,42.888027 139.118500,43.009666 139.269073,43.205002 
	C139.644958,43.761627 139.870300,44.122913 140.095642,44.484203 
	C141.720764,46.437168 143.345886,48.390137 144.589111,50.675354 
	C140.728806,51.005287 137.232941,50.784161 133.776779,51.060207 
	C130.081970,51.355320 126.424614,52.119343 122.750916,52.678688 
	C118.265327,50.118347 113.779747,47.558006 109.031029,44.809723 
z"/>
<path fill="#A28A56" opacity="1.000000" stroke="none" 
	d="
M122.989090,52.889050 
	C126.424614,52.119343 130.081970,51.355320 133.776779,51.060207 
	C137.232941,50.784161 140.728806,51.005287 144.686417,51.003906 
	C146.751450,53.764679 148.337280,56.529148 149.490799,59.648136 
	C144.707123,60.330944 140.355759,60.659233 136.004395,60.987518 
	C131.745346,58.358150 127.486305,55.728783 122.989090,52.889050 
z"/>
<path fill="#9E8754" opacity="1.000000" stroke="none" 
	d="
M136.131256,61.224316 
	C140.355759,60.659233 144.707123,60.330944 149.519714,60.001389 
	C149.980957,60.000126 150.151215,60.222309 150.206635,60.688148 
	C150.543991,61.756123 150.825958,62.358257 151.107910,62.960392 
	C151.727570,64.407600 152.347214,65.854820 152.946838,67.649841 
	C145.388885,68.179062 137.850220,68.492722 130.313477,68.452263 
	C128.338959,68.441658 126.370354,67.331764 124.205025,66.449097 
	C126.964256,65.419243 129.965714,64.811325 132.848465,63.848152 
	C134.110031,63.426643 135.128983,62.279011 136.131256,61.224316 
z"/>
<path fill="#836D42" opacity="1.000000" stroke="none" 
	d="
M95.779259,111.738083 
	C91.487541,112.608704 87.070267,113.173515 82.289124,113.935966 
	C79.802422,110.302643 77.679581,106.471672 75.912750,102.312714 
	C80.370888,101.712944 84.473030,101.441162 88.575165,101.169380 
	C88.607719,101.367577 88.640282,101.565773 88.540733,102.022064 
	C88.651512,102.537827 88.894394,102.795479 89.137276,103.053131 
	C91.309418,105.846184 93.481560,108.639229 95.779259,111.738083 
z"/>
<path fill="#897446" opacity="1.000000" stroke="none" 
	d="
M88.409904,100.890289 
	C84.473030,101.441162 80.370888,101.712944 75.827003,101.983940 
	C74.086525,98.551987 72.787788,95.120811 71.868240,91.338737 
	C75.952385,90.898834 79.657333,90.809830 83.362289,90.720825 
	C83.362289,90.720825 83.266602,90.823792 83.288040,91.078705 
	C83.597466,91.873543 83.885452,92.413483 84.173431,92.953415 
	C85.530502,95.506012 86.887573,98.058609 88.409904,100.890289 
z"/>
<path fill="#8F794A" opacity="1.000000" stroke="none" 
	d="
M83.276855,90.356613 
	C79.657333,90.809830 75.952385,90.898834 71.806778,90.987633 
	C70.456009,87.654945 69.545906,84.322456 68.533791,80.596832 
	C71.937088,80.134911 75.442390,80.066132 79.407578,79.994316 
	C80.975441,83.324989 82.083427,86.658691 83.276855,90.356613 
z"/>
<path fill="#856F44" opacity="1.000000" stroke="none" 
	d="
M138.133392,99.493927 
	C143.598633,98.528214 149.301315,97.812096 155.408783,97.041924 
	C155.423508,99.529343 155.033432,102.070808 154.482452,105.660713 
	C148.709671,103.540588 143.540253,101.642059 138.133392,99.493927 
z"/>
<path fill="#917644" opacity="1.000000" stroke="none" 
	d="
M83.363594,136.015381 
	C75.345139,133.717285 67.686935,131.527527 60.039509,129.300735 
	C58.483727,128.847733 56.968529,128.255295 55.237194,127.434532 
	C68.631287,128.421890 81.336197,132.746353 93.866440,138.672333 
	C90.626129,138.007950 87.176895,137.059296 83.363594,136.015381 
z"/>
<path fill="#917644" opacity="1.000000" stroke="none" 
	d="
M51.552246,127.017181 
	C48.579765,127.091972 45.205887,127.101578 41.832039,127.116226 
	C36.750198,127.138283 31.668375,127.163872 26.090307,127.211014 
	C25.991577,126.589691 26.420450,125.366364 26.781986,125.385956 
	C34.909409,125.826279 43.029438,126.403145 51.552246,127.017181 
z"/>
<path fill="#997D49" opacity="1.000000" stroke="none" 
	d="
M116.508774,124.964317 
	C113.850868,123.775902 111.615135,122.616737 109.192383,121.174591 
	C113.503242,121.938797 117.956718,123.308548 122.512421,123.935745 
	C126.480240,124.482010 130.563446,124.190140 134.850494,124.561508 
	C129.047211,124.900803 122.989075,124.947189 116.508774,124.964317 
z"/>
<path fill="#BEB079" opacity="1.000000" stroke="none" 
	d="
M79.864517,18.532875 
	C75.622192,19.867340 71.138130,20.771734 66.713249,21.906826 
	C64.849228,22.384995 63.110085,23.350033 61.115288,24.366936 
	C60.036476,24.356298 59.156548,24.072475 58.276619,23.788652 
	C58.234280,23.213171 58.191940,22.637690 58.149597,22.062208 
	C65.315300,20.773485 72.480995,19.484760 79.864517,18.532875 
z"/>
<path fill="#BEB079" opacity="1.000000" stroke="none" 
	d="
M107.009964,21.630806 
	C101.611870,20.880299 96.020195,19.807234 90.218178,18.438545 
	C95.610680,19.198030 101.213531,20.253139 107.009964,21.630806 
z"/>
<path fill="#917644" opacity="1.000000" stroke="none" 
	d="
M99.903114,141.662048 
	C98.169586,141.140732 96.262833,140.322784 94.176605,139.206940 
	C95.908058,139.727844 97.818970,140.546631 99.903114,141.662048 
z"/>
<path fill="#997D49" opacity="1.000000" stroke="none" 
	d="
M106.936478,119.636856 
	C105.881729,119.491791 104.666161,119.048225 103.245438,118.342377 
	C104.285400,118.499512 105.530533,118.918938 106.936478,119.636856 
z"/>
<path fill="#997D49" opacity="1.000000" stroke="none" 
	d="
M108.943993,120.672165 
	C108.533562,120.743301 107.985229,120.522964 107.209366,120.109955 
	C107.589928,120.071754 108.198006,120.226212 108.943993,120.672165 
z"/>
<path fill="#8F794A" opacity="1.000000" stroke="none" 
	d="
M84.130066,92.635345 
	C83.885452,92.413483 83.597466,91.873543 83.236786,91.030609 
	C83.471626,91.257500 83.779160,91.787392 84.130066,92.635345 
z"/>
<path fill="#A28A56" opacity="1.000000" stroke="none" 
	d="
M151.081238,62.614830 
	C150.825958,62.358257 150.543991,61.756123 150.182877,60.826080 
	C150.420670,61.088535 150.737610,61.678898 151.081238,62.614830 
z"/>
<path fill="#A9915B" opacity="1.000000" stroke="none" 
	d="
M26.699194,49.078159 
	C26.665573,49.429413 26.373625,49.952362 25.878902,50.697334 
	C25.931042,50.362858 26.185955,49.806358 26.699194,49.078159 
z"/>
<path fill="#BEB079" opacity="1.000000" stroke="none" 
	d="
M110.086266,22.756104 
	C109.655296,22.851353 109.059944,22.630358 108.215683,22.208979 
	C108.618477,22.152349 109.270180,22.296106 110.086266,22.756104 
z"/>
<path fill="#917644" opacity="1.000000" stroke="none" 
	d="
M101.915787,142.711273 
	C101.531425,142.756516 100.985374,142.528961 100.206650,142.115631 
	C100.567345,142.099396 101.160721,142.268951 101.915787,142.711273 
z"/>
<path fill="#917644" opacity="1.000000" stroke="none" 
	d="
M103.902802,143.743866 
	C103.542610,143.760910 102.995247,143.526901 102.208023,143.115280 
	C102.550652,143.122711 103.133148,143.307755 103.902802,143.743866 
z"/>
<path fill="#897446" opacity="1.000000" stroke="none" 
	d="
M89.127716,102.715309 
	C88.894394,102.795479 88.651512,102.537827 88.243576,102.071709 
	C88.425072,102.034653 88.771614,102.206070 89.127716,102.715309 
z"/>
<path fill="#AB935C" opacity="1.000000" stroke="none" 
	d="
M140.079376,44.126053 
	C139.870300,44.122913 139.644958,43.761627 139.208130,43.160206 
	C139.352127,43.202682 139.707611,43.485294 140.079376,44.126053 
z"/>
<path fill="#917644" opacity="1.000000" stroke="none" 
	d="
M104.996208,144.753784 
	C104.834465,144.779388 104.583237,144.536606 104.148315,144.107605 
	C104.278664,144.109375 104.592690,144.297379 104.996208,144.753784 
z"/>
</svg>