<svg version="1.1" id="Layer_1" xmlns="http://www.w3.org/2000/svg" xmlns:xlink="http://www.w3.org/1999/xlink" x="0px" y="0px"
	 width="100%" viewBox="0 0 84 165" enable-background="new 0 0 84 165" xml:space="preserve">
<path fill="#B89B5B" opacity="1.000000" stroke="none" 
	d="
M1.331078,42.322594 
	C1.000000,35.978848 1.000000,29.957697 1.000000,23.468273 
	C1.932445,22.068020 2.834194,21.018610 4.272401,20.980253 
	C14.762193,20.700497 25.275341,19.539280 36.151966,21.999039 
	C38.590305,24.215332 38.314972,26.804045 38.322933,29.208633 
	C38.340816,34.608459 38.927624,40.043457 37.399155,45.819321 
	C32.457241,49.256260 27.566031,48.883591 22.235741,46.956322 
	C19.436497,46.009949 18.993454,43.879387 18.533627,41.748096 
	C17.315149,41.982796 16.782656,43.288750 15.198568,43.473488 
	C10.355375,44.286175 5.866421,45.528286 1.331078,42.322594 
z"/>
<path fill="#806132" opacity="1.000000" stroke="none" 
	d="
M47.312664,165.728058 
	C44.629444,166.000000 42.258884,166.000000 39.444164,166.000000 
	C33.518032,162.109833 33.356953,161.537537 36.107590,155.178406 
	C36.758984,153.672485 37.541061,152.210083 36.771812,150.107269 
	C36.456512,145.707306 36.798374,141.683914 36.354736,137.289673 
	C35.355625,132.509933 33.828037,128.549011 30.129169,125.505524 
	C26.957674,122.895950 23.829021,120.088837 21.567810,116.584549 
	C20.433487,114.826637 19.120802,112.953453 20.074913,110.265244 
	C20.451965,109.777855 20.637629,109.613724 21.164196,109.309555 
	C24.227333,108.722359 25.062860,111.046783 26.429708,112.554932 
	C30.329456,116.857788 30.658714,116.882790 35.040192,112.766602 
	C36.892666,112.475037 38.333111,111.687920 40.235683,112.346817 
	C42.990116,113.973160 42.874367,116.138573 42.524193,118.588036 
	C42.266167,120.392967 40.605927,123.435829 42.715305,123.862366 
	C45.317093,124.388481 43.765053,121.643784 43.685860,120.246696 
	C43.658432,119.762878 43.303139,119.298622 43.290508,118.823975 
	C43.222668,116.275055 41.911697,113.660309 43.944580,110.981979 
	C45.658363,110.126297 47.095036,109.692566 48.991753,110.391266 
	C49.976395,110.673798 50.853928,110.782631 51.064148,111.341728 
	C53.185959,116.984848 56.752159,115.902077 61.005844,113.524940 
	C61.860588,113.631683 62.328915,113.782326 63.074341,114.231133 
	C65.080284,117.053215 62.876537,118.358360 61.598492,120.004944 
	C58.259960,124.306137 52.667660,126.499771 50.510239,131.925201 
	C50.198578,132.708954 49.915615,133.456863 49.811996,134.673096 
	C49.254341,139.044601 49.384388,143.048233 49.376167,147.453857 
	C48.543629,150.592056 49.348213,153.136414 50.375633,155.599609 
	C52.649036,161.050003 52.343815,162.267990 47.312664,165.728058 
z"/>
<path fill="#8C6B34" opacity="1.000000" stroke="none" 
	d="
M37.713539,135.705460 
	C39.934181,140.235443 38.589809,144.708160 38.947571,149.519638 
	C37.399246,153.219788 34.801144,154.375031 31.271915,154.373184 
	C23.277666,154.369003 15.282475,154.491928 7.289331,154.314484 
	C5.323272,154.270859 3.236379,154.358017 1.353665,152.343658 
	C1.000000,147.643097 1.000000,143.286194 1.000000,138.464645 
	C4.086626,134.340652 8.550612,136.262558 12.692142,135.170258 
	C16.480572,136.712845 19.716665,135.855392 22.911129,134.526138 
	C24.547070,133.845398 26.081465,132.790283 28.379963,133.452072 
	C31.514374,134.815796 35.008255,132.523621 37.713539,135.705460 
z"/>
<path fill="#886731" opacity="1.000000" stroke="none" 
	d="
M47.468658,166.000000 
	C48.897198,162.483093 50.456238,159.190369 47.386837,155.209869 
	C46.321217,153.827942 47.097191,151.025925 47.039009,148.427887 
	C47.786835,147.276321 48.671909,146.673401 49.685188,146.837418 
	C58.379044,148.244690 67.146217,147.234070 75.866585,147.690781 
	C77.699379,147.786774 79.466400,148.116379 81.507324,149.271942 
	C83.537476,154.823456 83.850983,160.058304 81.352890,165.630936 
	C69.979103,166.000000 58.958210,166.000000 47.468658,166.000000 
z"/>
<path fill="#886731" opacity="1.000000" stroke="none" 
	d="
M1.000000,152.474121 
	C10.719614,151.999588 20.439825,151.939102 30.158476,152.035690 
	C33.040230,152.064331 35.712975,151.620712 38.577435,150.088715 
	C39.085499,152.826004 39.039024,155.627808 37.284161,158.089142 
	C35.167950,161.057312 38.189098,162.941544 38.914970,165.664215 
	C27.269665,166.000000 15.538871,165.946976 3.809422,166.048920 
	C1.700325,166.067261 0.675399,165.951172 0.920317,163.349365 
	C1.244052,159.910309 1.000000,156.417801 1.000000,152.474121 
z"/>
<path fill="#BEA261" opacity="1.000000" stroke="none" 
	d="
M36.405983,22.723112 
	C24.667776,23.014671 13.302544,23.008799 1.468656,23.001463 
	C1.000000,19.307091 1.000000,15.614182 1.000000,11.460636 
	C2.123947,9.655399 3.527770,8.838673 5.309089,8.815354 
	C15.618585,8.680398 25.938627,7.910379 36.654751,9.556646 
	C40.222942,12.917011 39.376598,16.305498 37.651711,20.212482 
	C37.407082,21.316555 37.158451,21.899103 36.405983,22.723112 
z"/>
<path fill="#C4A865" opacity="1.000000" stroke="none" 
	d="
M43.729477,1.358936 
	C56.020893,1.000000 68.041786,1.000000 80.531342,1.000000 
	C84.363358,4.504940 82.910583,8.622553 82.182411,13.019453 
	C81.265495,14.003821 80.516098,14.497664 79.721519,14.586003 
	C69.866264,15.681669 60.009426,16.375963 49.775673,13.978340 
	C44.944912,10.949332 42.788948,7.024763 43.729477,1.358936 
z"/>
<path fill="#C4A865" opacity="1.000000" stroke="none" 
	d="
M37.452652,11.121826 
	C25.342691,11.019506 13.640003,11.010242 1.468657,11.000489 
	C1.000000,7.695532 -0.275155,3.207938 1.372454,1.432171 
	C2.902194,-0.216558 7.551180,1.007523 10.826810,1.003977 
	C20.905424,0.993064 30.984056,1.000000 41.531342,1.000000 
	C43.447865,5.473400 42.441147,7.957289 37.452652,11.121826 
z"/>
<path fill="#FFFFFF" opacity="1.000000" stroke="none" 
	d="
M80.518814,13.376684 
	C80.887779,9.312786 80.941628,5.617361 80.997742,1.460968 
	C84.368698,0.267587 85.122314,1.515886 85.101753,4.964724 
	C84.924713,34.663189 85.000000,64.363159 85.000000,94.531342 
	C84.136581,95.827271 83.360527,96.799110 81.639145,96.753029 
	C81.056580,96.576851 80.838943,96.458275 80.379211,96.055298 
	C79.919563,95.319344 79.787437,94.844925 79.804947,93.978645 
	C81.157372,90.229004 78.509583,87.037537 79.350662,83.286537 
	C79.037369,80.698608 79.713776,78.517708 79.449760,75.881027 
	C79.002609,70.593010 78.339432,65.751450 78.878685,60.399498 
	C78.538918,54.618263 78.427460,49.300808 78.868408,43.511700 
	C78.582962,38.311291 78.442482,33.581810 78.867020,28.373623 
	C79.027382,23.151546 77.367561,18.236282 80.518814,13.376684 
z"/>
<path fill="#917239" opacity="1.000000" stroke="none" 
	d="
M14.348319,136.868988 
	C10.080132,138.713455 5.945529,137.735687 1.456942,137.999557 
	C1.000000,128.312439 1.000000,118.624878 1.000000,108.468658 
	C5.841089,107.422028 5.140927,112.357941 7.558690,114.710831 
	C11.022529,120.381088 16.119471,122.882210 21.973930,124.271568 
	C24.547150,124.882225 27.556736,125.312729 27.645880,128.805939 
	C27.732698,132.208145 25.065262,133.722549 22.368273,134.672714 
	C19.888380,135.546387 17.349737,136.389389 14.348319,136.868988 
z"/>
<path fill="#B29455" opacity="1.000000" stroke="none" 
	d="
M1.000000,42.468624 
	C5.685911,41.998867 10.371821,41.997734 15.523129,41.995029 
	C17.519791,43.274502 17.287680,45.009045 16.813658,46.533527 
	C15.264110,51.516975 15.396112,56.527046 16.197916,61.987198 
	C16.241419,63.999557 17.196667,65.523735 16.512981,67.561264 
	C16.102747,68.403671 15.767424,68.807060 15.019474,69.330444 
	C12.134937,70.502563 11.152559,67.214104 8.525240,67.370285 
	C5.852033,67.140961 3.350660,67.667267 1.284147,65.277565 
	C1.000000,57.645748 1.000000,50.291500 1.000000,42.468624 
z"/>
<path fill="#B29455" opacity="1.000000" stroke="none" 
	d="
M37.036980,11.457661 
	C38.655258,7.919452 40.265133,4.810133 41.937504,1.350407 
	C42.444447,1.000000 42.888889,1.000000 43.666668,1.000000 
	C45.560658,4.457208 47.121315,7.914417 48.839043,11.686646 
	C51.423328,14.693884 51.792252,17.921469 51.239601,21.734940 
	C47.214531,23.969870 46.228012,27.244953 46.390923,31.179659 
	C46.507710,34.000195 46.332958,36.821995 46.018276,40.050343 
	C45.995243,42.178787 46.347469,43.938591 45.037766,45.830208 
	C41.282864,47.608349 40.199612,45.536518 39.867805,42.706772 
	C39.364544,38.414799 39.643562,34.090618 39.596756,29.780661 
	C39.563427,26.712519 39.196175,23.804991 36.394379,21.341576 
	C36.412758,17.988754 36.720665,14.937652 37.036980,11.457661 
z"/>
<path fill="#8C6B34" opacity="1.000000" stroke="none" 
	d="
M80.998741,95.643158 
	C82.118919,95.655052 83.208160,95.346954 84.648697,95.019432 
	C85.000000,97.700012 85.000000,100.400032 85.000000,103.550018 
	C81.520256,106.792892 77.465446,104.990715 73.689690,105.351357 
	C70.945992,105.613419 68.155365,105.398972 65.005249,104.614700 
	C62.994362,104.330048 61.741558,103.650383 60.811707,101.799194 
	C59.740818,99.034195 56.378487,98.151535 56.863873,94.581055 
	C57.913620,91.347115 60.200863,90.714043 62.764591,90.841652 
	C65.522522,90.978920 68.246605,90.583450 71.412735,90.583160 
	C72.116440,90.587700 72.397339,90.588249 73.097244,90.620605 
	C75.918251,91.721169 79.380402,89.696106 81.013931,93.613464 
	C81.042351,94.459595 81.005074,94.891388 80.998741,95.643158 
z"/>
<path fill="#FFFFFF" opacity="1.000000" stroke="none" 
	d="
M81.500000,166.000000 
	C80.990250,160.976257 80.980499,155.952530 80.901352,150.466797 
	C77.225121,145.824448 78.975708,140.881165 78.875397,135.734634 
	C78.438797,129.473541 78.446892,123.696823 79.523155,117.516525 
	C80.068474,114.251312 80.713913,111.474449 83.033882,108.995506 
	C83.678093,108.719177 83.957970,108.666626 84.618927,108.807037 
	C85.000000,127.000000 84.942307,145.000397 85.066490,162.999542 
	C85.083755,165.501678 84.498802,166.498810 81.500000,166.000000 
z"/>
<path fill="#8C6B34" opacity="1.000000" stroke="none" 
	d="
M22.337368,109.778847 
	C22.000441,109.997635 21.513666,110.005623 21.270279,110.009674 
	C20.228157,110.164482 19.430063,110.249435 18.283419,109.812195 
	C16.135141,107.138977 13.673766,106.410828 10.656172,106.322319 
	C7.624755,106.233406 4.420601,107.429596 1.272805,105.250824 
	C1.000000,102.299988 1.000000,99.599968 1.000000,96.449982 
	C2.148921,94.609474 3.515104,94.624153 5.442451,95.273712 
	C6.326205,94.827362 6.743829,94.466331 7.432055,93.853233 
	C13.775681,93.745262 19.906929,91.110565 26.190722,94.458961 
	C27.563831,96.547302 27.394112,98.234322 26.020615,100.234268 
	C23.825336,103.259148 25.318405,107.131355 22.337368,109.778847 
z"/>
<path fill="#886731" opacity="1.000000" stroke="none" 
	d="
M84.211243,108.926208 
	C84.310089,111.664642 82.351501,113.445656 81.395622,115.862442 
	C80.856415,116.176819 80.623825,116.318283 79.987732,116.521133 
	C75.343712,115.722397 70.890007,117.273865 66.379898,115.271690 
	C64.517693,114.033516 64.666489,112.477119 64.740021,110.575096 
	C64.503510,109.278008 64.057747,108.454552 63.299683,107.376205 
	C62.544071,105.817200 62.610016,104.618584 63.712227,103.243637 
	C70.728615,103.351982 77.513138,102.189026 84.591652,103.912262 
	C85.000000,105.066673 85.000000,106.133339 85.000000,107.600006 
	C84.777718,108.238068 84.573875,108.490997 84.211243,108.926208 
z"/>
<path fill="#886731" opacity="1.000000" stroke="none" 
	d="
M1.000000,105.375000 
	C5.526114,103.532036 10.197755,104.135429 14.821085,104.003700 
	C17.747860,103.920303 19.156775,105.219086 18.992926,108.580048 
	C20.101788,110.395645 20.409367,112.057121 20.373764,114.159088 
	C16.017942,117.402946 11.387439,116.364326 6.422873,116.058563 
	C3.666349,113.990974 3.144982,110.893364 1.234829,108.245712 
	C1.000000,107.250000 1.000000,106.500000 1.000000,105.375000 
z"/>
<path fill="#A28448" opacity="1.000000" stroke="none" 
	d="
M7.936755,98.685135 
	C5.563695,98.757965 4.268366,96.055557 1.357225,96.027008 
	C1.000000,90.645073 1.000000,85.290138 1.000000,79.467606 
	C2.634742,77.320457 4.289469,75.687820 7.376359,76.550537 
	C11.220095,78.104591 11.728905,81.539619 13.201086,84.793861 
	C13.850856,86.358612 14.554790,87.513153 14.096539,89.266068 
	C13.824692,89.830284 13.680843,90.034012 13.239840,90.453720 
	C10.703568,91.556480 9.281136,89.943787 7.524025,88.578598 
	C5.896643,90.910362 7.473930,93.239372 6.951679,95.678528 
	C7.246202,96.803833 7.554332,97.592957 7.936755,98.685135 
z"/>
<path fill="#AA8C4E" opacity="1.000000" stroke="none" 
	d="
M8.333195,77.772827 
	C5.869879,78.294472 3.826702,78.637413 1.391762,78.990173 
	C1.000000,74.643097 1.000000,70.286201 1.000000,65.464645 
	C3.691320,64.995918 6.382641,64.991837 9.522043,64.986855 
	C12.778614,69.498863 11.395094,73.607216 8.333195,77.772827 
z"/>
<path fill="#8C6B34" opacity="1.000000" stroke="none" 
	d="
M84.273300,109.047310 
	C84.199440,108.810234 84.400604,108.555008 84.818764,108.163986 
	C85.000000,108.000000 85.000000,108.500000 85.000000,108.750000 
	C85.000000,109.000000 84.512573,109.000984 84.273300,109.047310 
z"/>
<path fill="#B29455" opacity="1.000000" stroke="none" 
	d="
M20.653816,45.268394 
	C25.625437,46.520905 30.360029,45.867935 35.499065,45.975895 
	C36.865837,46.499451 37.342537,47.314335 37.654930,48.800087 
	C38.483288,53.223633 38.842823,57.158371 36.946350,61.384438 
	C32.454597,63.968201 28.178087,63.550266 23.396824,62.194321 
	C18.928480,57.040394 18.869541,51.417027 20.653816,45.268394 
z"/>
<path fill="#A28448" opacity="1.000000" stroke="none" 
	d="
M21.035954,44.528313 
	C21.711681,50.021259 22.375124,55.064522 23.048759,60.533524 
	C23.426729,61.536232 23.558401,62.163002 23.222515,63.276039 
	C20.238611,65.817818 17.504925,65.445709 14.404253,63.336700 
	C12.429218,56.062134 12.805752,49.269287 15.846426,42.338951 
	C16.004377,41.830517 16.005774,41.664639 16.038246,41.505077 
	C16.558498,38.948807 17.176044,35.038303 19.575039,35.278027 
	C22.319061,35.552231 20.493483,39.399025 20.970524,41.628593 
	C21.138390,42.413151 21.014397,43.260147 21.035954,44.528313 
z"/>
<path fill="#AA8C4E" opacity="1.000000" stroke="none" 
	d="
M36.260323,49.254738 
	C36.003410,48.251892 35.992523,47.491997 35.970024,46.351501 
	C35.983051,38.631641 36.007694,31.292385 36.032673,23.486835 
	C36.044010,22.579884 36.055008,22.139225 36.085426,21.369211 
	C40.621559,19.521217 42.104324,21.577881 42.009003,25.853615 
	C41.899330,30.773272 41.963223,35.697983 42.023796,40.619614 
	C42.045353,42.370850 41.613258,44.294716 43.663689,45.815514 
	C47.342064,48.231380 45.998837,51.596809 46.073158,55.077995 
	C45.940006,57.361267 46.330666,59.215157 45.454781,61.383816 
	C44.833416,62.221516 44.360107,62.556190 43.387600,62.828918 
	C42.710899,62.852234 42.446312,62.813156 41.833778,62.600700 
	C39.747898,60.641140 39.558857,58.349812 39.701469,56.094872 
	C39.883698,53.213619 38.788879,51.107040 36.260323,49.254738 
z"/>
<path fill="#8C6B34" opacity="1.000000" stroke="none" 
	d="
M80.531403,134.669434 
	C80.880508,139.699387 80.928856,144.390610 80.904572,149.543320 
	C73.202400,150.003342 65.571419,149.914505 57.943932,150.039169 
	C54.394115,150.097183 51.011280,149.681412 47.417675,148.076019 
	C47.252674,143.575134 46.386650,139.114197 47.853333,134.376617 
	C49.417957,132.141830 51.412304,131.742203 53.933842,131.665573 
	C57.058685,130.623154 58.982021,132.461029 61.200043,133.525391 
	C64.429214,135.074951 67.806458,137.312195 71.384575,133.219849 
	C74.675079,132.881668 77.694534,131.990982 80.531403,134.669434 
z"/>
<path fill="#987742" opacity="1.000000" stroke="none" 
	d="
M63.812893,102.767715 
	C64.236328,104.125267 64.466667,105.250557 64.837250,106.693062 
	C65.126152,107.153435 65.274818,107.296593 65.547485,107.723839 
	C65.686920,108.425758 65.641594,108.837379 65.483429,109.553116 
	C65.253426,110.481300 64.960632,111.048950 64.585831,111.933762 
	C64.081909,113.765602 62.698002,114.043465 61.269104,114.796005 
	C60.613235,115.291313 60.180630,115.539711 59.810276,115.860077 
	C52.662296,122.043221 52.663807,122.044968 50.050621,112.382042 
	C46.795048,108.943977 47.687004,105.240883 48.626770,101.147766 
	C52.734516,97.787933 56.894512,98.651184 61.534264,99.849930 
	C62.538895,100.845345 63.079342,101.690392 63.812893,102.767715 
z"/>
<path fill="#987742" opacity="1.000000" stroke="none" 
	d="
M22.202696,110.264587 
	C22.209370,106.806595 21.302334,103.440659 23.729885,100.277939 
	C27.965906,98.274834 31.950485,98.136162 36.314552,100.312111 
	C38.719955,105.022751 39.650475,109.351517 35.430359,113.681778 
	C34.772224,115.306564 34.514515,116.599831 34.164810,117.867722 
	C33.388275,120.683144 31.686962,120.751297 29.777506,119.077599 
	C26.931427,116.582932 23.954258,114.161324 22.202696,110.264587 
z"/>
<path fill="#917239" opacity="1.000000" stroke="none" 
	d="
M44.383755,111.660172 
	C44.963341,115.210098 45.614975,118.498840 46.888733,121.525787 
	C48.076759,124.348991 46.750603,125.867836 44.939350,127.492859 
	C43.578686,128.713638 42.343792,128.645004 41.002674,127.452126 
	C39.160923,125.813934 37.884109,124.222771 39.134113,121.458221 
	C40.072975,119.381821 40.360317,117.010834 40.971725,114.382935 
	C39.288647,109.722008 38.889542,105.450256 41.401337,100.873672 
	C42.421780,100.320183 43.073936,100.266541 44.192535,100.632416 
	C46.902981,104.320496 46.896454,107.793869 44.383755,111.660172 
z"/>
<path fill="#917239" opacity="1.000000" stroke="none" 
	d="
M19.729443,114.280899 
	C19.653532,112.586983 19.351969,111.156227 19.025028,109.359383 
	C19.527372,109.210632 20.055094,109.427986 20.804855,109.829529 
	C21.792637,117.452698 27.729555,121.139656 32.502235,125.599365 
	C35.385723,128.293762 37.739429,131.113098 38.002510,135.611420 
	C34.906540,135.787292 31.737129,136.519348 28.339111,135.194733 
	C27.624067,134.419357 27.131229,133.652542 27.452843,133.142685 
	C30.281649,128.658173 27.477646,126.493065 24.315905,123.809769 
	C21.657125,121.553314 17.443502,119.495789 19.729443,114.280899 
z"/>
<path fill="#8C6B34" opacity="1.000000" stroke="none" 
	d="
M44.463161,112.024666 
	C44.028122,108.663620 44.016041,105.291634 44.002434,101.461502 
	C42.787613,99.785912 42.447578,98.346268 43.121269,96.282394 
	C45.936749,93.432068 47.916603,95.144974 50.202984,97.197716 
	C50.941650,98.432198 50.964073,99.324425 50.304039,100.599945 
	C50.021866,104.347771 50.007587,107.722275 49.983658,111.557320 
	C48.278042,112.016487 46.582081,112.015106 44.463161,112.024666 
z"/>
<path fill="#917239" opacity="1.000000" stroke="none" 
	d="
M63.220974,111.225304 
	C63.251160,110.506607 63.497166,110.007309 63.868412,109.259460 
	C64.172089,108.873154 64.350525,108.735413 64.856888,108.515320 
	C65.634171,108.318634 66.069572,108.364197 66.743195,108.774483 
	C66.721153,110.434517 66.448921,111.867142 66.110909,113.658722 
	C68.506470,117.082512 66.402962,119.182938 64.444321,121.226196 
	C61.121101,124.693001 56.641056,127.228935 55.304943,132.724884 
	C53.084614,133.967545 50.963017,134.046722 48.415192,133.994843 
	C48.126701,129.909760 50.781502,127.489868 53.694382,125.193115 
	C57.183121,122.442299 60.649666,119.651466 62.938705,115.325401 
	C62.723011,113.759422 64.094017,112.719818 63.220974,111.225304 
z"/>
<path fill="#886731" opacity="1.000000" stroke="none" 
	d="
M42.164619,100.639755 
	C41.715794,105.100830 42.591091,109.242821 41.210480,113.641937 
	C39.308147,114.000404 37.610554,114.005920 35.492310,114.018127 
	C36.248581,110.050041 36.020790,105.967094 36.144718,101.058998 
	C37.664383,98.489731 39.303555,97.818481 41.698967,99.239517 
	C42.119774,99.763817 42.230156,100.015434 42.164619,100.639755 
z"/>
<path fill="#886731" opacity="1.000000" stroke="none" 
	d="
M62.931419,111.318588 
	C65.358162,111.924263 64.324440,113.251839 63.229801,114.777634 
	C62.578339,114.996788 62.131897,115.000313 61.351158,115.006622 
	C61.630470,113.883362 62.244080,112.757317 62.931419,111.318588 
z"/>
<path fill="#806132" opacity="1.000000" stroke="none" 
	d="
M19.501160,114.012314 
	C20.947912,118.799423 24.944832,121.299805 28.007347,124.469559 
	C32.716820,129.343964 32.784939,129.278152 28.177212,134.708893 
	C25.188921,136.024323 22.403856,137.113388 19.575670,138.075699 
	C17.828989,138.669998 16.001497,139.188995 14.248610,137.219940 
	C15.426356,134.589676 17.420773,133.169373 20.304209,132.778717 
	C21.696486,132.590073 23.064701,131.754883 24.292316,130.974197 
	C25.207996,130.391891 26.339428,129.596848 25.860146,128.212921 
	C25.476955,127.106476 24.305674,127.165672 23.353870,126.977180 
	C16.403662,125.600815 9.874903,123.531265 6.146782,116.302788 
	C9.933735,112.633087 14.668042,114.483467 19.501160,114.012314 
z"/>
<path fill="#BEA261" opacity="1.000000" stroke="none" 
	d="
M49.547020,22.454628 
	C49.142914,19.035711 48.851997,15.975352 48.994446,12.437136 
	C59.246883,14.082686 69.616203,12.508655 80.376160,13.006428 
	C80.878769,17.700161 80.923607,22.392113 80.901505,27.546497 
	C80.051628,28.866634 79.302757,29.884539 78.049324,29.941633 
	C68.812561,30.362389 59.555115,31.424456 49.944393,28.949566 
	C47.894527,26.811890 47.791302,24.874630 49.547020,22.454628 
z"/>
<path fill="#B89B5B" opacity="1.000000" stroke="none" 
	d="
M49.575699,28.262407 
	C59.969349,28.003592 69.944084,28.004272 80.376694,28.006943 
	C80.879814,32.701019 80.925064,37.393105 80.901566,42.547440 
	C78.726158,45.828426 75.825714,45.269249 72.585999,44.759140 
	C70.310349,44.458187 68.674736,43.853897 67.826195,41.933899 
	C66.654785,39.283333 65.945557,42.103283 64.629608,42.328838 
	C59.866528,43.722023 55.474560,43.814053 50.645226,42.316261 
	C49.954533,41.952221 49.698647,41.764881 49.173916,41.179665 
	C47.677254,36.668224 46.658588,32.558960 49.575699,28.262407 
z"/>
<path fill="#B29455" opacity="1.000000" stroke="none" 
	d="
M70.646149,43.278973 
	C73.977852,43.006241 76.961922,43.006031 80.389404,43.007751 
	C80.879524,48.367462 80.926224,53.725243 80.902771,59.546616 
	C78.433624,62.682739 75.827644,62.725929 72.718102,60.292358 
	C70.399284,56.766075 70.504929,53.067852 69.850723,49.102619 
	C69.748566,46.935574 68.945610,45.142834 70.646149,43.278973 
z"/>
<path fill="#AA8C4E" opacity="1.000000" stroke="none" 
	d="
M72.572906,58.848717 
	C75.209854,60.128456 77.622635,60.003582 80.424896,60.008224 
	C80.880020,65.035446 80.927406,70.060677 80.902878,75.548584 
	C80.290550,76.549332 79.667854,76.931458 78.534691,77.015388 
	C76.012726,76.421196 75.380783,74.549721 74.489807,72.443085 
	C73.059387,73.266769 72.871384,75.290771 70.915421,75.821671 
	C70.009148,75.950935 69.491730,75.858643 68.645607,75.416885 
	C66.190460,69.542366 68.549622,64.633698 71.103867,59.388863 
	C71.650230,58.944717 71.909691,58.821793 72.572906,58.848717 
z"/>
<path fill="#917239" opacity="1.000000" stroke="none" 
	d="
M81.409584,93.871597 
	C78.625648,93.452553 76.171669,92.877296 73.368973,92.157181 
	C72.296310,87.660439 75.636688,85.176559 77.750923,82.229622 
	C78.571785,81.085472 80.217155,81.265396 80.673248,83.643494 
	C81.024254,87.251175 84.407120,90.192421 81.409584,93.871597 
z"/>
<path fill="#A28448" opacity="1.000000" stroke="none" 
	d="
M80.883286,83.566864 
	C79.627113,82.614067 78.739204,82.801651 77.821350,84.366486 
	C76.413177,86.767250 74.853409,89.079102 73.189117,91.720505 
	C73.020256,92.012329 72.998970,92.011330 72.996529,92.019974 
	C70.263008,91.690399 70.609352,89.747772 71.088692,88.009140 
	C71.663124,85.925568 72.739113,84.022194 74.068985,81.835754 
	C75.386269,79.795441 75.363358,77.440887 77.658745,76.086601 
	C78.731316,75.986374 79.431190,75.995613 80.481018,76.008057 
	C80.874176,78.383530 80.917381,80.755806 80.883286,83.566864 
z"/>
<path fill="#987742" opacity="1.000000" stroke="none" 
	d="
M8.006054,78.300323 
	C7.744125,73.758255 9.739913,69.931839 9.970747,65.396187 
	C13.126836,64.254326 11.969240,67.789650 13.768690,68.858231 
	C16.957504,73.998283 19.248241,79.136230 19.421194,85.308517 
	C17.184761,87.210930 15.019684,87.412750 12.332395,86.218170 
	C10.132607,83.839882 9.056763,81.275368 8.006054,78.300323 
z"/>
<path fill="#987742" opacity="1.000000" stroke="none" 
	d="
M14.096217,63.375534 
	C16.725523,63.004505 19.423672,62.991169 22.572817,62.972267 
	C26.310110,62.896580 26.157375,65.698265 26.834539,67.684372 
	C27.463062,69.527809 27.498117,71.500229 27.282074,73.903534 
	C27.076277,74.634598 26.951410,74.914696 26.517399,75.536423 
	C23.983316,77.248604 21.623947,77.406914 18.736942,76.530441 
	C15.063773,74.835060 15.610007,71.617386 15.058908,68.453217 
	C14.774925,66.590981 14.469993,65.162109 14.096217,63.375534 
z"/>
<path fill="#A28448" opacity="1.000000" stroke="none" 
	d="
M14.872866,68.174721 
	C15.930858,70.157402 16.781858,72.294937 17.833931,74.717613 
	C21.222446,77.750214 22.454844,81.445122 22.842464,85.440399 
	C23.006084,87.126831 22.362144,89.017334 20.381012,89.030174 
	C18.634951,89.041496 18.043432,87.514420 18.726791,85.405647 
	C17.213228,80.007599 14.569571,75.285515 13.992971,69.493347 
	C14.209840,68.846718 14.437857,68.588150 14.872866,68.174721 
z"/>
<path fill="#AA8C4E" opacity="1.000000" stroke="none" 
	d="
M49.990402,27.576477 
	C49.988773,32.032871 49.982933,36.062832 49.966499,40.557213 
	C48.036930,42.950100 46.314266,42.185741 44.338127,40.329082 
	C44.023937,35.752350 44.163521,31.474928 43.974209,27.212112 
	C43.807976,23.469048 45.128769,21.553318 49.482979,22.040817 
	C49.924725,23.750607 49.955460,25.450325 49.990402,27.576477 
z"/>
<path fill="#A28448" opacity="1.000000" stroke="none" 
	d="
M44.023285,40.449497 
	C45.760098,40.300011 47.492893,40.576591 49.590797,40.937401 
	C49.955906,41.021629 49.979874,41.010967 49.985786,41.009201 
	C53.915176,45.717945 52.299477,51.019054 51.335876,56.644363 
	C48.856926,58.975567 46.772804,58.606659 44.405735,56.392227 
	C44.032761,52.997253 44.019405,49.954666 44.003792,46.457039 
	C44.007450,44.293182 44.013355,42.584377 44.023285,40.449497 
z"/>
<path fill="#A28448" opacity="1.000000" stroke="none" 
	d="
M50.485222,100.980087 
	C50.024639,100.231010 50.013138,99.488747 49.995422,98.374962 
	C46.572411,94.128418 48.001755,89.334297 47.592541,84.417572 
	C48.705761,80.727730 46.899803,77.247414 48.973095,73.731934 
	C52.370846,71.449951 55.666183,71.551979 59.460896,72.476349 
	C62.794075,74.831566 62.190285,77.518707 61.011600,80.694427 
	C60.753071,85.754486 59.072639,90.026352 57.785080,94.699081 
	C59.184532,96.514175 60.421303,97.985703 61.828259,99.728760 
	C58.425526,101.620270 54.634670,100.796188 50.485222,100.980087 
z"/>
<path fill="#917239" opacity="1.000000" stroke="none" 
	d="
M58.201080,94.742867 
	C55.273338,93.845512 56.355881,91.783424 56.809669,89.913658 
	C57.396091,87.497383 58.070454,85.102432 58.854771,82.351120 
	C60.400463,80.252541 62.217224,79.682686 64.754906,80.223373 
	C67.007607,83.977348 67.708412,80.000565 69.362938,79.658997 
	C72.020233,79.032982 74.254814,78.672264 75.860268,81.597893 
	C75.601089,85.404900 72.475441,87.862694 72.844536,91.760376 
	C70.278671,93.654770 67.279854,92.791527 64.404594,92.991966 
	C62.330837,93.136543 60.122486,92.659767 58.201080,94.742867 
z"/>
<path fill="#987742" opacity="1.000000" stroke="none" 
	d="
M78.323486,98.926025 
	C78.255089,97.584946 78.947937,96.533714 80.714340,96.046494 
	C81.037155,95.970612 81.000214,96.000771 81.014954,95.981964 
	C80.788673,97.368462 80.105835,98.418533 78.323486,98.926025 
z"/>
<path fill="#987742" opacity="1.000000" stroke="none" 
	d="
M78.027008,99.030388 
	C77.946968,99.293312 77.845520,99.536697 77.744072,99.780090 
	C77.746750,99.581902 77.749435,99.383705 77.856033,99.080338 
	C77.959961,98.975166 78.005600,99.010857 78.027008,99.030388 
z"/>
<path fill="#917239" opacity="1.000000" stroke="none" 
	d="
M80.905731,134.544434 
	C77.853935,135.005569 74.875710,135.003006 71.447968,135.000290 
	C66.989304,136.460083 63.480576,134.935715 60.388256,132.719681 
	C57.399612,130.577957 57.412300,126.313148 60.534218,125.472572 
	C67.502106,123.596474 73.449936,120.084328 79.605392,116.006630 
	C80.186127,116.004173 80.366760,116.008644 80.818192,116.024231 
	C81.052437,122.050484 81.015869,128.065613 80.905731,134.544434 
z"/>
<path fill="#917239" opacity="1.000000" stroke="none" 
	d="
M18.570011,85.014374 
	C19.130718,85.958351 18.935102,87.026787 20.359331,87.931480 
	C21.447031,83.360214 18.002668,79.856468 18.041231,75.399315 
	C20.375298,75.010902 22.715595,75.019058 25.494888,75.033234 
	C27.736515,75.527534 28.624258,76.911430 29.006170,78.551247 
	C29.971622,82.696632 31.169823,86.799065 31.648577,91.044640 
	C32.045124,94.561234 30.950443,96.865883 26.503830,96.294914 
	C20.021646,94.345131 13.879291,94.670708 7.331129,95.858704 
	C2.030780,91.859810 4.580692,87.566238 6.545467,82.901649 
	C9.260501,84.862434 9.534488,88.437927 12.686754,89.887451 
	C13.109182,90.130913 13.215061,90.265388 13.159061,90.200760 
	C12.700469,88.896439 12.403754,87.791222 12.028025,86.351730 
	C13.915108,85.022636 16.029964,84.944908 18.570011,85.014374 
z"/>
<path fill="#A28448" opacity="1.000000" stroke="none" 
	d="
M26.000191,96.333336 
	C29.254250,95.483498 30.025944,93.757736 29.251873,90.715485 
	C28.000933,85.799049 27.082537,80.797989 25.978794,75.435959 
	C25.947544,74.865356 25.961203,74.691460 25.990414,74.256363 
	C28.800840,70.699272 32.199463,71.802498 36.024174,72.928299 
	C38.930328,75.345314 37.707165,78.301315 38.234100,81.397186 
	C37.954247,88.026917 39.805477,94.370255 36.334000,100.632538 
	C36.021381,101.012428 36.004009,101.002380 35.994949,100.995705 
	C32.240479,100.903214 28.453323,101.388229 24.385330,100.083984 
	C24.610876,98.875771 25.241810,97.753822 26.000191,96.333336 
z"/>
<path fill="#A28448" opacity="1.000000" stroke="none" 
	d="
M7.995820,99.002167 
	C8.144233,99.213364 8.297799,99.421371 8.451365,99.629372 
	C8.314154,99.512741 8.176943,99.396111 8.025391,99.133835 
	C8.011048,98.988190 8.000973,98.998985 7.995820,99.002167 
z"/>
<path fill="#806132" opacity="1.000000" stroke="none" 
	d="
M79.758484,115.703087 
	C76.423241,122.484360 70.631042,125.510376 63.565548,126.689194 
	C62.258251,126.907303 60.147156,126.653214 60.096359,128.708069 
	C60.055737,130.351471 61.686752,131.109146 63.033184,131.757034 
	C65.410095,132.900772 68.255684,132.854156 70.695969,134.812790 
	C71.119026,138.471725 69.497734,139.288223 66.336349,138.291595 
	C62.536598,137.093735 59.260136,134.883057 55.396004,133.078369 
	C53.737663,130.048889 54.546597,127.830894 56.833126,125.545052 
	C60.156200,122.222969 64.363724,119.555847 65.961334,114.359436 
	C70.523018,114.586250 75.262787,112.615471 79.758484,115.703087 
z"/>
<path fill="#8C6B34" opacity="1.000000" stroke="none" 
	d="
M66.892365,108.719116 
	C66.550804,109.000443 66.108231,108.998985 65.333649,108.997391 
	C64.852890,108.826035 64.704132,108.654816 64.770996,108.220413 
	C64.986626,107.957245 64.977699,107.483734 64.977592,107.247009 
	C65.582108,107.485641 66.186729,107.960991 66.892365,108.719116 
z"/>
<path fill="#AA8C4E" opacity="1.000000" stroke="none" 
	d="
M36.416832,73.752213 
	C32.972599,74.001526 29.942789,74.000916 26.459473,73.997742 
	C25.141197,70.533363 24.276426,67.071548 23.217731,63.288219 
	C23.027237,62.521011 23.030664,62.075321 23.046522,61.294449 
	C27.056644,60.968781 31.054337,60.978306 35.513420,60.984154 
	C36.528751,61.326527 36.946663,61.794239 37.359200,62.844997 
	C38.263767,66.769585 39.153217,70.239540 36.416832,73.752213 
z"/>
<path fill="#A28448" opacity="1.000000" stroke="none" 
	d="
M36.396488,63.332420 
	C36.038647,62.586697 36.021744,62.127949 35.989830,61.324841 
	C35.986317,57.297089 35.997818,53.613693 36.011806,49.471046 
	C41.953869,47.128288 41.959240,47.128258 41.994652,53.206112 
	C42.009933,55.829586 41.997810,58.453220 41.993877,61.542965 
	C40.690678,64.019493 39.040371,64.883804 36.396488,63.332420 
z"/>
<path fill="#987742" opacity="1.000000" stroke="none" 
	d="
M36.047958,63.498951 
	C37.782070,62.717724 39.508598,62.389999 41.612373,62.035713 
	C41.989620,62.009148 41.998413,62.001175 41.994713,62.005775 
	C44.179794,66.153671 42.367348,70.610771 42.987934,74.230782 
	C43.406029,70.767899 42.320980,66.595490 43.770470,62.265678 
	C44.017014,60.302563 44.025036,58.595711 44.039589,56.464348 
	C45.765350,56.316154 47.484581,56.592472 49.568817,56.953247 
	C52.149887,58.092922 52.022308,60.121338 52.043064,62.578140 
	C52.012768,66.529388 53.277695,70.169106 50.351742,73.641342 
	C50.005299,77.027092 49.995407,80.066071 49.979416,83.560455 
	C47.397224,85.885513 45.938526,88.261368 46.232304,91.595177 
	C46.368000,93.135063 45.758335,94.520554 44.253395,95.769089 
	C44.013977,97.399704 44.008194,98.785599 44.001656,100.587425 
	C43.553841,101.005394 43.106777,101.007431 42.324203,101.010971 
	C41.988693,101.012474 41.983448,100.515198 41.982334,100.266556 
	C38.927635,97.568893 39.706509,94.092598 39.644119,90.903328 
	C39.581848,87.720131 39.523304,84.632645 36.319221,82.287430 
	C36.040230,79.649826 36.024471,77.271255 36.005562,74.447418 
	C36.015064,70.652245 36.027718,67.302345 36.047958,63.498951 
z"/>
<path fill="#A28448" opacity="1.000000" stroke="none" 
	d="
M43.672676,62.009140 
	C44.008995,67.553520 44.008995,73.097618 44.008995,78.641724 
	C43.495560,78.652283 42.982128,78.662842 42.468693,78.673401 
	C41.449238,73.497726 42.235886,68.180046 41.988991,62.477081 
	C42.439461,62.009872 42.887909,62.009369 43.672676,62.009140 
z"/>
<path fill="#886731" opacity="1.000000" stroke="none" 
	d="
M64.802803,108.114990 
	C64.989288,108.130585 64.991943,108.303925 64.998123,108.737259 
	C64.833694,109.000381 64.665733,109.003510 64.245712,109.008774 
	C64.176781,108.743401 64.385223,108.497345 64.802803,108.114990 
z"/>
<path fill="#917239" opacity="1.000000" stroke="none" 
	d="
M44.374115,96.038567 
	C44.016415,93.074295 43.969284,90.134041 44.019356,87.195442 
	C44.108234,81.979919 44.405689,81.806572 49.633705,83.922455 
	C49.984425,88.368469 49.995537,92.721069 49.997925,97.538551 
	C48.235626,97.356735 46.482048,96.710030 44.374115,96.038567 
z"/>
<path fill="#917239" opacity="1.000000" stroke="none" 
	d="
M36.046707,82.493866 
	C41.663712,80.778954 41.927486,80.970467 41.983643,86.741310 
	C42.023651,90.852921 41.993446,94.965225 41.987900,99.547562 
	C40.240097,100.294693 38.498974,100.571480 36.389614,100.930344 
	C36.026730,94.994728 36.032078,88.977036 36.046707,82.493866 
z"/>
<path fill="#B29455" opacity="1.000000" stroke="none" 
	d="
M50.366627,63.340244 
	C49.995667,61.290188 49.976673,59.587624 49.945751,57.461376 
	C49.949699,52.004971 49.965576,46.972244 49.986576,41.473476 
	C54.675186,41.001030 59.358673,40.994621 64.506424,40.983231 
	C67.734467,42.566624 67.034164,44.994209 66.474655,47.818001 
	C66.342384,51.784721 66.407265,55.330364 64.981735,59.139790 
	C64.927483,61.311405 64.184174,62.669724 62.482063,64.003967 
	C58.206951,65.384537 54.380955,66.231911 50.366627,63.340244 
z"/>
<path fill="#AA8C4E" opacity="1.000000" stroke="none" 
	d="
M64.400116,48.379486 
	C64.347382,45.945042 64.664597,43.864403 64.976250,41.381008 
	C65.249649,38.793736 64.423363,36.482918 65.786880,34.039547 
	C68.481590,36.404751 68.994827,39.753681 70.787582,42.730049 
	C71.278671,44.435612 71.563553,45.864773 71.918777,47.652084 
	C69.789772,50.317982 67.408478,50.809132 64.400116,48.379486 
z"/>
<path fill="#A28448" opacity="1.000000" stroke="none" 
	d="
M64.023483,48.462337 
	C66.388351,48.017151 68.746536,48.008625 71.546921,48.005169 
	C72.536446,51.359329 73.313980,54.685600 72.984055,58.559746 
	C72.808151,58.998802 72.639633,58.999039 72.218369,59.001011 
	C69.443466,61.598095 66.709373,61.814636 63.403305,59.377609 
	C63.362999,55.647865 63.689896,52.273430 64.023483,48.462337 
z"/>
<path fill="#987742" opacity="1.000000" stroke="none" 
	d="
M62.963379,59.356453 
	C65.715591,59.016022 68.395081,59.009743 71.520088,59.003105 
	C71.704697,64.212029 70.005798,69.144501 68.995766,74.614853 
	C69.862801,77.824005 68.697365,79.964767 66.365891,81.928368 
	C63.951805,82.004761 61.913822,82.002678 59.439213,82.002258 
	C59.327541,79.604088 59.652493,77.204247 59.985153,74.399345 
	C58.063297,70.220215 58.261036,66.726311 61.661690,63.298702 
	C62.272514,61.885464 62.581585,60.788033 62.963379,59.356453 
z"/>
<path fill="#987742" opacity="1.000000" stroke="none" 
	d="
M76.257248,81.736359 
	C73.948105,81.668671 71.876289,81.338295 69.404816,81.007095 
	C67.631447,78.724197 68.824692,77.046562 70.637207,75.202637 
	C71.415947,71.697945 72.720192,68.773888 74.557480,65.558823 
	C77.352440,68.516083 76.610260,72.225250 77.946121,75.597588 
	C78.007835,77.945946 77.831238,79.871986 76.257248,81.736359 
z"/>
<path fill="#A28448" opacity="1.000000" stroke="none" 
	d="
M70.624924,74.975281 
	C70.351860,76.747757 69.745384,78.529388 69.072037,80.658646 
	C68.014473,83.166870 67.023796,85.327461 65.770760,88.060249 
	C64.591202,85.828758 65.589104,84.265244 65.921921,82.353470 
	C66.844429,79.857094 67.699066,77.707336 68.754211,75.284904 
	C69.400314,75.002968 69.845909,74.993706 70.624924,74.975281 
z"/>
<path fill="#AA8C4E" opacity="1.000000" stroke="none" 
	d="
M61.506561,62.986374 
	C61.406063,66.412865 60.848686,69.842842 60.142086,73.633553 
	C56.968513,73.995338 53.944160,73.996391 50.467499,73.992783 
	C50.007786,70.628792 50.000381,67.269463 50.003822,63.451443 
	C53.692997,62.991787 57.371338,62.990818 61.506561,62.986374 
z"/>
<path fill="#A28448" opacity="1.000000" stroke="none" 
	d="
M12.998609,90.000824 
	C13.148227,90.210541 13.299273,90.419426 13.450323,90.628304 
	C13.313009,90.513962 13.175694,90.399620 13.020842,90.140854 
	C13.003304,89.996429 13.000037,90.000000 12.998609,90.000824 
z"/>
</svg>