<svg version="1.1" id="Layer_1" xmlns="http://www.w3.org/2000/svg" xmlns:xlink="http://www.w3.org/1999/xlink" x="0px" y="0px"
	 width="100%" viewBox="0 0 512 512" enable-background="new 0 0 512 512" xml:space="preserve">
<path fill="#111111" opacity="1.000000" stroke="none" 
	d="
M224.708313,1.243085 
	C246.020889,1.000000 267.041779,1.000000 288.531342,1.000000 
	C291.152893,2.866524 293.813202,1.834049 296.216766,2.188706 
	C320.271423,5.738128 343.232788,12.814064 365.299133,22.991667 
	C395.774384,37.047691 422.445801,56.346302 445.365936,80.810989 
	C460.344482,96.798912 473.120422,114.399078 483.518616,133.724060 
	C496.561462,157.964142 505.703125,183.552567 510.761566,210.618439 
	C511.617432,215.197998 511.567139,219.865036 512.756958,224.708237 
	C513.000000,246.020889 513.000000,267.041779 513.000000,288.531342 
	C511.133484,291.152863 512.165894,293.813202 511.811249,296.216766 
	C508.261963,320.271454 501.185852,343.232788 491.008301,365.299164 
	C476.952271,395.774414 457.653656,422.445740 433.188934,445.365906 
	C417.201019,460.344482 399.600830,473.120331 380.275909,483.518677 
	C356.035919,496.561737 330.447266,505.702820 303.381531,510.761566 
	C298.801941,511.617523 294.134888,511.567200 289.291687,512.756897 
	C267.979095,513.000000 246.958206,513.000000 225.468658,513.000000 
	C222.847107,511.133545 220.186768,512.165955 217.783234,511.811279 
	C193.728500,508.262024 170.767166,501.185944 148.700851,491.008301 
	C118.225639,476.952209 91.554115,457.653778 68.634056,433.188934 
	C53.655590,417.200928 40.879570,399.600861 30.481380,380.275879 
	C17.438486,356.035797 8.297041,330.447296 3.238424,303.381500 
	C2.382498,298.801910 2.432881,294.134857 1.243085,289.291687 
	C1.000000,267.979095 1.000000,246.958206 1.000000,225.468658 
	C2.866516,222.847107 1.834055,220.186768 2.188712,217.783234 
	C5.738118,193.728531 12.814093,170.767136 22.991709,148.700790 
	C37.047760,118.225502 56.346371,91.554062 80.811134,68.633949 
	C96.799095,53.655434 114.399269,40.879486 133.724289,30.481297 
	C157.964401,17.438440 183.552887,8.296818 210.618759,3.238416 
	C215.198257,2.382543 219.865250,2.432942 224.708313,1.243085 
z"/>
<path fill="#000000" opacity="1.000000" stroke="none" 
	d="
M224.531342,1.000000 
	C223.046738,4.865016 219.041550,3.271309 216.203384,3.742801 
	C181.663376,9.480755 149.731995,21.754690 120.026634,40.266785 
	C100.268158,52.580078 82.681488,67.447906 67.107597,84.563873 
	C44.289825,109.640976 27.140169,138.273453 15.749824,170.303192 
	C9.619187,187.542603 5.080336,205.136765 2.859779,223.314850 
	C2.793899,223.854156 2.139456,224.321564 1.379713,224.911255 
	C1.000000,151.738327 1.035824,78.476570 0.894913,5.215164 
	C0.887818,1.526426 1.757458,0.902602 5.276886,0.908466 
	C78.205330,1.029966 151.134033,1.000000 224.531342,1.000000 
z"/>
<path fill="#000000" opacity="1.000000" stroke="none" 
	d="
M513.000000,224.531342 
	C509.135010,223.046738 510.728699,219.041595 510.257172,216.203430 
	C504.519165,181.663437 492.245331,149.732010 473.733154,120.026665 
	C461.419830,100.268196 446.552185,82.681381 429.436157,67.107529 
	C404.358917,44.289879 375.726501,27.140152 343.696747,15.749804 
	C326.457336,9.619166 308.863190,5.080297 290.685089,2.859785 
	C290.145813,2.793909 289.678436,2.139467 289.088745,1.379720 
	C362.261658,1.000000 435.523407,1.035820 508.784790,0.894920 
	C512.473450,0.887826 513.097412,1.757346 513.091553,5.276858 
	C512.970032,78.205315 513.000000,151.134018 513.000000,224.531342 
z"/>
<path fill="#000000" opacity="1.000000" stroke="none" 
	d="
M1.000000,289.468658 
	C4.865067,290.953217 3.271308,294.958435 3.742787,297.796570 
	C9.480672,332.336578 21.754625,364.267975 40.266743,393.973297 
	C52.580044,413.731689 67.447670,431.318542 84.563728,446.892365 
	C109.640953,469.710022 138.273361,486.859741 170.303070,498.250122 
	C187.542465,504.380798 205.136642,508.919586 223.314728,511.140198 
	C223.854080,511.206085 224.321533,511.860504 224.911255,512.620239 
	C151.738327,513.000000 78.476593,512.964172 5.215190,513.105103 
	C1.526532,513.112183 0.902595,512.242676 0.908459,508.723145 
	C1.029969,435.794708 1.000000,362.865967 1.000000,289.468658 
z"/>
<path fill="#000000" opacity="1.000000" stroke="none" 
	d="
M289.468658,513.000000 
	C290.953339,509.135162 294.958466,510.728729 297.796631,510.257233 
	C332.336609,504.519226 364.268097,492.245453 393.973358,473.733154 
	C413.731720,461.419800 431.318726,446.552368 446.892456,429.436157 
	C469.709961,404.358795 486.859863,375.726532 498.250183,343.696747 
	C504.380798,326.457367 508.919525,308.863159 511.140228,290.685120 
	C511.206055,290.145813 511.860535,289.678436 512.620239,289.088745 
	C513.000000,362.261658 512.964172,435.523407 513.105042,508.784790 
	C513.112183,512.473450 512.242676,513.097412 508.723145,513.091553 
	C435.794708,512.970032 362.865967,513.000000 289.468658,513.000000 
z"/>
<path fill="#FEFEFE" opacity="1.000000" stroke="none" 
	d="
M312.945312,413.000000 
	C312.945312,438.600403 312.945312,463.700806 312.945312,489.968140 
	C306.102142,483.926147 300.051025,478.622314 294.041962,473.271271 
	C267.537720,449.669098 241.073959,426.021301 214.492737,402.506226 
	C212.474930,400.721222 211.956955,398.953491 211.957581,396.489532 
	C211.961334,381.664581 211.877136,366.879395 207.070755,352.537933 
	C196.189728,320.070770 164.331406,296.894287 130.047577,296.846008 
	C99.382591,296.802826 68.717499,296.836853 38.052448,296.836853 
	C36.439217,296.836853 34.825985,296.836884 32.025787,296.836884 
	C37.641830,290.076141 42.545410,284.129944 47.494846,278.222229 
	C69.639404,251.790070 91.833679,225.399353 113.886368,198.890823 
	C115.831039,196.553223 117.821419,195.813690 120.674171,195.900360 
	C138.214188,196.433273 154.771408,192.857803 169.687988,183.305725 
	C194.268097,167.565491 208.048004,145.058136 208.826096,115.868912 
	C209.656281,84.725746 209.038116,53.543980 209.052048,22.379063 
	C209.052841,20.585695 209.052124,18.792328 209.052124,16.854660 
	C211.369385,17.028067 212.485275,18.631216 213.861343,19.678633 
	C244.729980,43.174629 275.542480,66.744507 306.454102,90.183685 
	C309.129974,92.212715 310.027374,94.348244 310.090149,97.651176 
	C310.374603,112.617981 309.092255,127.644470 311.865417,142.527588 
	C318.136597,176.183853 346.715485,203.393478 380.590790,208.111572 
	C386.071899,208.874969 391.523743,209.141052 397.011932,209.147400 
	C426.010345,209.180969 455.008850,209.163162 484.007324,209.163162 
	C485.602386,209.163162 487.197418,209.163162 489.986847,209.163162 
	C484.200714,215.702393 479.210266,221.382904 474.176300,227.024536 
	C450.547852,253.505127 426.874115,279.945526 403.324066,306.495667 
	C401.043030,309.067261 398.761139,310.192841 395.270752,310.248779 
	C357.433228,310.855286 325.978424,335.144043 315.559631,371.281555 
	C311.922821,383.895721 313.238190,396.723969 312.948273,409.499969 
	C312.925598,410.499481 312.945312,411.499969 312.945312,413.000000 
z"/>
<path fill="#121212" opacity="1.000000" stroke="none" 
	d="
M289.631897,294.705933 
	C257.685242,316.043976 218.870392,296.781128 211.475510,263.937378 
	C205.283051,236.434097 224.031296,207.652237 251.615906,203.084076 
	C281.017242,198.215057 308.040497,218.126694 311.108368,246.822006 
	C313.248474,266.839539 305.797729,282.517059 289.631897,294.705933 
z"/>
</svg>