<svg version="1.1" id="Layer_1" xmlns="http://www.w3.org/2000/svg" xmlns:xlink="http://www.w3.org/1999/xlink" x="0px" y="0px"
	 width="100%" viewBox="0 0 131 133" enable-background="new 0 0 131 133" xml:space="preserve">
<path fill="#D4C17F" opacity="1.000000" stroke="none" 
	d="
M1.000000,19.000000 
	C1.000000,13.016550 1.000000,7.033101 1.000007,1.046731 
	C44.666683,1.043811 88.333351,1.043811 132.000000,1.043811 
	C132.000000,5.408996 132.000000,9.730371 131.534149,14.526111 
	C129.260147,15.000573 127.416359,14.772742 125.651260,15.048540 
	C122.052322,15.610881 118.495781,16.444569 114.625961,17.081806 
	C113.597191,16.629498 112.864235,16.261854 111.932709,15.621780 
	C107.155991,12.566691 102.577835,9.784032 97.746910,6.753094 
	C93.249619,5.319048 89.037743,3.273409 84.754379,3.110798 
	C72.527802,2.646635 60.256836,2.598800 48.036083,3.134420 
	C43.642612,3.326980 39.342491,5.649327 34.635536,7.026970 
	C30.162632,9.688526 26.053957,12.322803 21.659689,15.115017 
	C19.605942,16.560532 17.837790,17.848110 15.774455,18.902605 
	C10.652848,18.779680 5.826424,18.889839 1.000000,19.000000 
z"/>
<path fill="#B19457" opacity="1.000000" stroke="none" 
	d="
M16.069637,19.135689 
	C17.837790,17.848110 19.605942,16.560532 22.033085,15.280279 
	C26.133329,16.199482 29.574583,17.111359 33.171829,18.378851 
	C34.992790,19.157301 36.652176,19.918453 38.323681,19.946075 
	C46.857914,20.087111 55.395271,20.038727 63.944759,20.294046 
	C63.957981,20.531488 63.978081,21.006681 63.769714,21.250978 
	C63.375645,22.323092 63.189938,23.150906 62.959274,24.253077 
	C62.658085,25.006449 62.401859,25.485466 61.793861,25.727205 
	C51.011978,25.335327 40.581707,25.110252 30.151989,25.133577 
	C29.092285,25.135948 28.035923,26.632999 26.800188,27.651648 
	C25.552332,28.904604 24.482298,29.942347 23.057072,31.024584 
	C22.109230,31.713341 21.516582,32.357605 20.734726,33.136047 
	C20.314560,33.483498 20.132412,33.732491 19.996008,34.006035 
	C19.992939,33.994869 20.016052,33.995911 19.800552,34.193832 
	C19.390303,34.934731 19.195557,35.477703 18.995926,36.007874 
	C18.991043,35.995064 19.018000,35.990070 18.803265,36.190411 
	C18.391512,36.935917 18.194494,37.481083 17.995045,38.012817 
	C17.992617,37.999390 18.020477,38.001633 17.764599,38.204033 
	C16.690094,38.838287 15.832381,39.701447 15.059249,39.631374 
	C10.362131,39.205666 5.684282,38.567337 1.000000,38.000000 
	C1.000000,35.299988 1.000000,32.599972 1.433197,29.447302 
	C6.644621,29.824398 10.094388,28.064011 12.485538,23.837017 
	C13.446746,22.137825 14.861376,20.695127 16.069637,19.135689 
z"/>
<path fill="#90723F" opacity="1.000000" stroke="none" 
	d="
M132.000000,74.000000 
	C132.000000,80.687645 132.000000,87.375290 131.531357,94.534866 
	C122.057655,95.004623 113.052589,95.002441 103.918015,94.829865 
	C103.862755,94.105804 103.937004,93.552139 104.297722,92.824150 
	C106.180656,91.267700 107.830696,89.941681 109.356117,88.485161 
	C110.512184,87.381317 111.509407,86.111107 112.577316,84.914940 
	C111.049667,84.274582 109.522018,83.634216 107.988037,82.619247 
	C106.979248,81.152924 105.976799,80.061211 104.974930,78.556053 
	C104.990906,76.765388 105.006310,75.388176 105.385040,74.015244 
	C107.828171,74.369659 109.907974,74.719772 112.212303,74.867111 
	C112.629951,74.104546 112.823067,73.544762 113.003883,72.990143 
	C112.991585,72.995300 112.995964,73.021622 113.230278,72.836456 
	C113.648224,72.096519 113.831856,71.541763 114.003937,70.992081 
	C113.992378,70.997147 114.005295,71.018829 114.266869,70.928520 
	C114.996185,70.546577 115.463936,70.254944 116.374908,69.971283 
	C119.615425,70.480766 122.453995,70.822762 125.197334,71.532684 
	C127.522041,72.134270 129.736664,73.161263 132.000000,74.000000 
z"/>
<path fill="#826133" opacity="1.000000" stroke="none" 
	d="
M1.000000,126.000000 
	C1.000000,123.629440 1.000000,121.258888 1.468657,118.444084 
	C18.509176,117.999763 35.081291,118.045677 51.652653,117.954636 
	C54.434719,117.939354 57.213531,117.331329 59.996704,117.448555 
	C59.989491,125.994644 59.989491,125.996292 51.848663,125.997223 
	C34.899109,125.999161 17.949554,125.999184 1.000000,126.000000 
z"/>
<path fill="#826133" opacity="1.000000" stroke="none" 
	d="
M132.000000,117.000000 
	C132.000000,119.370560 132.000000,121.741112 131.531342,124.555084 
	C114.287781,124.998184 97.512871,124.999413 80.737968,124.996872 
	C73.000938,124.995705 73.000938,124.992371 73.475121,116.997589 
	C93.295357,116.999016 112.647682,116.999504 132.000000,117.000000 
z"/>
<path fill="#76572D" opacity="1.000000" stroke="none" 
	d="
M73.007202,116.996666 
	C73.000938,124.992371 73.000938,124.995705 80.737968,124.996872 
	C97.512871,124.999413 114.287781,124.998184 131.531342,124.999252 
	C132.000000,125.444443 132.000000,125.888893 131.531342,126.666336 
	C111.617722,126.999329 92.172760,126.999329 72.727798,126.999329 
	C72.727592,127.332886 72.727386,127.666443 72.727173,128.000000 
	C92.484787,128.000000 112.242393,128.000000 132.000000,128.000000 
	C132.000000,128.000000 132.000000,128.500000 131.531342,128.751465 
	C111.285233,129.002945 91.507790,129.002945 71.730339,129.002945 
	C71.730186,129.335297 71.730034,129.667648 71.729881,130.000000 
	C91.819923,130.000000 111.909958,130.000000 132.000000,130.000000 
	C132.000000,130.444443 132.000000,130.888901 131.531372,131.661163 
	C112.122269,131.986023 93.181358,131.913696 74.241745,132.038864 
	C70.471313,132.063751 68.619751,130.988922 68.960655,126.951057 
	C69.183418,124.312469 68.984657,121.638306 68.980423,118.521515 
	C69.006447,114.376381 69.026756,110.689812 69.438431,107.003395 
	C70.878601,107.007706 71.927422,107.011864 72.981613,107.261322 
	C72.986984,107.506615 73.007500,107.996902 73.000809,108.397049 
	C72.997398,109.864281 73.000687,110.931381 73.000252,112.415054 
	C73.000084,114.219971 73.003647,115.608322 73.007202,116.996666 
z"/>
<path fill="#8D6B39" opacity="1.000000" stroke="none" 
	d="
M1.000000,113.000000 
	C1.000000,111.611000 1.000000,110.222008 1.468657,108.416946 
	C10.385941,108.001106 18.835720,108.079437 27.282497,107.954582 
	C29.861755,107.916443 32.432755,107.319756 35.000450,106.991608 
	C34.993370,107.004333 34.967907,106.981483 35.438530,106.986832 
	C43.608250,106.991325 51.307350,106.990463 59.264412,106.992012 
	C59.694416,106.998024 59.866459,107.001610 60.035526,107.433083 
	C60.018238,109.572540 60.003925,111.284119 59.521606,112.996498 
	C39.702404,112.998199 20.351202,112.999100 1.000000,113.000000 
z"/>
<path fill="#B19457" opacity="1.000000" stroke="none" 
	d="
M112.131271,15.894210 
	C112.864235,16.261854 113.597191,16.629498 114.809235,17.351051 
	C120.110107,22.352097 122.899269,30.298756 132.000000,28.000000 
	C132.000000,31.030594 132.000000,34.061188 131.541199,37.544846 
	C128.425385,37.990131 125.767906,38.010303 123.111473,37.966618 
	C120.521446,37.924023 119.051987,37.135098 119.743668,33.996708 
	C120.058914,32.566345 119.251190,30.888489 118.952820,29.322889 
	C116.955132,29.908787 114.957458,30.494682 112.678360,30.900520 
	C109.920135,28.318995 107.416389,25.944494 104.975533,23.507019 
	C103.206543,21.740492 101.520905,19.890497 100.185272,17.916279 
	C104.425385,17.134628 108.278328,16.514420 112.131271,15.894210 
z"/>
<path fill="#876535" opacity="1.000000" stroke="none" 
	d="
M73.475121,116.997589 
	C73.003647,115.608322 73.000084,114.219971 73.468460,112.415550 
	C93.293602,111.999649 112.646797,111.999825 132.000000,112.000000 
	C132.000000,113.388893 132.000000,114.777779 132.000000,116.583336 
	C112.647682,116.999504 93.295357,116.999016 73.475121,116.997589 
z"/>
<path fill="#876535" opacity="1.000000" stroke="none" 
	d="
M1.000000,113.416664 
	C20.351202,112.999100 39.702404,112.998199 59.527115,113.396790 
	C59.998367,114.863251 59.996105,115.930222 59.993843,116.997192 
	C57.213531,117.331329 54.434719,117.939354 51.652653,117.954636 
	C35.081291,118.045677 18.509176,117.999763 1.468657,117.999924 
	C1.000000,116.611107 1.000000,115.222221 1.000000,113.416664 
z"/>
<path fill="#8D6B39" opacity="1.000000" stroke="none" 
	d="
M132.000000,111.583336 
	C112.646797,111.999825 93.293602,111.999649 73.472183,111.998978 
	C73.000687,110.931381 72.997398,109.864281 73.468597,108.397415 
	C81.625130,107.665474 89.307198,107.333298 97.458588,107.001953 
	C109.285278,107.001869 120.642639,107.000938 132.000000,107.000000 
	C132.000000,108.388893 132.000000,109.777779 132.000000,111.583336 
z"/>
<path fill="#876535" opacity="1.000000" stroke="none" 
	d="
M59.006447,106.989594 
	C51.307350,106.990463 43.608250,106.991325 35.417721,106.658066 
	C33.895870,105.865318 32.868568,105.016716 31.834545,105.008438 
	C21.556999,104.926147 11.278342,104.982689 1.000000,105.000000 
	C1.000000,104.555557 1.000000,104.111107 1.468651,103.330650 
	C11.041054,102.993179 20.146191,103.067787 29.246954,102.902184 
	C30.505163,102.879288 31.741745,101.667847 32.940910,100.723999 
	C32.595562,99.966209 32.297642,99.491074 31.875843,98.725731 
	C21.501308,98.290352 11.250654,98.145180 1.000000,98.000000 
	C1.000000,97.555557 1.000000,97.111107 1.468657,96.334251 
	C11.061160,96.001839 20.185007,96.001839 29.308855,96.001839 
	C29.445686,95.418510 29.582518,94.835175 29.719349,94.251846 
	C27.815933,92.496094 25.912516,90.740341 24.077515,88.663528 
	C25.103178,87.183365 26.060427,86.024246 27.304428,85.050491 
	C29.390617,86.159645 31.190058,87.083443 33.128071,88.321991 
	C34.187973,90.752022 35.109299,92.867302 36.020363,95.314941 
	C36.012745,96.090218 36.015381,96.533127 36.011299,97.415787 
	C36.016499,99.914696 36.028419,101.973862 36.191299,104.388611 
	C38.004406,105.161903 39.657749,105.893730 41.330292,105.940620 
	C47.222878,106.105782 53.122047,106.035912 59.014763,106.288788 
	C59.010803,106.522377 59.006447,106.989594 59.006447,106.989594 
z"/>
<path fill="#9C7E48" opacity="1.000000" stroke="none" 
	d="
M1.000000,59.000000 
	C1.000000,57.933212 1.000000,56.866425 1.409621,55.317627 
	C5.938659,54.556873 10.058571,54.285194 14.177363,53.997513 
	C18.776112,53.676308 23.373846,53.340565 28.207760,53.021477 
	C28.443497,53.031796 28.915020,53.051392 29.112188,53.323399 
	C32.884632,56.392345 36.459911,59.189285 39.564659,61.990005 
	C31.761395,62.336330 24.428665,62.678875 17.001694,62.669579 
	C15.353100,61.509819 17.915045,55.846893 12.661677,59.228363 
	C8.894554,59.640209 5.464743,59.827660 1.886648,59.822147 
	C1.520571,59.386211 1.274449,59.176483 1.000000,59.000000 
z"/>
<path fill="#876535" opacity="1.000000" stroke="none" 
	d="
M132.000000,106.750000 
	C120.642639,107.000938 109.285278,107.001869 97.457825,106.645706 
	C96.668152,105.190239 96.348572,104.091866 96.024536,102.585152 
	C96.353508,99.790550 96.686943,97.404289 97.139801,94.722137 
	C97.541695,93.625885 97.824181,92.825531 98.484367,92.024872 
	C100.578461,92.349213 102.294861,92.673843 104.011253,92.998474 
	C103.937004,93.552139 103.862755,94.105804 103.833672,95.108032 
	C103.432060,96.198074 102.985283,96.839546 102.177040,98.000000 
	C112.390816,98.000000 122.195412,98.000000 132.000000,98.000000 
	C132.000000,98.000000 132.000000,98.500000 131.531342,98.748138 
	C121.319313,98.996284 111.575943,98.996284 101.832581,98.996284 
	C101.836037,99.330856 101.839493,99.665428 101.842957,100.000000 
	C111.895302,100.000000 121.947655,100.000000 132.000000,100.000000 
	C132.000000,100.000000 132.000000,100.500000 131.531342,100.748535 
	C120.946251,100.997070 110.829811,100.997070 100.713379,100.997070 
	C100.712944,101.331383 100.712502,101.665688 100.712067,102.000000 
	C111.141380,102.000000 121.570686,102.000000 132.000000,102.000000 
	C132.000000,102.444443 132.000000,102.888893 131.531342,103.665543 
	C120.422562,103.997742 109.782433,103.997742 99.142311,103.997742 
	C99.141785,104.665161 99.141258,105.332581 99.140724,106.000000 
	C110.093819,106.000000 121.046906,106.000000 132.000000,106.000000 
	C132.000000,106.000000 132.000000,106.500000 132.000000,106.750000 
z"/>
<path fill="#A1834B" opacity="1.000000" stroke="none" 
	d="
M27.972021,53.011154 
	C23.373846,53.340565 18.776112,53.676308 14.177363,53.997513 
	C10.058571,54.285194 5.938659,54.556873 1.409621,54.917809 
	C1.000000,52.629444 1.000000,50.258884 1.259930,47.194954 
	C4.636794,45.120018 7.705622,43.603870 10.907342,42.459534 
	C11.631257,42.200798 12.922187,43.094242 13.759281,43.716656 
	C14.498792,44.266514 14.819034,45.428799 15.584107,45.887627 
	C19.668465,48.337086 23.834339,50.650612 27.972021,53.011154 
z"/>
<path fill="#987A45" opacity="1.000000" stroke="none" 
	d="
M132.000000,73.532394 
	C129.736664,73.161263 127.522041,72.134270 125.197334,71.532684 
	C122.453995,70.822762 119.615425,70.480766 116.396828,69.608353 
	C116.008568,68.508728 116.041626,67.779991 116.356667,66.840881 
	C117.766159,63.423527 118.893654,60.216564 120.480461,57.007141 
	C124.626518,57.003124 128.313263,57.001560 132.000000,57.000000 
	C132.000000,62.354931 132.000000,67.709862 132.000000,73.532394 
z"/>
<path fill="#76572D" opacity="1.000000" stroke="none" 
	d="
M59.996704,117.448555 
	C59.996105,115.930222 59.998367,114.863251 59.995121,113.395988 
	C60.003925,111.284119 60.018238,109.572540 60.426407,107.432449 
	C61.865147,107.003670 62.910034,107.003395 63.957661,107.463440 
	C63.982025,111.609200 64.003654,115.294640 64.016205,119.437561 
	C63.673580,123.598854 63.340034,127.302658 63.002949,131.002945 
	C62.999405,130.999435 62.993267,130.993896 62.939293,130.714462 
	C62.590431,129.959915 62.295536,129.484787 61.874847,128.721085 
	C61.155727,128.237015 60.562218,127.870224 59.969105,127.870872 
	C40.312714,127.892197 20.656359,127.948685 1.000000,128.000000 
	C1.000000,127.555557 1.000000,127.111107 1.000000,126.333328 
	C17.949554,125.999184 34.899109,125.999161 51.848663,125.997223 
	C59.989491,125.996292 59.989491,125.994644 59.996704,117.448555 
z"/>
<path fill="#876535" opacity="1.000000" stroke="none" 
	d="
M63.006493,131.006454 
	C63.340034,127.302658 63.673580,123.598854 64.428268,119.443665 
	C66.224510,118.988213 67.599617,118.984138 68.974716,118.980072 
	C68.984657,121.638306 69.183418,124.312469 68.960655,126.951057 
	C68.619751,130.988922 70.471313,132.063751 74.241745,132.038864 
	C93.181358,131.913696 112.122269,131.986023 131.531372,131.994492 
	C132.610580,135.042206 130.300446,133.965042 129.030960,133.967682 
	C107.333145,134.012695 85.635216,134.000000 63.461979,133.625763 
	C62.993259,132.503159 62.999874,131.754807 63.006493,131.006454 
z"/>
<path fill="#76572D" opacity="1.000000" stroke="none" 
	d="
M63.002945,131.002945 
	C62.999874,131.754807 62.993259,132.503159 62.993320,133.625763 
	C42.979103,134.000000 22.958210,134.000000 2.331969,133.805405 
	C1.511012,133.375565 1.268804,133.171967 1.000000,133.000000 
	C1.000000,132.555557 1.000000,132.111099 1.468651,131.330536 
	C22.289289,130.994247 42.641277,130.994064 62.993267,130.993896 
	C62.993267,130.993896 62.999405,130.999435 63.002945,131.002945 
z"/>
<path fill="#987A45" opacity="1.000000" stroke="none" 
	d="
M2.034932,60.015106 
	C5.464743,59.827660 8.894554,59.640209 12.899752,59.491005 
	C14.655030,63.017841 15.834924,66.506432 16.560743,69.996094 
	C13.035620,69.997169 9.964568,69.997169 6.702151,69.997169 
	C6.927988,72.033783 7.061942,73.241791 7.256907,75.000000 
	C4.912322,75.000000 2.956161,75.000000 1.000000,75.000000 
	C1.000000,70.643097 1.000000,66.286201 1.193722,61.323753 
	C1.638027,60.515850 1.853857,60.281483 2.034932,60.015106 
z"/>
<path fill="#8C6E3C" opacity="1.000000" stroke="none" 
	d="
M27.017675,84.865135 
	C26.060427,86.024246 25.103178,87.183365 23.732288,88.894379 
	C15.879098,89.630859 8.439549,89.815430 1.000000,90.000000 
	C1.000000,89.250000 1.000000,88.500000 1.466144,87.375397 
	C7.136315,86.286667 12.860466,88.707405 18.532467,84.451775 
	C12.373900,80.945930 6.561622,82.325142 1.000000,82.000000 
	C1.000000,81.555557 1.000000,81.111107 1.464234,80.333450 
	C8.926452,79.670105 15.924436,79.339958 23.123365,79.259369 
	C24.213106,80.013794 25.101902,80.518669 25.995132,81.013725 
	C25.999567,81.003906 25.991747,81.030022 25.970119,81.368195 
	C26.304888,82.759293 26.661282,83.812210 27.017675,84.865135 
z"/>
<path fill="#CFBC77" opacity="1.000000" stroke="none" 
	d="
M132.000000,27.536816 
	C122.899269,30.298756 120.110107,22.352097 115.105042,17.435713 
	C118.495781,16.444569 122.052322,15.610881 125.651260,15.048540 
	C127.416359,14.772742 129.260147,15.000573 131.534149,15.000238 
	C132.000000,19.024544 132.000000,23.049089 132.000000,27.536816 
z"/>
<path fill="#90723F" opacity="1.000000" stroke="none" 
	d="
M1.000000,90.428467 
	C8.439549,89.815430 15.879098,89.630859 23.663874,89.215439 
	C25.912516,90.740341 27.815933,92.496094 29.719349,94.251846 
	C29.582518,94.835175 29.445686,95.418510 29.308855,96.001839 
	C20.185007,96.001839 11.061160,96.001839 1.468657,96.000916 
	C1.000000,94.285645 1.000000,92.571281 1.000000,90.428467 
z"/>
<path fill="#A1834B" opacity="1.000000" stroke="none" 
	d="
M132.000000,56.545891 
	C128.313263,57.001560 124.626518,57.003124 120.471420,56.571861 
	C119.714615,53.423031 119.426170,50.707024 119.111794,47.571129 
	C119.125099,45.490452 119.164330,43.829666 119.571045,42.168388 
	C123.959015,43.778595 127.979507,45.389297 132.000000,47.000000 
	C132.000000,50.030594 132.000000,53.061188 132.000000,56.545891 
z"/>
<path fill="#90723F" opacity="1.000000" stroke="none" 
	d="
M22.922421,79.009819 
	C15.924436,79.339958 8.926452,79.670105 1.464234,80.000122 
	C1.000000,78.611107 1.000000,77.222221 1.000000,75.416664 
	C2.956161,75.000000 4.912322,75.000000 7.256907,75.000000 
	C7.061942,73.241791 6.927988,72.033783 6.702151,69.997169 
	C9.964568,69.997169 13.035620,69.997169 16.733356,70.283966 
	C19.214169,73.383781 21.068295,76.196800 22.922421,79.009819 
z"/>
<path fill="#C6B36A" opacity="1.000000" stroke="none" 
	d="
M28.207760,53.021477 
	C23.834339,50.650612 19.668465,48.337086 15.584107,45.887627 
	C14.819034,45.428799 14.498792,44.266514 13.759281,43.716656 
	C12.922187,43.094242 11.631257,42.200798 10.907342,42.459534 
	C7.705622,43.603870 4.636794,45.120018 1.259930,46.750786 
	C1.000000,44.299988 1.000000,41.599972 1.000000,38.449982 
	C5.684282,38.567337 10.362131,39.205666 15.059249,39.631374 
	C15.832381,39.701447 16.690094,38.838287 17.768171,38.600395 
	C17.724760,41.889050 18.504690,44.306202 22.131945,45.336098 
	C25.243797,48.073112 28.170437,50.531609 30.733662,52.996384 
	C29.885172,53.018902 29.400097,53.035149 28.915020,53.051392 
	C28.915020,53.051392 28.443497,53.031796 28.207760,53.021477 
z"/>
<path fill="#CFBC77" opacity="1.000000" stroke="none" 
	d="
M15.774455,18.902605 
	C14.861376,20.695127 13.446746,22.137825 12.485538,23.837017 
	C10.094388,28.064011 6.644621,29.824398 1.433197,28.997322 
	C1.000000,25.969406 1.000000,22.938814 1.000000,19.454109 
	C5.826424,18.889839 10.652848,18.779680 15.774455,18.902605 
z"/>
<path fill="#967743" opacity="1.000000" stroke="none" 
	d="
M132.000000,97.625000 
	C122.195412,98.000000 112.390816,98.000000 102.177040,98.000000 
	C102.985283,96.839546 103.432060,96.198074 103.963188,95.278435 
	C113.052589,95.002441 122.057655,95.004623 131.531357,95.003403 
	C132.000000,95.750000 132.000000,96.500000 132.000000,97.625000 
z"/>
<path fill="#AA8C51" opacity="1.000000" stroke="none" 
	d="
M112.959778,31.080578 
	C114.957458,30.494682 116.955132,29.908787 118.952820,29.322889 
	C119.251190,30.888489 120.058914,32.566345 119.743668,33.996708 
	C119.051987,37.135098 120.521446,37.924023 123.111473,37.966618 
	C125.767906,38.010303 128.425385,37.990131 131.541199,37.998955 
	C132.000000,38.444447 132.000000,38.888889 131.533905,39.663853 
	C128.245819,39.993465 125.353294,40.376278 122.623413,39.874413 
	C120.295914,39.446529 118.155457,38.001289 115.815430,36.695080 
	C114.785667,34.616230 113.872726,32.848404 112.959778,31.080578 
z"/>
<path fill="#90723F" opacity="1.000000" stroke="none" 
	d="
M1.000000,82.416664 
	C6.561622,82.325142 12.373900,80.945930 18.532467,84.451775 
	C12.860466,88.707405 7.136315,86.286667 1.466144,87.000397 
	C1.000000,85.611107 1.000000,84.222221 1.000000,82.416664 
z"/>
<path fill="#9C7E48" opacity="1.000000" stroke="none" 
	d="
M1.000000,105.333328 
	C11.278342,104.982689 21.556999,104.926147 31.834545,105.008438 
	C32.868568,105.016716 33.895870,105.865318 34.947098,106.652710 
	C34.967907,106.981483 34.993370,107.004333 34.530724,106.998108 
	C23.045382,106.994583 12.022691,106.997292 1.000000,107.000000 
	C1.000000,106.555557 1.000000,106.111107 1.000000,105.333328 
z"/>
<path fill="#9C7E48" opacity="1.000000" stroke="none" 
	d="
M132.000000,105.666672 
	C121.046906,106.000000 110.093819,106.000000 99.140724,106.000000 
	C99.141258,105.332581 99.141785,104.665161 99.142311,103.997742 
	C109.782433,103.997742 120.422562,103.997742 131.531342,103.998871 
	C132.000000,104.444443 132.000000,104.888893 132.000000,105.666672 
z"/>
<path fill="#C4AE6A" opacity="1.000000" stroke="none" 
	d="
M115.932251,37.006104 
	C118.155457,38.001289 120.295914,39.446529 122.623413,39.874413 
	C125.353294,40.376278 128.245819,39.993465 131.533905,39.997185 
	C132.000000,42.041668 132.000000,44.083332 132.000000,46.562500 
	C127.979507,45.389297 123.959015,43.778595 119.500961,42.113037 
	C119.063393,42.058182 118.928543,41.951756 118.802811,41.775143 
	C118.484055,41.369728 118.245644,41.207657 117.596268,41.094822 
	C116.499405,41.044617 115.768127,41.011902 114.980011,40.639938 
	C114.622429,39.196423 114.321693,38.092159 114.339775,36.990753 
	C115.083145,36.997768 115.507698,37.001934 115.932251,37.006104 
z"/>
<path fill="#876535" opacity="1.000000" stroke="none" 
	d="
M62.939293,130.714462 
	C42.641277,130.994064 22.289289,130.994247 1.468651,130.997208 
	C1.000000,131.000000 1.000000,130.500000 1.468656,130.251465 
	C19.876299,130.003555 37.815426,130.036987 55.754086,129.960480 
	C57.840961,129.951569 59.925247,129.334335 62.005814,128.999054 
	C62.000896,128.998978 62.000641,129.009674 62.000641,129.009674 
	C62.295536,129.484787 62.590431,129.959915 62.939293,130.714462 
z"/>
<path fill="#826133" opacity="1.000000" stroke="none" 
	d="
M1.000000,128.250000 
	C20.656359,127.948685 40.312714,127.892197 59.969105,127.870872 
	C60.562218,127.870224 61.155727,128.237015 61.874847,128.721085 
	C62.000641,129.009674 62.000896,128.998978 61.535957,128.999542 
	C41.047348,129.000061 21.023674,129.000031 1.000000,129.000000 
	C1.000000,129.000000 1.000000,128.500000 1.000000,128.250000 
z"/>
<path fill="#876535" opacity="1.000000" stroke="none" 
	d="
M132.000000,129.750000 
	C111.909958,130.000000 91.819923,130.000000 71.729881,130.000000 
	C71.730034,129.667648 71.730186,129.335297 71.730339,129.002945 
	C91.507790,129.002945 111.285233,129.002945 131.531342,129.001465 
	C132.000000,129.000000 132.000000,129.500000 132.000000,129.750000 
z"/>
<path fill="#76572D" opacity="1.000000" stroke="none" 
	d="
M1.000000,129.250000 
	C21.023674,129.000031 41.047348,129.000061 61.540878,128.999603 
	C59.925247,129.334335 57.840961,129.951569 55.754086,129.960480 
	C37.815426,130.036987 19.876299,130.003555 1.468656,130.001465 
	C1.000000,130.000000 1.000000,129.500000 1.000000,129.250000 
z"/>
<path fill="#826133" opacity="1.000000" stroke="none" 
	d="
M132.000000,127.750000 
	C112.242393,128.000000 92.484787,128.000000 72.727173,128.000000 
	C72.727386,127.666443 72.727592,127.332886 72.727798,126.999329 
	C92.172760,126.999329 111.617722,126.999329 131.531342,126.999664 
	C132.000000,127.000000 132.000000,127.500000 132.000000,127.750000 
z"/>
<path fill="#987A45" opacity="1.000000" stroke="none" 
	d="
M32.988338,101.006645 
	C31.741745,101.667847 30.505163,102.879288 29.246954,102.902184 
	C20.146191,103.067787 11.041054,102.993179 1.468651,102.997314 
	C1.000000,103.000000 1.000000,102.500000 1.468656,102.248535 
	C9.058365,101.996475 16.181519,102.097221 23.299530,101.949768 
	C26.543240,101.882576 29.776796,101.325134 33.009377,100.994965 
	C33.003796,100.999878 32.988338,101.006645 32.988338,101.006645 
z"/>
<path fill="#826133" opacity="1.000000" stroke="none" 
	d="
M1.000000,107.250000 
	C12.022691,106.997292 23.045382,106.994583 34.537804,106.985374 
	C32.432755,107.319756 29.861755,107.916443 27.282497,107.954582 
	C18.835720,108.079437 10.385941,108.001106 1.468657,108.000443 
	C1.000000,108.000000 1.000000,107.500000 1.000000,107.250000 
z"/>
<path fill="#987A45" opacity="1.000000" stroke="none" 
	d="
M132.000000,101.750000 
	C121.570686,102.000000 111.141380,102.000000 100.712067,102.000000 
	C100.712502,101.665688 100.712944,101.331383 100.713379,100.997070 
	C110.829811,100.997070 120.946251,100.997070 131.531342,100.998535 
	C132.000000,101.000000 132.000000,101.500000 132.000000,101.750000 
z"/>
<path fill="#9C7E48" opacity="1.000000" stroke="none" 
	d="
M31.999723,99.015930 
	C32.297642,99.491074 32.595562,99.966209 32.940910,100.723999 
	C32.988338,101.006645 33.003796,100.999878 32.538971,100.999992 
	C21.716101,101.000076 11.358050,101.000038 1.000000,101.000000 
	C1.000000,101.000000 1.000000,100.500000 1.468655,100.248138 
	C8.064195,99.995537 14.194225,100.113480 20.316830,99.951195 
	C24.223457,99.847641 28.119087,99.329239 32.011261,98.996918 
	C32.002876,98.997002 31.999723,99.015930 31.999723,99.015930 
z"/>
<path fill="#967743" opacity="1.000000" stroke="none" 
	d="
M1.000000,98.250000 
	C11.250654,98.145180 21.501308,98.290352 31.875843,98.725731 
	C31.999723,99.015930 32.002876,98.997002 31.540436,98.998543 
	C21.051998,99.000061 11.025999,99.000031 1.000000,99.000000 
	C1.000000,99.000000 1.000000,98.500000 1.000000,98.250000 
z"/>
<path fill="#9C7E48" opacity="1.000000" stroke="none" 
	d="
M132.000000,99.750000 
	C121.947655,100.000000 111.895302,100.000000 101.842957,100.000000 
	C101.839493,99.665428 101.836037,99.330856 101.832581,98.996284 
	C111.575943,98.996284 121.319313,98.996284 131.531342,98.998138 
	C132.000000,99.000000 132.000000,99.500000 132.000000,99.750000 
z"/>
<path fill="#876535" opacity="1.000000" stroke="none" 
	d="
M1.000000,101.250000 
	C11.358050,101.000038 21.716101,101.000076 32.544556,100.995087 
	C29.776796,101.325134 26.543240,101.882576 23.299530,101.949768 
	C16.181519,102.097221 9.058365,101.996475 1.468656,101.998535 
	C1.000000,102.000000 1.000000,101.500000 1.000000,101.250000 
z"/>
<path fill="#876535" opacity="1.000000" stroke="none" 
	d="
M1.000000,99.250000 
	C11.025999,99.000031 21.051998,99.000061 31.548824,98.998459 
	C28.119087,99.329239 24.223457,99.847641 20.316830,99.951195 
	C14.194225,100.113480 8.064195,99.995537 1.468655,99.998138 
	C1.000000,100.000000 1.000000,99.500000 1.000000,99.250000 
z"/>
<path fill="#A1834B" opacity="1.000000" stroke="none" 
	d="
M1.886648,59.822144 
	C1.853857,60.281483 1.638027,60.515850 1.193722,60.859104 
	C1.000000,60.555553 1.000000,60.111111 1.000000,59.333332 
	C1.274449,59.176483 1.520571,59.386211 1.886648,59.822144 
z"/>
<path fill="#876535" opacity="1.000000" stroke="none" 
	d="
M1.000000,133.500000 
	C1.268804,133.171967 1.511012,133.375565 1.863312,133.805405 
	C1.666667,134.000000 1.333333,134.000000 1.000000,133.500000 
z"/>
<path fill="#B6985A" opacity="1.000000" stroke="none" 
	d="
M111.932709,15.621780 
	C108.278328,16.514420 104.425385,17.134628 99.738724,17.898853 
	C87.288345,18.046633 75.671677,18.050394 63.581131,18.040859 
	C53.076782,18.026119 43.046310,18.024677 33.015839,18.023235 
	C29.574583,17.111359 26.133329,16.199482 22.318680,15.122343 
	C26.053957,12.322803 30.162632,9.688526 34.787083,7.288904 
	C35.872299,8.354815 36.441738,9.186069 37.131813,10.326370 
	C37.648590,10.898379 38.046013,11.393153 38.440693,11.390973 
	C55.870686,11.294646 73.300751,11.181871 90.729713,10.977493 
	C92.485603,10.956903 94.234627,10.350560 96.138290,9.754173 
	C96.859718,8.661987 97.429703,7.831679 97.999680,7.001372 
	C102.577835,9.784032 107.155991,12.566691 111.932709,15.621780 
M52.501358,14.997041 
	C46.902973,14.997041 41.304592,14.997041 35.706207,14.997041 
	C35.710400,15.245925 35.714592,15.494810 35.718781,15.743694 
	C56.239861,15.743694 76.760933,15.743694 97.282013,15.743694 
	C97.283600,15.494805 97.285187,15.245916 97.286781,14.997027 
	C82.691460,14.997027 68.096138,14.997027 52.501358,14.997041 
M76.499771,12.999542 
	C63.234852,12.999542 49.969936,12.999542 36.705017,12.999542 
	C36.706936,13.247313 36.708855,13.495085 36.710770,13.742856 
	C56.569992,13.742856 76.429214,13.742856 96.288429,13.742856 
	C96.291306,13.495085 96.294174,13.247313 96.297043,12.999541 
	C90.031219,12.999541 83.765404,12.999541 76.499771,12.999542 
z"/>
<path fill="#BB9D5E" opacity="1.000000" stroke="none" 
	d="
M97.746910,6.753094 
	C97.429703,7.831679 96.859718,8.661987 95.671150,9.750271 
	C75.705429,10.011272 56.358303,10.014298 37.011177,10.017324 
	C36.441738,9.186069 35.872299,8.354815 35.151314,7.261626 
	C39.342491,5.649327 43.642612,3.326980 48.036083,3.134420 
	C60.256836,2.598800 72.527802,2.646635 84.754379,3.110798 
	C89.037743,3.273409 93.249619,5.319048 97.746910,6.753094 
z"/>
<path fill="#CFBC77" opacity="1.000000" stroke="none" 
	d="
M64.055008,18.054155 
	C75.671677,18.050394 87.288345,18.046633 99.351562,18.060295 
	C101.520905,19.890497 103.206543,21.740492 104.975533,23.507019 
	C107.416389,25.944494 109.920135,28.318995 112.678368,30.900520 
	C113.872726,32.848404 114.785667,34.616230 115.815430,36.695080 
	C115.507698,37.001934 115.083145,36.997768 114.105820,36.755512 
	C110.736397,33.361382 107.919746,30.205343 104.886711,27.171267 
	C104.402153,27.492050 104.178055,27.732021 103.529610,28.011276 
	C92.714958,27.996899 82.368721,27.984392 71.863800,27.693665 
	C71.129936,26.291813 70.554771,25.168179 70.318626,23.802948 
	C80.184258,23.561352 89.710861,23.561352 99.237465,23.561352 
	C99.237656,22.709795 99.237846,21.858238 99.238045,21.006681 
	C87.484718,21.006681 75.731400,21.006681 63.978081,21.006681 
	C63.978081,21.006681 63.957981,20.531488 63.968536,19.959623 
	C64.004402,18.943224 64.029701,18.498690 64.055008,18.054155 
z"/>
<path fill="#C0A966" opacity="1.000000" stroke="none" 
	d="
M63.769714,21.250978 
	C75.731400,21.006681 87.484718,21.006681 99.238045,21.006681 
	C99.237846,21.858238 99.237656,22.709795 99.237465,23.561352 
	C89.710861,23.561352 80.184258,23.561352 70.088005,24.135590 
	C69.362526,28.813089 69.206696,32.916351 69.034821,37.443642 
	C68.993896,39.566441 68.969017,41.265217 68.537758,42.971802 
	C66.771271,42.975784 65.411163,42.971962 64.040436,42.544006 
	C64.003426,40.419624 63.977028,38.719372 63.967773,36.557854 
	C63.658020,32.057304 63.331127,28.018011 63.004234,23.978720 
	C63.189938,23.150906 63.375645,22.323092 63.769714,21.250978 
z"/>
<path fill="#AA8C51" opacity="1.000000" stroke="none" 
	d="
M21.946732,45.057583 
	C18.504690,44.306202 17.724760,41.889050 18.024052,38.397995 
	C18.020477,38.001633 17.992617,37.999390 18.219336,37.819427 
	C18.636703,37.089668 18.827353,36.539871 19.018002,35.990070 
	C19.018000,35.990070 18.991043,35.995064 19.225080,35.819702 
	C19.644764,35.094868 19.830408,34.545387 20.016052,33.995911 
	C20.016052,33.995911 19.992939,33.994869 20.278893,33.976654 
	C21.006516,33.625259 21.448185,33.292084 22.056347,32.697319 
	C22.619318,31.950518 23.015793,31.465305 23.412266,30.980091 
	C24.482298,29.942347 25.552332,28.904604 27.022285,27.533464 
	C27.422205,27.200069 27.904425,27.068130 27.927387,27.504210 
	C27.988539,30.288504 28.026726,32.636719 28.045837,35.384026 
	C28.332233,37.533016 28.637703,39.282925 28.971462,41.348267 
	C29.049957,42.082344 29.100166,42.500988 28.748873,42.936508 
	C26.213825,43.654789 24.080278,44.356186 21.946732,45.057583 
z"/>
<path fill="#CFBC77" opacity="1.000000" stroke="none" 
	d="
M27.904425,27.068130 
	C27.904425,27.068130 27.422205,27.200069 27.200108,27.318253 
	C28.035923,26.632999 29.092285,25.135948 30.151989,25.133577 
	C40.581707,25.110252 51.011978,25.335327 61.640881,25.975502 
	C61.525684,26.945629 61.211708,27.430183 60.520760,27.765911 
	C49.397335,27.434101 38.650879,27.251116 27.904425,27.068130 
z"/>
<path fill="#C0A966" opacity="1.000000" stroke="none" 
	d="
M63.581131,18.040859 
	C64.029701,18.498690 64.004402,18.943224 63.955315,19.722181 
	C55.395271,20.038727 46.857914,20.087111 38.323681,19.946075 
	C36.652176,19.918453 34.992790,19.157301 33.171829,18.378851 
	C43.046310,18.024677 53.076782,18.026119 63.581131,18.040859 
z"/>
<path fill="#AA8C51" opacity="1.000000" stroke="none" 
	d="
M60.897728,27.914738 
	C61.211708,27.430183 61.525684,26.945629 61.992645,26.212780 
	C62.401859,25.485466 62.658085,25.006449 62.959274,24.253077 
	C63.331127,28.018011 63.658020,32.057304 63.618370,36.555519 
	C62.550293,37.024178 61.848763,37.033913 61.100735,36.701561 
	C61.015957,35.901623 60.977680,35.443768 60.953926,34.546429 
	C60.944881,32.042873 60.921307,29.978807 60.897728,27.914738 
z"/>
<path fill="#CFBC77" opacity="1.000000" stroke="none" 
	d="
M23.057072,31.024586 
	C23.015793,31.465305 22.619318,31.950518 21.815256,32.707024 
	C21.407669,32.978313 20.923933,33.001869 20.923935,33.001869 
	C21.516582,32.357605 22.109230,31.713341 23.057072,31.024586 
z"/>
<path fill="#C6B36A" opacity="1.000000" stroke="none" 
	d="
M18.803267,36.190411 
	C18.827353,36.539871 18.636703,37.089668 18.221764,37.832859 
	C18.194494,37.481083 18.391512,36.935917 18.803267,36.190411 
z"/>
<path fill="#C6B36A" opacity="1.000000" stroke="none" 
	d="
M19.800552,34.193832 
	C19.830408,34.545387 19.644764,35.094868 19.229965,35.832512 
	C19.195557,35.477703 19.390303,34.934731 19.800552,34.193832 
z"/>
<path fill="#C6B36A" opacity="1.000000" stroke="none" 
	d="
M20.734726,33.136047 
	C20.923933,33.001869 21.407669,32.978313 21.648762,32.968613 
	C21.448185,33.292084 21.006516,33.625259 20.281961,33.987816 
	C20.132412,33.732491 20.314560,33.483498 20.734726,33.136047 
z"/>
<path fill="#8D6B39" opacity="1.000000" stroke="none" 
	d="
M104.297722,92.824150 
	C102.294861,92.673843 100.578461,92.349213 98.594315,91.717377 
	C98.585930,90.581573 98.845299,89.752975 99.293198,88.679443 
	C99.655014,87.628311 99.828300,86.822121 100.370819,86.011253 
	C102.498726,85.004921 104.257423,84.003273 106.262466,83.000557 
	C106.508820,82.999489 107.001534,82.996765 107.249748,82.997223 
	C107.497963,82.997673 107.994370,82.993851 107.994370,82.993851 
	C109.522018,83.634216 111.049667,84.274582 112.577316,84.914940 
	C111.509407,86.111107 110.512184,87.381317 109.356117,88.485161 
	C107.830696,89.941681 106.180656,91.267700 104.297722,92.824150 
z"/>
<path fill="#967743" opacity="1.000000" stroke="none" 
	d="
M111.987770,75.069885 
	C109.907974,74.719772 107.828171,74.369659 105.374565,73.649979 
	C104.330597,71.858032 103.660446,70.435638 103.114769,68.664841 
	C107.513084,64.737106 111.169556,65.030754 113.168533,69.346428 
	C113.523636,70.065079 113.764465,70.541954 114.005295,71.018829 
	C114.005295,71.018829 113.992378,70.997147 113.781662,71.186340 
	C113.379280,71.924225 113.187622,72.472923 112.995972,73.021622 
	C112.995964,73.021622 112.991585,72.995300 112.781906,73.191101 
	C112.377411,73.947899 112.182587,74.508888 111.987770,75.069885 
z"/>
<path fill="#A1834B" opacity="1.000000" stroke="none" 
	d="
M102.990288,69.013252 
	C103.660446,70.435638 104.330597,71.858032 105.011230,73.645691 
	C105.006310,75.388176 104.990906,76.765388 104.984940,78.565369 
	C104.994370,78.988129 104.980316,78.975922 104.744659,78.970642 
	C104.509003,78.965363 104.037369,78.967606 104.028091,78.726425 
	C104.018806,78.485252 104.004578,78.002747 103.955322,77.611595 
	C102.481682,76.483154 101.130432,75.438950 99.616333,75.078102 
	C97.135872,74.486961 94.549561,74.340027 92.464493,74.003601 
	C96.246582,74.001465 99.572060,74.001465 102.897545,74.001465 
	C102.859818,73.436745 102.822098,72.872032 102.784370,72.307312 
	C100.117584,72.080231 97.450790,71.853142 94.141701,71.571373 
	C95.088486,70.288292 95.553360,69.658295 96.454208,69.026337 
	C98.923553,69.020668 100.956917,69.016960 102.990288,69.013252 
z"/>
<path fill="#967743" opacity="1.000000" stroke="none" 
	d="
M107.988037,82.619247 
	C107.994370,82.993851 107.497963,82.997673 106.904419,82.769875 
	C100.440498,82.261330 94.570122,81.980576 88.699738,81.699829 
	C92.609459,80.993790 96.539619,81.180717 100.436401,80.901535 
	C101.989052,80.790291 103.467880,79.648544 104.980316,78.975922 
	C104.980316,78.975922 104.994370,78.988129 104.984360,78.978813 
	C105.976799,80.061211 106.979248,81.152924 107.988037,82.619247 
z"/>
<path fill="#B6985A" opacity="1.000000" stroke="none" 
	d="
M114.266869,70.928520 
	C113.764465,70.541954 113.523636,70.065079 113.456924,69.248169 
	C114.402580,68.260384 115.174126,67.612633 115.977890,66.986534 
	C116.010101,67.008186 116.074677,67.051262 116.074677,67.051262 
	C116.041626,67.779991 116.008568,68.508728 115.953598,69.600388 
	C115.463936,70.254944 114.996185,70.546577 114.266869,70.928520 
z"/>
<path fill="#B6985A" opacity="1.000000" stroke="none" 
	d="
M112.212303,74.867111 
	C112.182587,74.508888 112.377411,73.947899 112.794205,73.185944 
	C112.823067,73.544762 112.629951,74.104546 112.212303,74.867111 
z"/>
<path fill="#B6985A" opacity="1.000000" stroke="none" 
	d="
M113.230286,72.836456 
	C113.187622,72.472923 113.379280,71.924225 113.793213,71.181267 
	C113.831856,71.541763 113.648224,72.096519 113.230286,72.836456 
z"/>
<path fill="#90723F" opacity="1.000000" stroke="none" 
	d="
M96.028992,102.993484 
	C96.348572,104.091866 96.668152,105.190239 96.988495,106.644867 
	C89.307198,107.333298 81.625130,107.665474 73.475281,107.997276 
	C73.007500,107.996902 72.986984,107.506615 72.991409,106.857620 
	C73.007484,105.135025 73.019119,104.061417 73.496262,102.991562 
	C81.317505,102.994698 88.673256,102.994095 96.028992,102.993484 
z"/>
<path fill="#90723F" opacity="1.000000" stroke="none" 
	d="
M68.980423,118.521507 
	C67.599617,118.984138 66.224510,118.988213 64.437347,118.986176 
	C64.003654,115.294640 63.982025,111.609200 63.979958,107.462814 
	C63.999519,107.001869 64.043526,107.003319 64.452660,107.002060 
	C66.226685,107.001640 67.591583,107.002480 68.979004,107.002655 
	C69.001541,107.001976 69.047066,107.003242 69.047066,107.003242 
	C69.026756,110.689812 69.006447,114.376381 68.980423,118.521507 
z"/>
<path fill="#826133" opacity="1.000000" stroke="none" 
	d="
M73.030762,102.987816 
	C73.019119,104.061417 73.007484,105.135025 72.986038,106.612320 
	C71.927422,107.011864 70.878601,107.007706 69.438431,107.003395 
	C69.047066,107.003242 69.001541,107.001976 68.990356,106.539963 
	C68.977707,102.047226 68.976242,98.016495 68.983521,93.656830 
	C69.001762,92.889275 69.011246,92.450645 69.359962,92.026016 
	C70.797676,92.692276 71.896164,93.344543 72.992500,94.446777 
	C73.003822,97.593773 73.017296,100.290794 73.030762,102.987816 
z"/>
<path fill="#826133" opacity="1.000000" stroke="none" 
	d="
M63.977219,107.002495 
	C62.910034,107.003395 61.865147,107.003670 60.429382,107.004578 
	C59.866459,107.001610 59.694416,106.998024 59.264412,106.992012 
	C59.006447,106.989594 59.010803,106.522377 59.022224,105.939209 
	C59.031967,104.890686 59.030289,104.425339 59.023666,103.735168 
	C59.018719,103.510361 59.007324,103.060760 59.231194,102.722450 
	C59.636963,99.589203 59.818863,96.794273 60.125351,93.677208 
	C61.491562,92.908318 62.733185,92.461563 63.982414,92.343414 
	C64.001755,93.109947 64.013496,93.547852 64.013077,94.448822 
	C64.015114,98.942368 64.029320,102.972839 64.043526,107.003319 
	C64.043526,107.003319 63.999519,107.001869 63.977219,107.002495 
z"/>
<path fill="#8C6E3C" opacity="1.000000" stroke="none" 
	d="
M59.007324,103.060760 
	C59.007324,103.060760 59.018719,103.510361 58.551941,103.748367 
	C50.736889,104.001923 43.388611,104.017471 36.040337,104.033028 
	C36.028419,101.973862 36.016499,99.914696 36.477806,97.425293 
	C43.966774,97.000153 50.982521,97.005249 58.152054,97.360382 
	C58.539665,99.493858 58.773495,101.277306 59.007324,103.060760 
z"/>
<path fill="#B19457" opacity="1.000000" stroke="none" 
	d="
M27.304428,85.050491 
	C26.661282,83.812210 26.304888,82.759293 26.241858,81.365692 
	C27.388943,81.010628 28.242664,80.996254 29.553730,80.986008 
	C34.973801,80.986351 39.936523,80.982567 45.070335,81.284164 
	C46.843464,82.677444 48.445499,83.765327 50.300858,85.034439 
	C51.348904,86.138954 52.143631,87.062256 52.473831,87.989082 
	C45.669369,87.997490 39.329433,88.002365 32.989498,88.007248 
	C31.190058,87.083443 29.390617,86.159645 27.304428,85.050491 
z"/>
<path fill="#AA8C51" opacity="1.000000" stroke="none" 
	d="
M33.128071,88.321999 
	C39.329433,88.002365 45.669369,87.997490 52.642647,88.284546 
	C54.214584,90.360413 55.153187,92.144356 55.748245,94.173065 
	C48.946678,94.606087 42.488655,94.794327 36.030624,94.982574 
	C35.109299,92.867302 34.187973,90.752022 33.128071,88.321999 
z"/>
<path fill="#9C7E48" opacity="1.000000" stroke="none" 
	d="
M36.020367,95.314941 
	C42.488655,94.794327 48.946678,94.606087 56.110245,94.189850 
	C57.544621,93.974213 58.273453,93.986557 58.951443,94.313690 
	C58.599819,95.422440 58.299042,96.216393 57.998264,97.010353 
	C50.982521,97.005249 43.966774,97.000153 36.484524,96.985550 
	C36.015381,96.533127 36.012745,96.090218 36.020367,95.314941 
z"/>
<path fill="#967743" opacity="1.000000" stroke="none" 
	d="
M36.191299,104.388611 
	C43.388611,104.017471 50.736889,104.001923 58.556885,103.973175 
	C59.030289,104.425339 59.031967,104.890686 59.026184,105.705627 
	C53.122047,106.035912 47.222878,106.105782 41.330292,105.940620 
	C39.657749,105.893730 38.004406,105.161903 36.191299,104.388611 
z"/>
<path fill="#967743" opacity="1.000000" stroke="none" 
	d="
M50.047531,84.853210 
	C48.445499,83.765327 46.843464,82.677444 44.863007,80.963646 
	C39.274487,78.624550 34.080227,77.289734 29.096386,80.981873 
	C28.242664,80.996254 27.388943,81.010628 26.263485,81.027512 
	C25.991747,81.030022 25.999567,81.003906 25.999084,80.648071 
	C23.031046,74.535301 20.063490,68.778366 17.095936,63.021423 
	C24.428665,62.678875 31.761395,62.336330 39.852650,62.156189 
	C43.054764,63.904877 45.498348,65.491165 47.816162,67.364120 
	C47.457657,68.448013 47.224922,69.245216 46.999786,70.274429 
	C47.007389,70.506424 47.013432,70.970642 46.728638,70.921402 
	C44.132778,74.533150 45.606827,78.323219 49.987022,80.378433 
	C50.010746,82.143219 50.029137,83.498222 50.047531,84.853210 
M40.418663,74.057884 
	C38.455803,70.459846 32.694088,68.246803 29.720455,70.522720 
	C28.621716,71.363647 28.229229,74.502296 28.897274,75.958832 
	C29.934538,78.220383 38.648773,77.136101 40.418663,74.057884 
z"/>
<path fill="#C0A966" opacity="1.000000" stroke="none" 
	d="
M47.941936,67.077446 
	C45.498348,65.491165 43.054764,63.904877 40.323181,62.152409 
	C36.459911,59.189285 32.884632,56.392345 29.112188,53.323399 
	C29.400097,53.035149 29.885172,53.018902 31.045094,53.119835 
	C35.875275,55.967487 40.030613,58.697964 44.185951,61.428440 
	C44.540340,61.164207 44.894730,60.899975 45.249119,60.635746 
	C44.805382,58.810741 44.361649,56.985737 44.104736,54.933289 
	C44.600143,54.471008 44.908733,54.236179 45.444374,54.270416 
	C46.134678,56.441853 46.515121,58.369579 47.087311,60.238602 
	C47.546898,61.739822 47.546875,64.383316 50.539574,62.068581 
	C51.144085,62.052784 51.490093,62.051132 51.870941,62.417107 
	C51.958035,63.521458 52.010292,64.258179 51.757225,65.129547 
	C50.281918,65.868614 49.111927,66.473030 47.941936,67.077446 
z"/>
<path fill="#BB9D5E" opacity="1.000000" stroke="none" 
	d="
M17.001694,62.669579 
	C20.063490,68.778366 23.031046,74.535301 25.994650,80.657898 
	C25.101902,80.518669 24.213106,80.013794 23.123365,79.259369 
	C21.068295,76.196800 19.214169,73.383781 17.187428,70.282890 
	C15.834924,66.506432 14.655030,63.017841 13.237064,59.266609 
	C17.915045,55.846893 15.353100,61.509819 17.001694,62.669579 
z"/>
<path fill="#967743" opacity="1.000000" stroke="none" 
	d="
M73.496262,102.991562 
	C73.017296,100.290794 73.003822,97.593773 73.369186,94.446793 
	C74.501312,94.001015 75.254601,94.005196 76.351501,94.238571 
	C83.470207,94.651184 90.245293,94.834602 97.020370,95.018021 
	C96.686943,97.404289 96.353508,99.790550 96.024536,102.585152 
	C88.673256,102.994095 81.317505,102.994698 73.496262,102.991562 
z"/>
<path fill="#A1834B" opacity="1.000000" stroke="none" 
	d="
M97.139793,94.722137 
	C90.245293,94.834602 83.470207,94.651184 76.818985,94.233040 
	C82.727592,93.998314 88.512352,93.998314 94.297112,93.998314 
	C94.302216,93.658600 94.307320,93.318886 94.312424,92.979172 
	C89.121765,92.979172 83.931107,92.979172 78.740448,92.979172 
	C78.745422,92.628105 78.750397,92.277031 78.755371,91.925964 
	C84.246407,91.925964 89.737442,91.925964 95.228477,91.925964 
	C95.227905,91.576469 95.227333,91.226982 95.226761,90.877487 
	C90.106216,90.877487 84.985672,90.877487 79.865120,90.877487 
	C79.878555,90.772049 79.891991,90.666611 79.905434,90.561172 
	C86.305176,90.015572 92.704926,89.469978 99.104668,88.924377 
	C98.845299,89.752975 98.585930,90.581573 98.216614,91.717667 
	C97.824181,92.825531 97.541695,93.625885 97.139793,94.722137 
z"/>
<path fill="#B6985A" opacity="1.000000" stroke="none" 
	d="
M119.137726,47.991020 
	C119.426170,50.707024 119.714615,53.423031 120.012108,56.574318 
	C118.893654,60.216564 117.766159,63.423527 116.356667,66.840881 
	C116.074677,67.051262 116.010101,67.008186 115.997429,66.651566 
	C115.999802,64.541702 116.014847,62.788464 116.336586,60.903904 
	C116.782112,56.501553 116.920937,52.230526 117.405212,47.966095 
	C118.213020,47.978802 118.675369,47.984913 119.137726,47.991020 
z"/>
<path fill="#C4AE6A" opacity="1.000000" stroke="none" 
	d="
M119.111794,47.571129 
	C118.675369,47.984913 118.213020,47.978802 117.368484,47.662514 
	C115.654892,46.905846 114.323471,46.459358 113.148842,45.722912 
	C114.859673,44.266048 116.413727,43.099144 118.207916,41.940189 
	C118.448044,41.948135 118.928543,41.951756 118.928543,41.951756 
	C118.928543,41.951756 119.063393,42.058182 119.133476,42.113533 
	C119.164330,43.829666 119.125099,45.490452 119.111794,47.571129 
z"/>
<path fill="#A1834B" opacity="1.000000" stroke="none" 
	d="
M43.917915,55.160732 
	C44.361649,56.985737 44.805382,58.810741 45.249119,60.635746 
	C44.894730,60.899975 44.540340,61.164207 44.185951,61.428440 
	C40.030613,58.697964 35.875275,55.967487 31.408506,53.113560 
	C28.170437,50.531609 25.243797,48.073112 22.131945,45.336098 
	C24.080278,44.356186 26.213825,43.654789 29.000542,43.145241 
	C34.408447,47.278305 39.163181,51.219517 43.917915,55.160732 
z"/>
<path fill="#A1834B" opacity="1.000000" stroke="none" 
	d="
M117.967781,41.932243 
	C116.413727,43.099144 114.859673,44.266048 113.151688,45.711327 
	C112.997757,45.989708 113.022812,45.992008 112.703079,46.033779 
	C111.584373,46.723404 110.785385,47.371258 109.989716,48.004986 
	C109.993027,47.990860 110.021996,47.992706 109.709106,48.056709 
	C108.929329,48.754467 108.462456,49.388226 107.994736,50.007416 
	C107.993896,49.992847 108.022682,49.997696 107.722984,50.010731 
	C106.942680,50.354885 106.462067,50.686005 105.987427,51.003571 
	C105.993393,50.990021 106.022949,50.991913 105.703125,51.029198 
	C104.583122,51.717136 103.782928,52.367794 102.987762,53.005051 
	C102.992790,52.991657 103.021393,52.992393 102.767525,52.993626 
	C102.344490,52.997169 102.175331,52.999485 101.707161,52.826046 
	C99.916138,52.091423 98.424118,51.532562 97.109360,50.690556 
	C99.429298,47.608406 101.571983,44.809395 103.908600,41.824211 
	C104.379181,41.414433 104.655830,41.190823 105.391258,40.974869 
	C108.912315,40.981411 111.974579,40.980301 115.036850,40.979191 
	C115.768127,41.011902 116.499405,41.044617 117.598625,41.299248 
	C117.966568,41.521164 117.967781,41.932247 117.967781,41.932243 
z"/>
<path fill="#AA8C51" opacity="1.000000" stroke="none" 
	d="
M114.980011,40.639938 
	C111.974579,40.980301 108.912315,40.981411 105.381378,40.644131 
	C104.880470,39.865089 104.848236,39.424442 104.850418,38.656277 
	C104.873650,37.890259 104.862450,37.451759 104.882919,36.560047 
	C104.977432,33.087662 105.040268,30.068483 105.103096,27.049305 
	C107.919746,30.205343 110.736397,33.361382 113.787003,36.752663 
	C114.321693,38.092159 114.622429,39.196423 114.980011,40.639938 
z"/>
<path fill="#AA8C51" opacity="1.000000" stroke="none" 
	d="
M118.207916,41.940193 
	C117.967781,41.932247 117.966568,41.521164 117.964203,41.316738 
	C118.245644,41.207657 118.484055,41.369728 118.802811,41.775143 
	C118.928543,41.951756 118.448044,41.948135 118.207916,41.940193 
z"/>
<path fill="#C0A966" opacity="1.000000" stroke="none" 
	d="
M53.001087,14.997034 
	C68.096138,14.997027 82.691460,14.997027 97.286781,14.997027 
	C97.285187,15.245916 97.283600,15.494805 97.282013,15.743694 
	C76.760933,15.743694 56.239861,15.743694 35.718781,15.743694 
	C35.714592,15.494810 35.710400,15.245925 35.706207,14.997041 
	C41.304592,14.997041 46.902973,14.997041 53.001087,14.997034 
z"/>
<path fill="#C4AE6A" opacity="1.000000" stroke="none" 
	d="
M76.999680,12.999542 
	C83.765404,12.999541 90.031219,12.999541 96.297043,12.999541 
	C96.294174,13.247313 96.291306,13.495085 96.288429,13.742856 
	C76.429214,13.742856 56.569992,13.742856 36.710770,13.742856 
	C36.708855,13.495085 36.706936,13.247313 36.705017,12.999542 
	C49.969936,12.999542 63.234852,12.999542 76.999680,12.999542 
z"/>
<path fill="#C4AE6A" opacity="1.000000" stroke="none" 
	d="
M37.131813,10.326370 
	C56.358303,10.014298 75.705429,10.011272 95.519699,10.012150 
	C94.234627,10.350560 92.485603,10.956903 90.729713,10.977493 
	C73.300751,11.181871 55.870686,11.294646 38.440693,11.390973 
	C38.046013,11.393153 37.648590,10.898379 37.131813,10.326370 
z"/>
<path fill="#AA8C51" opacity="1.000000" stroke="none" 
	d="
M69.050873,37.019615 
	C69.206696,32.916351 69.362526,28.813089 69.748978,24.377186 
	C70.554771,25.168179 71.129936,26.291813 71.855560,28.035759 
	C72.013939,29.111967 72.021851,29.567862 72.067184,30.421347 
	C73.711761,31.551111 75.301521,32.867321 76.929047,32.915798 
	C84.553368,33.142887 92.188919,33.086452 99.818672,32.990143 
	C102.700386,32.953766 104.286835,33.889294 103.508965,36.986725 
	C92.685471,36.987537 82.327896,36.991352 71.604797,36.999100 
	C70.509804,37.008564 69.780342,37.014091 69.050873,37.019615 
z"/>
<path fill="#C4AE6A" opacity="1.000000" stroke="none" 
	d="
M103.974876,36.989723 
	C104.286835,33.889294 102.700386,32.953766 99.818672,32.990143 
	C92.188919,33.086452 84.553368,33.142887 76.929047,32.915798 
	C75.301521,32.867321 73.711761,31.551111 72.532547,30.413635 
	C81.603157,30.004688 90.248268,30.106842 98.886429,29.907692 
	C100.603943,29.868095 102.294853,28.674562 103.998032,28.013144 
	C104.178055,27.732021 104.402153,27.492050 104.886711,27.171268 
	C105.040268,30.068483 104.977432,33.087662 104.664520,36.554573 
	C104.414452,37.002312 103.974876,36.989723 103.974876,36.989723 
z"/>
<path fill="#BB9D5E" opacity="1.000000" stroke="none" 
	d="
M103.529610,28.011276 
	C102.294853,28.674562 100.603943,29.868095 98.886429,29.907692 
	C90.248268,30.106842 81.603157,30.004688 72.495125,30.016045 
	C72.021851,29.567862 72.013939,29.111967 72.014259,28.313978 
	C82.368721,27.984392 92.714958,27.996899 103.529610,28.011276 
z"/>
<path fill="#A1834B" opacity="1.000000" stroke="none" 
	d="
M69.034828,37.443642 
	C69.780342,37.014091 70.509804,37.008564 71.603767,37.333019 
	C71.992630,38.107323 72.017006,38.551643 72.041298,39.325272 
	C72.375717,40.434734 72.710213,41.214897 73.075470,42.342422 
	C74.399292,44.800213 75.692345,46.910637 76.988152,49.005798 
	C76.990906,48.990536 77.021202,48.983883 76.763824,49.082607 
	C75.442009,50.158707 74.377571,51.136086 72.971115,51.969238 
	C71.438293,51.555435 70.247490,51.285854 69.043854,50.570290 
	C69.002068,47.737537 68.973099,45.350761 68.944130,42.963989 
	C68.969017,41.265217 68.993896,39.566441 69.034828,37.443642 
z"/>
<path fill="#B6985A" opacity="1.000000" stroke="none" 
	d="
M68.537758,42.971802 
	C68.973099,45.350761 69.002068,47.737537 69.028664,50.983932 
	C69.002403,53.225216 68.978516,54.606873 68.546158,55.991753 
	C66.773598,55.992825 65.409485,55.990677 64.034912,55.545731 
	C63.989548,52.742638 63.954659,50.382351 63.936340,47.601761 
	C63.985619,45.777020 64.018333,44.372578 64.051048,42.968136 
	C65.411163,42.971962 66.771271,42.975784 68.537758,42.971802 
z"/>
<path fill="#A1834B" opacity="1.000000" stroke="none" 
	d="
M64.040436,42.544006 
	C64.018333,44.372578 63.985619,45.777020 63.570473,47.618462 
	C61.730335,48.391842 60.272636,48.728226 58.623695,48.788387 
	C59.263855,45.681332 60.095253,42.850498 60.968967,39.648232 
	C61.056599,38.532417 61.101917,37.788033 61.147232,37.043644 
	C61.848763,37.033913 62.550293,37.024178 63.601227,37.016777 
	C63.977028,38.719372 64.003426,40.419624 64.040436,42.544006 
z"/>
<path fill="#C6B36A" opacity="1.000000" stroke="none" 
	d="
M60.926651,40.019661 
	C60.095253,42.850498 59.263855,45.681332 58.680668,49.141808 
	C59.188606,51.384773 59.448334,52.998104 59.726574,54.726429 
	C57.405193,52.776009 55.477890,51.156689 53.550583,49.537369 
	C52.710621,51.020237 51.870659,52.503105 50.886055,54.171341 
	C50.536434,54.596222 50.300159,54.799332 49.889679,54.663540 
	C48.236954,54.241146 46.727135,54.121246 45.217323,54.001350 
	C44.908733,54.236179 44.600143,54.471008 44.104736,54.933289 
	C39.163181,51.219517 34.408447,47.278305 29.402042,43.128361 
	C29.100166,42.500988 29.049957,42.082344 29.321281,41.114986 
	C40.070759,40.384064 50.498703,40.201862 60.926651,40.019661 
z"/>
<path fill="#C4AE6A" opacity="1.000000" stroke="none" 
	d="
M60.520760,27.765913 
	C60.921307,29.978807 60.944881,32.042873 60.491798,34.550728 
	C49.365067,34.991318 38.714989,34.988125 28.064913,34.984932 
	C28.026726,32.636719 27.988539,30.288504 27.927387,27.504210 
	C38.650879,27.251116 49.397335,27.434101 60.520760,27.765913 
z"/>
<path fill="#C0A966" opacity="1.000000" stroke="none" 
	d="
M28.045837,35.384022 
	C38.714989,34.988125 49.365067,34.991318 60.477272,34.990211 
	C60.977680,35.443768 61.015957,35.901623 61.100735,36.701561 
	C61.101917,37.788033 61.056599,38.532417 60.968964,39.648232 
	C50.498703,40.201862 40.070759,40.384064 29.292995,40.799549 
	C28.637703,39.282925 28.332233,37.533016 28.045837,35.384022 
z"/>
<path fill="#8C6E3C" opacity="1.000000" stroke="none" 
	d="
M99.293198,88.679443 
	C92.704926,89.469978 86.305176,90.015572 79.905434,90.561172 
	C79.891991,90.666611 79.878555,90.772049 79.865120,90.877487 
	C84.985672,90.877487 90.106216,90.877487 95.226761,90.877487 
	C95.227333,91.226982 95.227905,91.576469 95.228477,91.925964 
	C89.737442,91.925964 84.246407,91.925964 78.755371,91.925964 
	C78.750397,92.277031 78.745422,92.628105 78.740448,92.979172 
	C83.931107,92.979172 89.121765,92.979172 94.312424,92.979172 
	C94.307320,93.318886 94.302216,93.658600 94.297112,93.998314 
	C88.512352,93.998314 82.727592,93.998314 76.475357,94.003845 
	C75.254601,94.005196 74.501312,94.001015 73.371338,93.996826 
	C71.896164,93.344543 70.797676,92.692276 69.347038,91.562950 
	C69.009964,87.060532 69.025040,83.035172 69.452774,79.007812 
	C75.503075,78.861862 80.289452,81.290398 85.324585,84.236313 
	C90.446419,84.982071 95.223999,85.499001 100.001587,86.015930 
	C99.828300,86.822121 99.655014,87.628311 99.293198,88.679443 
z"/>
<path fill="#90723F" opacity="1.000000" stroke="none" 
	d="
M84.980339,84.007492 
	C80.289452,81.290398 75.503075,78.861862 69.422295,78.733635 
	C68.960442,78.278618 68.941719,78.095787 69.082771,77.612350 
	C70.945335,75.980164 72.485229,74.294876 74.395988,73.414825 
	C76.372711,72.504395 78.709427,72.375580 81.214615,72.065399 
	C83.203117,73.558533 84.865685,74.891144 86.781685,76.426880 
	C87.188591,75.581947 87.583458,74.762032 87.980659,73.707016 
	C87.982994,73.471924 88.014999,73.002800 88.371078,73.005341 
	C89.820732,73.340500 90.914307,73.673126 92.007889,74.005745 
	C94.549561,74.340027 97.135872,74.486961 99.616333,75.078102 
	C101.130432,75.438950 102.481682,76.483154 103.489944,77.609100 
	C99.004654,77.997757 94.935493,77.997757 90.866333,77.997757 
	C90.869720,78.321037 90.873108,78.644325 90.876488,78.967606 
	C95.263451,78.967606 99.650406,78.967606 104.037369,78.967606 
	C104.037369,78.967606 104.509003,78.965363 104.744659,78.970642 
	C103.467880,79.648544 101.989052,80.790291 100.436401,80.901535 
	C96.539619,81.180717 92.609459,80.993790 88.699738,81.699829 
	C94.570122,81.980576 100.440498,82.261330 106.656204,82.769424 
	C107.001534,82.996765 106.508820,82.999489 105.792152,82.998245 
	C98.377106,83.333824 91.678719,83.670662 84.980339,84.007492 
z"/>
<path fill="#967743" opacity="1.000000" stroke="none" 
	d="
M85.324585,84.236320 
	C91.678719,83.670662 98.377106,83.333824 105.545799,82.999313 
	C104.257423,84.003273 102.498726,85.004921 100.370811,86.011253 
	C95.223999,85.499001 90.446419,84.982071 85.324585,84.236320 
z"/>
<path fill="#987A45" opacity="1.000000" stroke="none" 
	d="
M116.029884,61.035229 
	C116.014847,62.788464 115.999802,64.541702 115.965210,66.629913 
	C115.174126,67.612633 114.402580,68.260384 113.342636,69.006393 
	C111.169556,65.030754 107.513084,64.737106 103.114769,68.664841 
	C100.956917,69.016960 98.923553,69.020668 96.406685,68.651161 
	C93.620094,67.205276 91.316994,66.132607 89.022781,64.797020 
	C89.024719,64.359192 89.017761,64.184273 89.005402,64.004669 
	C89.000000,64.000000 89.009155,64.009361 89.311539,63.938042 
	C90.081245,63.243114 90.548569,62.619511 91.006409,61.995724 
	C90.996918,61.995544 90.989403,62.012989 91.284454,61.994713 
	C92.054634,61.654366 92.529770,61.332291 93.002762,61.005341 
	C93.000610,61.000458 93.009903,61.008678 93.310944,60.935982 
	C94.079521,60.242237 94.547058,59.621197 95.006165,58.998070 
	C94.997742,58.995983 94.993782,59.012905 95.288116,58.998539 
	C96.051971,58.661171 96.521492,58.338165 96.997940,58.012409 
	C97.004868,58.009655 97.017509,58.001736 97.343765,58.008553 
	C98.103363,57.979610 98.536705,57.943844 99.307755,58.151291 
	C103.051392,58.596794 106.484589,58.603401 109.853287,59.072853 
	C111.962349,59.366768 113.974342,60.357281 116.029884,61.035229 
z"/>
<path fill="#967743" opacity="1.000000" stroke="none" 
	d="
M89.013901,65.059937 
	C91.316994,66.132607 93.620094,67.205276 95.970711,68.653122 
	C95.553360,69.658295 95.088486,70.288292 94.141701,71.571373 
	C97.450790,71.853142 100.117584,72.080231 102.784370,72.307312 
	C102.822098,72.872032 102.859818,73.436745 102.897545,74.001465 
	C99.572060,74.001465 96.246582,74.001465 92.464493,74.003601 
	C90.914307,73.673126 89.820732,73.340500 88.332031,72.638092 
	C87.297386,70.176659 86.657860,68.085014 86.005646,65.992821 
	C85.992973,65.992271 85.992073,66.017632 86.311562,65.997002 
	C87.425331,65.670891 88.219620,65.365417 89.013901,65.059937 
z"/>
<path fill="#967743" opacity="1.000000" stroke="none" 
	d="
M104.028091,78.726425 
	C99.650406,78.967606 95.263451,78.967606 90.876488,78.967606 
	C90.873108,78.644325 90.869720,78.321037 90.866333,77.997757 
	C94.935493,77.997757 99.004654,77.997757 103.539200,78.000252 
	C104.004578,78.002747 104.018806,78.485252 104.028091,78.726425 
z"/>
<path fill="#967743" opacity="1.000000" stroke="none" 
	d="
M64.452660,107.002060 
	C64.029320,102.972839 64.015114,98.942368 64.425072,94.453003 
	C66.224411,93.991333 67.599586,93.988548 68.974770,93.985764 
	C68.976242,98.016495 68.977707,102.047226 68.967827,106.540642 
	C67.591583,107.002480 66.226685,107.001640 64.452660,107.002060 
z"/>
<path fill="#A1834B" opacity="1.000000" stroke="none" 
	d="
M68.983521,93.656830 
	C67.599586,93.988548 66.224411,93.991333 64.437225,93.989944 
	C64.013496,93.547852 64.001755,93.109947 63.997093,91.876747 
	C64.025139,86.698273 64.046112,82.315086 64.471527,77.948746 
	C66.224983,77.948051 67.573990,77.930504 68.923004,77.912964 
	C68.941719,78.095787 68.960442,78.278618 69.009644,78.735626 
	C69.025040,83.035172 69.009964,87.060532 69.007805,91.548958 
	C69.011246,92.450645 69.001762,92.889275 68.983521,93.656830 
z"/>
<path fill="#8C6E3C" opacity="1.000000" stroke="none" 
	d="
M64.067085,77.931900 
	C64.046112,82.315086 64.025139,86.698273 63.989487,91.548126 
	C62.733185,92.461563 61.491562,92.908318 59.875729,93.676926 
	C59.501518,93.998772 59.002289,93.998894 59.002289,93.998894 
	C58.273453,93.986557 57.544621,93.974213 56.453789,93.945084 
	C55.153187,92.144356 54.214584,90.360413 53.107170,88.281013 
	C52.143631,87.062256 51.348904,86.138954 50.300854,85.034439 
	C50.029137,83.498222 50.010746,82.143219 50.061615,80.131027 
	C52.652485,81.784058 55.174095,84.094284 58.316082,86.972885 
	C57.121883,84.080688 56.066040,81.523575 55.149323,78.637650 
	C57.811565,77.548866 60.334671,76.788910 63.017540,76.261765 
	C63.473896,76.973686 63.770493,77.452797 64.067085,77.931900 
z"/>
<path fill="#967743" opacity="1.000000" stroke="none" 
	d="
M58.951443,94.313690 
	C59.002289,93.998894 59.501518,93.998772 59.751141,93.999054 
	C59.818863,96.794273 59.636963,99.589203 59.231194,102.722450 
	C58.773495,101.277306 58.539665,99.493858 58.152054,97.360382 
	C58.299042,96.216393 58.599819,95.422440 58.951443,94.313690 
z"/>
<path fill="#B6985A" opacity="1.000000" stroke="none" 
	d="
M29.553730,80.986008 
	C34.080227,77.289734 39.274487,78.624550 44.691917,80.658264 
	C39.936523,80.982567 34.973801,80.986351 29.553730,80.986008 
z"/>
<path fill="#BB9D5E" opacity="1.000000" stroke="none" 
	d="
M64.471527,77.948746 
	C63.770493,77.452797 63.473896,76.973686 62.867340,75.959808 
	C57.672787,73.497673 52.791485,71.561798 47.892830,69.670876 
	C47.673157,69.586075 47.295994,69.909271 46.992188,70.042427 
	C47.224922,69.245216 47.457657,68.448013 47.816162,67.364120 
	C49.111927,66.473030 50.281918,65.868614 52.067272,65.278244 
	C55.763000,66.508301 58.843357,67.724327 62.383080,68.960434 
	C65.587349,68.967133 68.332260,68.953735 71.530632,68.952438 
	C75.328285,68.974396 78.672470,68.984245 81.983749,69.308640 
	C81.596786,70.383743 81.242729,71.144302 80.888672,71.904869 
	C78.709427,72.375580 76.372711,72.504395 74.395988,73.414825 
	C72.485229,74.294876 70.945335,75.980164 69.082771,77.612350 
	C67.573990,77.930504 66.224983,77.948051 64.471527,77.948746 
z"/>
<path fill="#A1834B" opacity="1.000000" stroke="none" 
	d="
M40.507637,74.431854 
	C38.648773,77.136101 29.934538,78.220383 28.897274,75.958832 
	C28.229229,74.502296 28.621716,71.363647 29.720455,70.522720 
	C32.694088,68.246803 38.455803,70.459846 40.507637,74.431854 
z"/>
<path fill="#90723F" opacity="1.000000" stroke="none" 
	d="
M46.999786,70.274429 
	C47.295994,69.909271 47.673157,69.586075 47.892830,69.670876 
	C52.791485,71.561798 57.672787,73.497673 62.707581,75.726990 
	C60.334671,76.788910 57.811565,77.548866 54.868538,78.470139 
	C53.515537,77.956306 52.549812,76.663307 51.654884,76.710579 
	C47.251518,76.943153 46.926342,74.191994 47.013432,70.970642 
	C47.013432,70.970642 47.007389,70.506424 46.999786,70.274429 
z"/>
<path fill="#B19457" opacity="1.000000" stroke="none" 
	d="
M46.728638,70.921402 
	C46.926342,74.191994 47.251518,76.943153 51.654884,76.710579 
	C52.549812,76.663307 53.515537,77.956306 54.729408,78.798950 
	C56.066040,81.523575 57.121883,84.080688 58.316082,86.972885 
	C55.174095,84.094284 52.652485,81.784058 50.056278,79.721237 
	C45.606827,78.323219 44.132778,74.533150 46.728638,70.921402 
z"/>
<path fill="#9C7E48" opacity="1.000000" stroke="none" 
	d="
M61.923717,68.940346 
	C58.843357,67.724327 55.763000,66.508301 52.372597,65.143593 
	C52.010292,64.258179 51.958035,63.521458 51.905811,61.987091 
	C51.614128,58.788296 51.322411,56.387135 51.030693,53.985977 
	C51.870659,52.503105 52.710621,51.020237 53.550583,49.537369 
	C55.477890,51.156689 57.405193,52.776009 59.726574,54.726429 
	C59.448334,52.998104 59.188606,51.384773 58.871906,49.418030 
	C60.272636,48.728226 61.730335,48.391842 63.553905,48.038757 
	C63.954659,50.382351 63.989548,52.742638 64.020630,55.943638 
	C63.319126,60.836346 62.621422,64.888344 61.923717,68.940346 
z"/>
<path fill="#A1834B" opacity="1.000000" stroke="none" 
	d="
M45.444374,54.270412 
	C46.727135,54.121246 48.236954,54.241146 49.883408,55.108124 
	C50.107059,57.931038 50.194069,60.006882 50.281075,62.082722 
	C47.546875,64.383316 47.546898,61.739822 47.087311,60.238602 
	C46.515121,58.369579 46.134678,56.441853 45.444374,54.270412 
z"/>
<path fill="#BB9D5E" opacity="1.000000" stroke="none" 
	d="
M50.539574,62.068581 
	C50.194069,60.006882 50.107059,57.931038 50.026321,55.410614 
	C50.300159,54.799332 50.536434,54.596222 50.886055,54.171341 
	C51.322411,56.387135 51.614128,58.788296 51.870972,61.619469 
	C51.490093,62.051132 51.144085,62.052784 50.539574,62.068581 
z"/>
<path fill="#9C7E48" opacity="1.000000" stroke="none" 
	d="
M116.336586,60.903904 
	C113.974342,60.357281 111.962349,59.366768 109.853287,59.072853 
	C106.484589,58.603401 103.051392,58.596794 99.327560,57.835670 
	C99.003998,56.854130 98.998329,56.431419 98.996597,56.004288 
	C99.000534,55.999870 99.010307,55.992973 99.340561,55.978287 
	C100.786545,55.315350 101.902267,54.667107 103.040024,53.762318 
	C103.048500,53.334648 103.034950,53.163521 103.021393,52.992393 
	C103.021393,52.992393 102.992790,52.991657 103.330650,53.014122 
	C104.453323,52.355026 105.238136,51.673470 106.022949,50.991913 
	C106.022949,50.991913 105.993393,50.990021 106.287659,50.987846 
	C107.062180,50.656342 107.542427,50.327019 108.022682,49.997696 
	C108.022682,49.997696 107.993896,49.992847 108.301971,49.937729 
	C109.080696,49.252640 109.551346,48.622669 110.021988,47.992706 
	C110.021996,47.992706 109.993027,47.990860 110.334976,48.022972 
	C111.458885,47.367393 112.240852,46.679703 113.022812,45.992008 
	C113.022812,45.992008 112.997757,45.989708 112.994904,46.001289 
	C114.323471,46.459358 115.654892,46.905846 117.023041,47.655914 
	C116.920937,52.230526 116.782112,56.501553 116.336586,60.903904 
z"/>
<path fill="#9C7E48" opacity="1.000000" stroke="none" 
	d="
M82.016663,68.994095 
	C78.672470,68.984245 75.328285,68.974396 71.501404,68.530922 
	C71.009651,66.396187 71.000595,64.695068 71.065765,62.961933 
	C71.139984,62.929909 71.159370,62.750168 71.159370,62.750168 
	C71.159370,62.750168 71.005753,63.008106 70.655289,62.871105 
	C69.854767,60.485580 69.404701,58.237053 68.954620,55.988529 
	C68.978516,54.606873 69.002403,53.225216 69.041489,51.429916 
	C70.247490,51.285854 71.438293,51.555435 72.920738,52.255020 
	C73.282623,53.370827 73.352875,54.056625 73.423119,54.742424 
	C73.727959,54.811169 74.032799,54.879913 74.337639,54.948658 
	C75.232155,52.960400 76.126678,50.972141 77.021194,48.983883 
	C77.021202,48.983883 76.990906,48.990536 77.344696,49.066242 
	C81.496094,49.962753 83.663399,55.022285 88.448174,53.276497 
	C88.295128,53.847660 88.142082,54.418823 87.744843,55.043819 
	C87.210335,55.417149 86.920021,55.736641 86.629715,56.056133 
	C86.747932,56.159519 86.866150,56.262901 86.984367,56.366287 
	C87.329063,55.917213 87.673752,55.468136 88.387619,55.038715 
	C91.481903,53.696812 94.207001,52.335258 96.932098,50.973701 
	C98.424118,51.532562 99.916138,52.091423 101.683357,53.072083 
	C101.958557,53.493881 101.885216,53.982849 101.580414,54.025642 
	C100.520515,54.709949 99.765411,55.351463 99.010307,55.992973 
	C99.010307,55.992973 99.000534,55.999870 98.686241,56.057800 
	C97.920471,56.744404 97.468994,57.373070 97.017509,58.001736 
	C97.017509,58.001736 97.004868,58.009655 96.703857,58.021820 
	C95.933151,58.360294 95.463470,58.686604 94.993790,59.012909 
	C94.993782,59.012905 94.997742,58.995983 94.696983,59.063034 
	C93.934120,59.756287 93.472015,60.382484 93.009903,61.008682 
	C93.009903,61.008678 93.000610,61.000458 92.707306,61.018929 
	C91.939140,61.362598 91.464272,61.687794 90.989403,62.012989 
	C90.989403,62.012989 90.996918,61.995544 90.699257,62.065689 
	C89.937447,62.760345 89.473305,63.384853 89.009155,64.009361 
	C89.009155,64.009361 89.000000,64.000000 88.685455,64.025917 
	C87.577957,64.707100 86.785011,65.362366 85.992073,66.017632 
	C85.992073,66.017632 85.992973,65.992271 85.709473,66.122452 
	C84.278992,67.175491 83.132011,68.098351 81.987946,69.008629 
	C81.990860,68.996056 82.016663,68.994095 82.016663,68.994095 
z"/>
<path fill="#C6B36A" opacity="1.000000" stroke="none" 
	d="
M87.989029,54.989986 
	C88.142082,54.418823 88.295128,53.847660 88.448174,53.276497 
	C83.663399,55.022285 81.496094,49.962753 77.341942,49.081505 
	C75.692345,46.910637 74.399292,44.800213 73.308121,42.345757 
	C73.509987,42.001728 73.976128,42.004948 74.447281,42.003242 
	C83.953178,42.002594 92.987915,42.003654 102.306305,42.006210 
	C102.964867,42.008598 103.339767,42.009491 103.714668,42.010384 
	C101.571983,44.809395 99.429298,47.608406 97.109360,50.690559 
	C94.207001,52.335258 91.481903,53.696812 88.379837,55.030636 
	C88.002869,55.002903 87.989029,54.989986 87.989029,54.989986 
z"/>
<path fill="#C4AE6A" opacity="1.000000" stroke="none" 
	d="
M103.908600,41.824211 
	C103.339767,42.009491 102.964867,42.008598 101.961365,41.772247 
	C92.213890,41.692844 83.095009,41.848896 73.976128,42.004948 
	C73.976128,42.004948 73.509987,42.001728 73.277344,41.998394 
	C72.710213,41.214897 72.375717,40.434734 72.505722,39.326897 
	C83.585487,38.994076 94.200745,38.988934 104.816002,38.983791 
	C104.848236,39.424442 104.880470,39.865089 104.922592,40.636475 
	C104.655830,41.190823 104.379181,41.414433 103.908600,41.824211 
z"/>
<path fill="#C4AE6A" opacity="1.000000" stroke="none" 
	d="
M112.703079,46.033779 
	C112.240852,46.679703 111.458885,47.367393 110.331665,48.037102 
	C110.785385,47.371258 111.584373,46.723404 112.703079,46.033779 
z"/>
<path fill="#C4AE6A" opacity="1.000000" stroke="none" 
	d="
M105.703125,51.029198 
	C105.238136,51.673470 104.453323,52.355026 103.325623,53.027519 
	C103.782928,52.367794 104.583122,51.717136 105.703125,51.029198 
z"/>
<path fill="#C4AE6A" opacity="1.000000" stroke="none" 
	d="
M109.709099,48.056705 
	C109.551346,48.622669 109.080696,49.252640 108.302811,49.952293 
	C108.462456,49.388226 108.929329,48.754467 109.709099,48.056705 
z"/>
<path fill="#C4AE6A" opacity="1.000000" stroke="none" 
	d="
M107.722984,50.010727 
	C107.542427,50.327019 107.062180,50.656342 106.281693,51.001396 
	C106.462067,50.686005 106.942680,50.354885 107.722984,50.010727 
z"/>
<path fill="#C4AE6A" opacity="1.000000" stroke="none" 
	d="
M101.885216,53.982849 
	C101.885216,53.982849 101.958557,53.493881 101.982361,53.247841 
	C102.175331,52.999485 102.344490,52.997169 102.767525,52.993626 
	C103.034950,53.163521 103.048500,53.334648 102.756828,53.751522 
	C102.262810,53.992466 102.074013,53.987659 101.885216,53.982849 
z"/>
<path fill="#C6B36A" opacity="1.000000" stroke="none" 
	d="
M104.850418,38.656277 
	C94.200745,38.988934 83.585487,38.994076 72.505798,38.997589 
	C72.017006,38.551643 71.992630,38.107323 71.969284,37.329082 
	C82.327896,36.991352 92.685471,36.987537 103.508965,36.986725 
	C103.974876,36.989723 104.414452,37.002312 104.632851,37.007782 
	C104.862450,37.451759 104.873650,37.890259 104.850418,38.656277 
z"/>
<path fill="#C6B36A" opacity="1.000000" stroke="none" 
	d="
M76.763824,49.082607 
	C76.126678,50.972141 75.232155,52.960400 74.337639,54.948658 
	C74.032799,54.879913 73.727959,54.811169 73.423119,54.742424 
	C73.352875,54.056625 73.282623,53.370827 73.262756,52.399246 
	C74.377571,51.136086 75.442009,50.158707 76.763824,49.082607 
z"/>
<path fill="#B19457" opacity="1.000000" stroke="none" 
	d="
M70.991539,62.993958 
	C71.000595,64.695068 71.009651,66.396187 71.047943,68.518814 
	C68.332260,68.953735 65.587349,68.967133 62.383080,68.960434 
	C62.621422,64.888344 63.319126,60.836346 64.031105,56.386440 
	C65.409485,55.990677 66.773598,55.992825 68.546165,55.991753 
	C69.404701,58.237053 69.854767,60.485580 70.652374,62.867050 
	C70.999916,63.000000 70.991539,62.993958 70.991539,62.993958 
z"/>
<path fill="#967743" opacity="1.000000" stroke="none" 
	d="
M81.214615,72.065399 
	C81.242729,71.144302 81.596786,70.383743 81.983749,69.308640 
	C82.016663,68.994095 81.990860,68.996056 82.349838,69.038788 
	C84.465317,70.701714 86.221817,72.321915 87.978317,73.942116 
	C87.583458,74.762032 87.188591,75.581947 86.781685,76.426880 
	C84.865685,74.891144 83.203117,73.558533 81.214615,72.065399 
z"/>
<path fill="#BB9D5E" opacity="1.000000" stroke="none" 
	d="
M87.980652,73.707016 
	C86.221817,72.321915 84.465317,70.701714 82.346924,69.051361 
	C83.132011,68.098351 84.278992,67.175491 85.722145,66.123001 
	C86.657860,68.085014 87.297386,70.176659 87.975960,72.635551 
	C88.014999,73.002800 87.982994,73.471924 87.980652,73.707016 
z"/>
<path fill="#BB9D5E" opacity="1.000000" stroke="none" 
	d="
M93.310944,60.935982 
	C93.472015,60.382484 93.934120,59.756287 94.705414,59.065125 
	C94.547058,59.621197 94.079521,60.242237 93.310944,60.935982 
z"/>
<path fill="#BB9D5E" opacity="1.000000" stroke="none" 
	d="
M86.311562,65.997002 
	C86.785011,65.362366 87.577957,64.707100 88.690857,64.030594 
	C89.017761,64.184273 89.024719,64.359192 89.022781,64.797020 
	C88.219620,65.365417 87.425331,65.670891 86.311562,65.997002 
z"/>
<path fill="#BB9D5E" opacity="1.000000" stroke="none" 
	d="
M89.311539,63.938042 
	C89.473305,63.384853 89.937447,62.760345 90.708740,62.065868 
	C90.548569,62.619511 90.081245,63.243114 89.311539,63.938042 
z"/>
<path fill="#BB9D5E" opacity="1.000000" stroke="none" 
	d="
M97.343765,58.008553 
	C97.468994,57.373070 97.920471,56.744404 98.682304,56.062218 
	C98.998329,56.431419 99.003998,56.854130 98.989853,57.592461 
	C98.536705,57.943844 98.103363,57.979610 97.343765,58.008553 
z"/>
<path fill="#BB9D5E" opacity="1.000000" stroke="none" 
	d="
M91.284454,61.994713 
	C91.464272,61.687794 91.939140,61.362598 92.709457,61.023811 
	C92.529770,61.332291 92.054634,61.654366 91.284454,61.994713 
z"/>
<path fill="#BB9D5E" opacity="1.000000" stroke="none" 
	d="
M95.288124,58.998543 
	C95.463470,58.686604 95.933151,58.360294 96.696930,58.024574 
	C96.521492,58.338165 96.051971,58.661171 95.288124,58.998543 
z"/>
<path fill="#BB9D5E" opacity="1.000000" stroke="none" 
	d="
M101.580414,54.025642 
	C102.074013,53.987659 102.262810,53.992466 102.734802,54.008068 
	C101.902267,54.667107 100.786545,55.315350 99.340561,55.978287 
	C99.765411,55.351463 100.520515,54.709949 101.580414,54.025642 
z"/>
<path fill="#C6B36A" opacity="1.000000" stroke="none" 
	d="
M88.010651,55.010983 
	C87.673752,55.468136 87.329063,55.917213 86.984367,56.366287 
	C86.866150,56.262901 86.747932,56.159519 86.629715,56.056133 
	C86.920021,55.736641 87.210335,55.417149 87.744843,55.043819 
	C87.989029,54.989986 88.002869,55.002903 88.010651,55.010983 
z"/>
<path fill="#B19457" opacity="1.000000" stroke="none" 
	d="
M71.002838,63.004051 
	C71.005753,63.008106 71.159370,62.750168 71.159370,62.750168 
	C71.159370,62.750168 71.139984,62.929909 71.065765,62.961933 
	C70.991539,62.993958 70.999916,63.000000 71.002838,63.004051 
z"/>
<path fill="#BB9D5E" opacity="1.000000" stroke="none" 
	d="
M74.447281,42.003242 
	C83.095009,41.848896 92.213890,41.692844 101.677711,41.770752 
	C92.987915,42.003654 83.953178,42.002594 74.447281,42.003242 
z"/>
</svg>