<svg version="1.1" id="Layer_1" xmlns="http://www.w3.org/2000/svg" xmlns:xlink="http://www.w3.org/1999/xlink" x="0px" y="0px"
	 width="100%" viewBox="0 0 3200 1796" enable-background="new 0 0 3200 1796" xml:space="preserve">
<path fill="#000000" opacity="1.000000" stroke="none" 
	d="
M1912.000000,1798.000000 
	C1274.666626,1798.000000 638.333313,1798.000000 2.000000,1798.000000 
	C2.000000,1199.333374 2.000000,600.666687 2.000000,2.000000 
	C1068.666626,2.000000 2135.333252,2.000000 3202.000000,2.000000 
	C3202.000000,600.666687 3202.000000,1199.333374 3202.000000,1798.000000 
	C2772.333252,1798.000000 2342.666748,1798.000000 1912.000000,1798.000000 
M2386.893066,1091.220215 
	C2386.580566,1090.181396 2386.268311,1089.142578 2384.146240,1087.751831 
	C2376.886719,1087.954468 2369.519531,1086.966309 2362.366211,1088.343506 
	C2362.338623,1089.045898 2362.311035,1089.748291 2362.283447,1090.450806 
	C2365.204102,1091.185181 2368.124512,1091.919434 2370.837158,1092.601562 
	C2373.334961,1101.802246 2369.499512,1111.432373 2373.212158,1120.025879 
	C2374.102539,1119.978271 2374.992676,1119.930542 2375.882812,1119.882935 
	C2375.882812,1110.838013 2375.882812,1101.793091 2375.882812,1092.493896 
	C2379.978027,1091.989136 2382.876709,1091.631836 2386.893066,1091.220215 
M2397.311279,1100.294556 
	C2397.311279,1100.294556 2397.969482,1100.018433 2399.083496,1100.923950 
	C2401.969727,1107.441895 2404.855713,1113.959717 2408.729736,1122.708862 
	C2412.691406,1114.138550 2415.620117,1107.802246 2418.549072,1101.466064 
	C2420.261963,1105.357544 2420.006104,1108.900269 2420.340332,1112.386230 
	C2420.621338,1115.317261 2418.297852,1120.247437 2425.739990,1119.713257 
	C2425.739990,1114.297363 2425.739990,1109.035156 2425.739990,1103.773071 
	C2425.739990,1098.568970 2425.739990,1093.364868 2425.739990,1088.612671 
	C2420.245605,1086.762329 2417.637451,1088.040894 2416.153320,1092.474365 
	C2414.222900,1098.242065 2411.796143,1103.843628 2408.939941,1111.164307 
	C2405.111084,1102.174683 2402.041260,1094.967041 2399.010254,1087.850952 
	C2396.733643,1087.850952 2395.087402,1087.758667 2393.462646,1087.903564 
	C2392.931152,1087.950928 2392.454590,1088.614990 2391.954346,1088.999023 
	C2390.700439,1112.316650 2390.958252,1115.653198 2395.523193,1121.585083 
	C2397.135498,1113.671143 2395.915527,1106.822266 2397.311279,1100.294556 
M815.313293,247.681976 
	C810.337585,241.447800 805.451965,235.138794 800.355103,229.005295 
	C796.850952,224.788452 792.159363,224.935837 787.532715,226.567535 
	C783.269775,228.070938 781.368835,231.383652 781.655762,235.944809 
	C781.760193,237.604614 781.664124,239.276871 781.664124,240.943436 
	C781.663757,452.265106 781.696106,663.586792 781.579163,874.908386 
	C781.572571,886.810852 785.122986,896.857727 792.543396,906.125854 
	C966.363037,1123.228149 1140.118408,1340.381958 1313.770264,1557.618530 
	C1324.129028,1570.577393 1336.818604,1576.484009 1353.473267,1576.461792 
	C1518.797241,1576.242065 1684.121582,1576.328735 1849.445801,1576.328491 
	C1851.445679,1576.328491 1853.448853,1576.398438 1855.444824,1576.309326 
	C1865.222778,1575.873169 1869.588257,1567.148926 1864.128540,1558.781372 
	C1862.317383,1556.005493 1860.120239,1553.476685 1858.042725,1550.880493 
	C1686.363525,1336.342651 1514.659180,1121.824951 1342.999512,907.271484 
	C1167.392822,687.784546 991.829468,468.263000 815.313293,247.681976 
M2180.440186,511.449615 
	C2031.902222,697.174622 1883.365845,882.901001 1734.821411,1068.620972 
	C1726.303223,1079.270874 1717.703979,1089.856079 1709.171997,1100.494995 
	C1705.822021,1104.672241 1704.313843,1109.188477 1706.977417,1114.347656 
	C1709.463379,1119.162842 1713.819214,1120.282593 1718.726929,1120.314819 
	C1721.059692,1120.330078 1723.392456,1120.329468 1725.725220,1120.329468 
	C1888.687012,1120.330078 2051.648926,1120.330200 2214.610596,1120.329956 
	C2216.610107,1120.329956 2218.611328,1120.381958 2220.608887,1120.316284 
	C2235.719971,1119.819458 2248.025879,1114.156860 2257.678223,1102.036133 
	C2309.477295,1036.992310 2361.408936,972.053284 2413.547607,907.281677 
	C2421.908203,896.895386 2425.769775,885.725464 2425.761475,872.455994 
	C2425.628906,662.838562 2425.668701,453.221039 2425.666504,243.603516 
	C2425.666504,240.604385 2425.762207,237.597961 2425.589600,234.607849 
	C2425.323242,229.995697 2422.409180,227.313416 2418.294189,226.142502 
	C2412.536377,224.504181 2408.115723,226.507004 2404.420410,231.336365 
	C2396.539062,241.635757 2388.323242,251.679794 2380.218506,261.807526 
	C2313.923584,344.649353 2247.622559,427.486481 2180.440186,511.449615 
z"/>
<path fill="#FF4655" opacity="1.000000" stroke="none" 
	d="
M815.780151,248.219299 
	C991.829468,468.263000 1167.392822,687.784546 1342.999512,907.271484 
	C1514.659180,1121.824951 1686.363525,1336.342651 1858.042725,1550.880493 
	C1860.120239,1553.476685 1862.317383,1556.005493 1864.128540,1558.781372 
	C1869.588257,1567.148926 1865.222778,1575.873169 1855.444824,1576.309326 
	C1853.448853,1576.398438 1851.445679,1576.328491 1849.445801,1576.328491 
	C1684.121582,1576.328735 1518.797241,1576.242065 1353.473267,1576.461792 
	C1336.818604,1576.484009 1324.129028,1570.577393 1313.770264,1557.618530 
	C1140.118408,1340.381958 966.363037,1123.228149 792.543396,906.125854 
	C785.122986,896.857727 781.572571,886.810852 781.579163,874.908386 
	C781.696106,663.586792 781.663757,452.265106 781.664124,240.943436 
	C781.664124,239.276871 781.760193,237.604614 781.655762,235.944809 
	C781.368835,231.383652 783.269775,228.070938 787.532715,226.567535 
	C792.159363,224.935837 796.850952,224.788452 800.355103,229.005295 
	C805.451965,235.138794 810.337585,241.447800 815.780151,248.219299 
z"/>
<path fill="#FF4655" opacity="1.000000" stroke="none" 
	d="
M2180.881836,510.887329 
	C2247.622559,427.486481 2313.923584,344.649353 2380.218506,261.807526 
	C2388.323242,251.679794 2396.539062,241.635757 2404.420410,231.336365 
	C2408.115723,226.507004 2412.536377,224.504181 2418.294189,226.142502 
	C2422.409180,227.313416 2425.323242,229.995697 2425.589600,234.607849 
	C2425.762207,237.597961 2425.666504,240.604385 2425.666504,243.603516 
	C2425.668701,453.221039 2425.628906,662.838562 2425.761475,872.455994 
	C2425.769775,885.725464 2421.908203,896.895386 2413.547607,907.281677 
	C2361.408936,972.053284 2309.477295,1036.992310 2257.678223,1102.036133 
	C2248.025879,1114.156860 2235.719971,1119.819458 2220.608887,1120.316284 
	C2218.611328,1120.381958 2216.610107,1120.329956 2214.610596,1120.329956 
	C2051.648926,1120.330200 1888.687012,1120.330078 1725.725220,1120.329468 
	C1723.392456,1120.329468 1721.059692,1120.330078 1718.726929,1120.314819 
	C1713.819214,1120.282593 1709.463379,1119.162842 1706.977417,1114.347656 
	C1704.313843,1109.188477 1705.822021,1104.672241 1709.171997,1100.494995 
	C1717.703979,1089.856079 1726.303223,1079.270874 1734.821411,1068.620972 
	C1883.365845,882.901001 2031.902222,697.174622 2180.881836,510.887329 
z"/>
<path fill="#F14250" opacity="1.000000" stroke="none" 
	d="
M2396.605469,1100.189575 
	C2395.915527,1106.822266 2397.135498,1113.671143 2395.523193,1121.585083 
	C2390.958252,1115.653198 2390.700439,1112.316650 2391.953613,1088.998047 
	C2392.454590,1088.614990 2392.931152,1087.950928 2393.462646,1087.903564 
	C2395.087402,1087.758667 2396.733643,1087.850952 2399.010254,1087.850952 
	C2402.041260,1094.967041 2405.111084,1102.174683 2408.939941,1111.164307 
	C2411.796143,1103.843628 2414.222900,1098.242065 2416.153320,1092.474365 
	C2417.637451,1088.040894 2420.245605,1086.762329 2425.739990,1088.612671 
	C2425.739990,1093.364868 2425.739990,1098.568970 2425.739990,1103.773071 
	C2425.739990,1109.035156 2425.739990,1114.297363 2425.739990,1119.713257 
	C2418.297852,1120.247437 2420.621338,1115.317261 2420.340332,1112.386230 
	C2420.006104,1108.900269 2420.261963,1105.357544 2418.549072,1101.466064 
	C2415.620117,1107.802246 2412.691406,1114.138550 2408.729736,1122.708862 
	C2404.855713,1113.959717 2401.969727,1107.441895 2398.595703,1099.975830 
	C2397.735352,1098.508545 2397.363037,1097.989380 2396.990723,1097.470215 
	C2396.862305,1098.376709 2396.733887,1099.283203 2396.605469,1100.189575 
z"/>
<path fill="#FF4655" opacity="1.000000" stroke="none" 
	d="
M2385.774902,1091.274536 
	C2382.876709,1091.631836 2379.978027,1091.989136 2375.882812,1092.493896 
	C2375.882812,1101.793091 2375.882812,1110.838013 2375.882812,1119.882935 
	C2374.992676,1119.930542 2374.102539,1119.978271 2373.212158,1120.025879 
	C2369.499512,1111.432373 2373.334961,1101.802246 2370.837158,1092.601562 
	C2368.124512,1091.919434 2365.204102,1091.185181 2362.283447,1090.450806 
	C2362.311035,1089.748291 2362.338623,1089.045898 2362.366211,1088.343506 
	C2369.519531,1086.966309 2376.886719,1087.954468 2385.001953,1088.456299 
	C2385.830078,1089.865479 2385.802490,1090.569946 2385.774902,1091.274536 
z"/>
<path fill="#BF3540" opacity="1.000000" stroke="none" 
	d="
M2386.333984,1091.247314 
	C2385.802490,1090.569946 2385.830078,1089.865479 2385.906738,1088.632324 
	C2386.268311,1089.142578 2386.580566,1090.181396 2386.333984,1091.247314 
z"/>
<path fill="#401215" opacity="1.000000" stroke="none" 
	d="
M2396.958496,1100.242065 
	C2396.733887,1099.283203 2396.862305,1098.376709 2396.990723,1097.470215 
	C2397.363037,1097.989380 2397.735352,1098.508545 2398.038574,1099.523071 
	C2397.969482,1100.018433 2397.311279,1100.294556 2396.958496,1100.242065 
z"/>
</svg>