<svg version="1.1" id="Layer_1" xmlns="http://www.w3.org/2000/svg" xmlns:xlink="http://www.w3.org/1999/xlink" x="0px" y="0px"
	 width="100%" viewBox="0 0 304 325" enable-background="new 0 0 304 325" xml:space="preserve">
<path fill="#D5C280" opacity="1.000000" stroke="none" 
	d="
M1.000000,51.000000 
	C1.000000,34.354866 1.000000,17.709730 1.000000,1.000000 
	C97.020882,1.000000 193.041779,1.000000 289.282288,1.417500 
	C289.616272,7.554946 289.730652,13.274893 289.389282,18.996262 
	C233.162903,18.998428 177.392242,19.039433 121.621819,18.941528 
	C115.633240,18.931017 109.389832,19.156506 105.472931,15.323417 
	C101.880859,16.742073 99.110001,18.683165 96.260170,18.807009 
	C86.788605,19.218611 77.288330,18.936495 67.799782,19.010769 
	C64.999886,19.032686 63.830482,17.774584 64.430954,15.037335 
	C73.430458,14.948487 82.007492,15.002113 90.575859,14.755032 
	C92.276184,14.706000 93.943245,13.503665 95.625648,12.833165 
	C94.474846,11.602613 93.537361,9.700055 92.137047,9.255539 
	C85.359230,7.103999 78.555435,4.288177 71.581001,3.638460 
	C48.291946,1.468923 27.763626,7.170761 12.885788,27.286392 
	C9.577706,33.900055 6.479475,40.242741 3.354919,46.572426 
	C2.615326,48.070683 1.787330,49.525307 1.000000,51.000000 
z"/>
<path fill="#9D743B" opacity="1.000000" stroke="none" 
	d="
M290.000000,326.000000 
	C222.645767,326.000000 155.291550,326.000000 87.733276,325.766846 
	C91.739861,323.431671 96.425880,321.936554 100.055794,319.093140 
	C106.367355,314.149170 112.026802,308.372711 118.197357,303.262939 
	C120.798416,304.053772 123.161186,304.936493 125.525215,304.939911 
	C180.309814,305.018829 235.094559,305.002289 289.910828,305.470764 
	C289.961609,312.625397 289.980804,319.312683 290.000000,326.000000 
z"/>
<path fill="#73552C" opacity="1.000000" stroke="none" 
	d="
M117.959656,302.945251 
	C112.026802,308.372711 106.367355,314.149170 100.055794,319.093140 
	C96.425880,321.936554 91.739861,323.431671 87.264618,325.766846 
	C78.312439,326.000000 69.624870,326.000000 60.211281,325.758514 
	C57.997139,324.633057 56.560413,323.643951 55.010506,322.886383 
	C51.455013,321.148560 47.400677,320.096680 44.348457,317.733582 
	C38.003906,312.821472 32.178635,307.238708 26.010254,301.624084 
	C24.895412,299.562531 23.910240,297.808533 23.168447,295.738708 
	C28.295794,294.931152 33.179760,294.439392 38.374550,294.101257 
	C48.061478,300.336334 58.290691,303.063141 69.456802,302.006531 
	C79.666962,301.040405 88.775520,297.605530 96.261292,289.807892 
	C100.430138,283.779755 104.310013,277.921112 108.598610,272.038147 
	C116.301552,272.021118 123.595787,272.028412 130.785660,272.402863 
	C130.136353,275.511078 129.591400,278.252136 128.887909,281.321930 
	C125.139465,288.748871 121.549561,295.847046 117.959656,302.945251 
z"/>
<path fill="#B38B4B" opacity="1.000000" stroke="none" 
	d="
M1.000000,248.000000 
	C1.000000,191.312439 1.000000,134.624878 1.388952,77.668533 
	C1.948621,79.190559 2.254236,80.980324 2.268103,82.772354 
	C2.356300,94.170189 2.380126,105.568535 2.387828,117.436432 
	C2.377345,126.246101 2.404196,134.586044 2.387425,143.396576 
	C2.370706,150.563934 2.397608,157.260696 2.370341,164.426788 
	C2.352045,170.901718 2.387918,176.907364 2.365754,183.382965 
	C2.340472,190.206528 2.373225,196.560120 2.341026,203.383240 
	C2.223205,210.331879 2.319895,216.816940 2.061169,223.287796 
	C1.906883,227.146561 3.640501,228.054047 7.138256,228.044846 
	C39.211079,227.960510 71.284309,228.022354 103.356979,227.912231 
	C104.901115,227.906937 106.441116,226.692139 108.324387,226.046997 
	C109.120781,226.053604 109.575821,226.053818 110.160065,226.378723 
	C111.827797,227.129990 113.366348,227.556564 114.869141,228.389847 
	C113.860405,236.189545 112.887421,243.582550 111.451180,250.981979 
	C98.307610,250.998138 85.627296,251.007858 72.877975,250.662231 
	C71.621773,244.650055 67.979851,241.327850 62.484814,240.343842 
	C58.184624,239.573807 53.496124,242.961899 50.464775,247.994797 
	C33.667046,247.997269 17.333523,247.998627 1.000000,248.000000 
z"/>
<path fill="#808080" opacity="1.000000" stroke="none" 
	d="
M290.472656,326.000000 
	C289.980804,319.312683 289.961609,312.625397 289.948914,305.002930 
	C289.930695,296.712524 289.905975,289.357300 289.917419,281.534332 
	C289.929535,274.044128 289.905487,267.021667 289.917908,259.531738 
	C289.930023,252.376129 289.905701,245.687973 289.917725,238.532501 
	C289.929443,231.709900 289.904816,225.354630 289.916565,218.531830 
	C289.932068,209.716888 289.911163,201.369492 290.055237,192.713837 
	C293.817230,184.952988 297.414215,177.500412 301.214539,169.846848 
	C301.575897,169.109894 301.733917,168.573944 301.923218,167.789948 
	C301.954468,167.541916 302.007843,167.044785 302.232788,166.773422 
	C303.305176,165.001373 304.152588,163.500687 305.000000,162.000000 
	C305.000000,216.666687 305.000000,271.333374 305.000000,326.000000 
	C300.255371,326.000000 295.600342,326.000000 290.472656,326.000000 
z"/>
<path fill="#808080" opacity="1.000000" stroke="none" 
	d="
M289.845032,18.994839 
	C289.730652,13.274893 289.616272,7.554946 289.750946,1.417500 
	C294.985840,1.000000 299.971710,1.000000 305.000000,1.000000 
	C305.000000,47.354221 305.000000,93.708450 304.679962,140.478897 
	C303.928864,140.927689 303.497772,140.960281 303.040619,140.593155 
	C300.032135,133.458740 297.049744,126.724052 293.995361,119.658173 
	C292.914368,117.843521 291.905365,116.360062 290.882751,114.597427 
	C290.576294,113.866241 290.283417,113.414223 289.981934,112.979965 
	C289.973297,112.997726 290.009460,113.010094 290.002075,112.540855 
	C289.946930,99.045296 289.899170,86.018967 289.895905,72.526337 
	C289.909760,65.038246 289.879120,58.016468 289.895142,50.530807 
	C289.909851,45.375961 289.877838,40.684994 289.890106,35.528706 
	C289.904602,29.707201 289.874817,24.351019 289.845032,18.994839 
z"/>
<path fill="#9D743B" opacity="1.000000" stroke="none" 
	d="
M26.139923,301.931580 
	C32.178635,307.238708 38.003906,312.821472 44.348457,317.733582 
	C47.400677,320.096680 51.455013,321.148560 55.010506,322.886383 
	C56.560413,323.643951 57.997139,324.633057 59.742630,325.758514 
	C40.438896,326.000000 20.877796,326.000000 1.000000,326.000000 
	C1.000000,318.648865 1.000000,311.293152 1.468317,303.448792 
	C10.004396,302.617249 18.072159,302.274414 26.139923,301.931580 
z"/>
<path fill="#B18849" opacity="1.000000" stroke="none" 
	d="
M1.000000,248.468658 
	C17.333523,247.998627 33.667046,247.997269 50.476936,248.430359 
	C52.002254,252.572266 53.051208,256.279724 53.707748,260.145386 
	C51.347946,260.535278 49.381870,260.953552 47.412937,260.967468 
	C36.928410,261.041656 26.443163,261.014587 15.557389,261.010223 
	C12.019156,260.918579 11.839651,263.082489 12.027102,265.321503 
	C12.298182,268.559448 12.740787,271.783051 12.720156,275.162170 
	C8.553397,275.541046 4.776699,275.770508 1.000000,276.000000 
	C1.000000,266.979095 1.000000,257.958221 1.000000,248.468658 
z"/>
<path fill="#B79552" opacity="1.000000" stroke="none" 
	d="
M1.000000,51.399994 
	C1.787330,49.525307 2.615326,48.070683 3.354919,46.572426 
	C6.479475,40.242741 9.577706,33.900055 13.345415,27.284592 
	C20.435705,27.005981 26.871954,26.852293 33.293053,27.096626 
	C35.224758,27.170128 37.114323,28.351009 38.849689,29.311859 
	C37.672924,31.334618 36.669662,33.070122 35.378609,34.967648 
	C33.089085,40.086102 31.087358,45.042534 29.040937,50.345695 
	C28.645103,51.797173 28.293964,52.901917 27.477768,54.005680 
	C18.341806,54.336468 9.670903,54.668232 1.000000,55.000000 
	C1.000000,53.933331 1.000000,52.866661 1.000000,51.399994 
z"/>
<path fill="#C6B46A" opacity="1.000000" stroke="none" 
	d="
M2.425161,116.966705 
	C2.380126,105.568535 2.356300,94.170189 2.268103,82.772354 
	C2.254236,80.980324 1.948621,79.190559 1.388952,77.199875 
	C1.000000,73.307091 1.000000,69.614182 1.209925,65.763992 
	C2.924185,69.410965 4.428519,73.215218 5.979040,77.398552 
	C10.821969,93.361198 20.905378,104.870758 33.889389,114.434135 
	C31.943417,115.533928 30.113346,116.852409 28.251337,116.899170 
	C19.647472,117.115250 11.034725,116.977592 2.425161,116.966705 
z"/>
<path fill="#B48E4D" opacity="1.000000" stroke="none" 
	d="
M5.932854,77.019470 
	C4.428519,73.215218 2.924185,69.410965 1.209925,65.303360 
	C1.000000,61.969406 1.000000,58.938812 1.000000,55.454109 
	C9.670903,54.668232 18.341806,54.336468 27.493092,54.463917 
	C28.700457,60.941772 29.427437,66.960411 30.246254,73.280090 
	C30.528776,74.393311 30.719463,75.205505 30.450123,76.013863 
	C21.971014,76.346512 13.951934,76.682991 5.932854,77.019470 
z"/>
<path fill="#987A45" opacity="1.000000" stroke="none" 
	d="
M303.066711,140.992859 
	C303.497772,140.960281 303.928864,140.927689 304.679962,140.947556 
	C305.000000,147.687637 305.000000,154.375290 305.000000,161.531464 
	C304.152588,163.500687 303.305176,165.001373 301.825592,166.678986 
	C296.193634,166.580399 291.193878,166.304901 286.122375,165.771149 
	C286.011292,165.338593 285.971924,165.164307 285.950928,164.566193 
	C284.654388,158.760864 283.339417,153.379333 281.963074,147.650665 
	C280.912109,145.205002 279.922607,143.106445 279.322784,140.848541 
	C287.497223,140.790390 295.281982,140.891617 303.066711,140.992859 
z"/>
<path fill="#A37A3F" opacity="1.000000" stroke="none" 
	d="
M1.000000,276.468658 
	C4.776699,275.770508 8.553397,275.541046 12.932257,275.438416 
	C16.664633,282.395020 19.794847,289.224762 22.925066,296.054504 
	C23.910240,297.808533 24.895412,299.562531 26.010254,301.624084 
	C18.072159,302.274414 10.004396,302.617249 1.468317,302.980042 
	C1.000000,294.312439 1.000000,285.624878 1.000000,276.468658 
z"/>
<path fill="#D3C07D" opacity="1.000000" stroke="none" 
	d="
M35.666405,34.805626 
	C36.669662,33.070122 37.672924,31.334618 39.135941,29.141985 
	C46.452995,21.853682 54.438175,17.045296 64.005440,15.074272 
	C63.830482,17.774584 64.999886,19.032686 67.799782,19.010769 
	C77.288330,18.936495 86.788605,19.218611 96.260170,18.807009 
	C99.110001,18.683165 101.880859,16.742073 105.472931,15.323417 
	C109.389832,19.156506 115.633240,18.931017 121.621819,18.941528 
	C177.392242,19.039433 233.162903,18.998428 289.389282,18.996262 
	C289.874817,24.351019 289.904602,29.707201 289.434418,35.530354 
	C207.278503,35.998211 125.622543,36.010815 43.966640,35.949711 
	C41.199612,35.947639 38.433136,35.203743 35.666405,34.805626 
z"/>
<path fill="#B99A56" opacity="1.000000" stroke="none" 
	d="
M64.430954,15.037335 
	C54.438175,17.045296 46.452995,21.853682 39.309441,28.854729 
	C37.114323,28.351009 35.224758,27.170128 33.293053,27.096626 
	C26.871954,26.852293 20.435705,27.005981 13.545637,27.008860 
	C27.763626,7.170761 48.291946,1.468923 71.581001,3.638460 
	C78.555435,4.288177 85.359230,7.103999 92.137047,9.255539 
	C93.537361,9.700055 94.474846,11.602613 95.625648,12.833165 
	C93.943245,13.503665 92.276184,14.706000 90.575859,14.755032 
	C82.007492,15.002113 73.430458,14.948487 64.430954,15.037335 
z"/>
<path fill="#A37A3F" opacity="1.000000" stroke="none" 
	d="
M289.881287,282.002045 
	C289.905975,289.357300 289.930695,296.712524 289.917328,304.535614 
	C235.094559,305.002289 180.309814,305.018829 125.525215,304.939911 
	C123.161186,304.936493 120.798416,304.053772 118.197357,303.262939 
	C121.549561,295.847046 125.139465,288.748871 129.292221,281.407684 
	C132.483765,281.443146 135.112213,281.961914 137.741165,281.964447 
	C188.454498,282.013123 239.167908,282.001343 289.881287,282.002045 
z"/>
<path fill="#AA8144" opacity="1.000000" stroke="none" 
	d="
M289.917419,281.534332 
	C239.167908,282.001343 188.454498,282.013123 137.741165,281.964447 
	C135.112213,281.961914 132.483765,281.443146 129.450775,281.078949 
	C129.591400,278.252136 130.136353,275.511078 130.857986,271.987732 
	C131.441071,267.456390 131.847473,263.707306 132.697968,259.969025 
	C185.388535,259.986267 237.634979,259.992737 289.881439,259.999176 
	C289.905487,267.021667 289.929535,274.044128 289.917419,281.534332 
z"/>
<path fill="#AA8144" opacity="1.000000" stroke="none" 
	d="
M15.958166,261.022583 
	C26.443163,261.014587 36.928410,261.041656 47.412937,260.967468 
	C49.381870,260.953552 51.347946,260.535278 54.043610,260.303833 
	C64.276871,264.616638 70.086418,261.648254 72.946983,251.017578 
	C85.627296,251.007858 98.307610,250.998138 111.480865,251.411133 
	C110.712509,258.576721 109.451202,265.319611 108.189896,272.062469 
	C104.310013,277.921112 100.430138,283.779755 95.879631,289.648468 
	C93.913704,289.440521 92.618874,289.035950 91.323044,289.032684 
	C73.949623,288.989136 56.575951,288.976440 39.202713,289.047272 
	C37.797676,289.053009 36.395363,289.726471 34.706856,289.907349 
	C25.433605,281.980438 20.451248,271.658875 15.958166,261.022583 
z"/>
<path fill="#7F6034" opacity="1.000000" stroke="none" 
	d="
M108.598602,272.038147 
	C109.451202,265.319611 110.712509,258.576721 111.944122,251.404694 
	C112.887421,243.582550 113.860405,236.189545 114.934998,228.009598 
	C116.972160,218.406113 121.146378,210.769150 127.480171,203.941193 
	C131.441864,201.509338 135.129822,199.262100 138.817764,197.014877 
	C139.052628,197.374069 139.287491,197.733261 139.522354,198.092453 
	C139.320908,198.687241 139.119446,199.282028 138.665497,200.110962 
	C136.175125,206.532455 133.937241,212.719757 131.510010,219.279602 
	C131.292023,226.092422 131.263367,232.532700 131.259399,239.387573 
	C131.607346,246.520859 131.930603,253.239548 132.253845,259.958252 
	C131.847473,263.707306 131.441071,267.456390 130.962341,271.620575 
	C123.595787,272.028412 116.301552,272.021118 108.598602,272.038147 
z"/>
<path fill="#A37A3F" opacity="1.000000" stroke="none" 
	d="
M34.991779,290.089661 
	C36.395363,289.726471 37.797676,289.053009 39.202713,289.047272 
	C56.575951,288.976440 73.949623,288.989136 91.323044,289.032684 
	C92.618874,289.035950 93.913704,289.440521 95.590668,289.817963 
	C88.775520,297.605530 79.666962,301.040405 69.456802,302.006531 
	C58.290691,303.063141 48.061478,300.336334 38.208145,293.838745 
	C36.817871,292.311584 35.904823,291.200623 34.991779,290.089661 
z"/>
<path fill="#7F6034" opacity="1.000000" stroke="none" 
	d="
M34.706856,289.907349 
	C35.904823,291.200623 36.817871,292.311584 37.897324,293.685089 
	C33.179760,294.439392 28.295794,294.931152 23.168446,295.738708 
	C19.794847,289.224762 16.664633,282.395020 13.322315,275.289001 
	C12.740787,271.783051 12.298182,268.559448 12.027102,265.321503 
	C11.839651,263.082489 12.019156,260.918579 15.557389,261.010254 
	C20.451248,271.658875 25.433605,281.980438 34.706856,289.907349 
z"/>
<path fill="#B79552" opacity="1.000000" stroke="none" 
	d="
M107.983047,226.040604 
	C106.441116,226.692139 104.901115,227.906937 103.356979,227.912231 
	C71.284309,228.022354 39.211079,227.960510 7.138256,228.044846 
	C3.640501,228.054047 1.906883,227.146561 2.061169,223.287796 
	C2.319895,216.816940 2.223205,210.331879 2.775900,203.408173 
	C31.433641,202.975357 59.591599,203.009506 87.749374,202.953812 
	C89.861725,202.949631 91.972816,202.303696 94.320129,202.202103 
	C99.031525,210.312271 103.507286,218.176437 107.983047,226.040604 
z"/>
<path fill="#917340" opacity="1.000000" stroke="none" 
	d="
M108.324387,226.046997 
	C103.507286,218.176437 99.031525,210.312271 94.231003,201.838623 
	C92.586655,195.149582 91.267082,189.070023 89.981812,182.575592 
	C91.051086,176.448257 92.086060,170.735764 93.535477,165.007462 
	C100.057175,165.031204 106.164429,165.070770 112.213058,165.530121 
	C111.668365,172.680267 111.182281,179.410614 110.696205,186.140976 
	C111.219826,186.247467 111.743454,186.353973 112.267082,186.460480 
	C120.748253,176.044174 132.849335,172.439575 145.245407,169.034103 
	C150.019821,169.532547 154.466049,169.731033 158.907440,170.007187 
	C164.004562,170.324112 169.097412,170.709885 174.002228,171.348480 
	C167.435181,176.355804 161.057999,181.080414 154.315704,185.844162 
	C150.341110,186.992752 146.703491,188.018967 143.127884,189.228455 
	C134.904724,192.009995 127.353287,195.868927 121.637238,203.149673 
	C114.958534,209.595352 111.926498,217.541656 110.030869,226.054016 
	C109.575821,226.053818 109.120781,226.053604 108.324387,226.046997 
z"/>
<path fill="#BFA75E" opacity="1.000000" stroke="none" 
	d="
M2.424510,163.957474 
	C2.397608,157.260696 2.370706,150.563934 2.823792,143.416702 
	C28.923132,142.971329 54.542484,142.976410 80.432991,143.160446 
	C83.106194,146.651291 85.508240,149.963181 87.910294,153.275085 
	C88.453407,153.112045 88.996521,152.949005 89.539635,152.785965 
	C88.706818,146.851913 87.873993,140.917877 87.398590,134.983963 
	C88.847954,134.641571 89.939896,134.299042 91.279877,134.175110 
	C92.325066,135.929962 93.122208,137.466232 93.932205,139.470825 
	C93.604141,147.955933 93.263222,155.972702 92.458527,163.992065 
	C62.138000,163.982269 32.281254,163.969864 2.424510,163.957474 
z"/>
<path fill="#B99A56" opacity="1.000000" stroke="none" 
	d="
M89.947502,182.990463 
	C91.267082,189.070023 92.586655,195.149582 93.995361,201.592621 
	C91.972816,202.303696 89.861725,202.949631 87.749374,202.953812 
	C59.591599,203.009506 31.433641,202.975357 2.840853,202.938629 
	C2.373225,196.560120 2.340472,190.206528 2.800102,183.407562 
	C32.177490,182.971603 61.062496,182.981033 89.947502,182.990463 
z"/>
<path fill="#BDA15A" opacity="1.000000" stroke="none" 
	d="
M89.981812,182.575592 
	C61.062496,182.981033 32.177490,182.971603 2.858138,182.937592 
	C2.387918,176.907364 2.352045,170.901718 2.370341,164.426788 
	C32.281254,163.969864 62.138000,163.982269 92.505646,164.251114 
	C93.051361,164.679459 93.086189,164.851364 93.121025,165.023285 
	C92.086060,170.735764 91.051086,176.448257 89.981812,182.575592 
z"/>
<path fill="#C3B065" opacity="1.000000" stroke="none" 
	d="
M80.161835,142.981491 
	C54.542484,142.976410 28.923132,142.971329 2.867413,142.946121 
	C2.404196,134.586044 2.377345,126.246101 2.387828,117.436432 
	C11.034725,116.977592 19.647472,117.115250 28.251337,116.899170 
	C30.113346,116.852409 31.943417,115.533928 34.182510,114.578735 
	C35.967884,114.938126 37.358944,115.519966 38.973892,116.370239 
	C44.417953,119.471756 49.488815,122.637047 54.891056,125.065041 
	C64.530899,129.397583 73.530907,134.476013 80.161835,142.981491 
z"/>
<path fill="#7F6034" opacity="1.000000" stroke="none" 
	d="
M72.877975,250.662231 
	C70.086418,261.648254 64.276871,264.616638 54.436020,260.145630 
	C53.051208,256.279724 52.002254,252.572266 50.941139,248.429245 
	C53.496124,242.961899 58.184624,239.573807 62.484814,240.343842 
	C67.979851,241.327850 71.621773,244.650055 72.877975,250.662231 
z"/>
<path fill="#B79552" opacity="1.000000" stroke="none" 
	d="
M110.160065,226.378723 
	C111.926498,217.541656 114.958534,209.595352 122.028397,203.160522 
	C124.204697,203.373398 125.705559,203.749619 127.206429,204.125839 
	C121.146378,210.769150 116.972160,218.406113 114.970749,227.602890 
	C113.366348,227.556564 111.827797,227.129990 110.160065,226.378723 
z"/>
<path fill="#B18849" opacity="1.000000" stroke="none" 
	d="
M132.697968,259.969025 
	C131.930603,253.239548 131.607346,246.520859 131.703812,239.394287 
	C184.709473,238.990906 237.295410,238.995377 289.881348,238.999832 
	C289.905701,245.687973 289.930023,252.376129 289.917908,259.531738 
	C237.634979,259.992737 185.388535,259.986267 132.697968,259.969025 
z"/>
<path fill="#B48E4D" opacity="1.000000" stroke="none" 
	d="
M289.917725,238.532501 
	C237.295410,238.995377 184.709473,238.990906 131.679123,238.979706 
	C131.263367,232.532700 131.292023,226.092422 132.009766,219.304718 
	C168.341232,218.971542 203.983871,219.048645 239.625763,218.921936 
	C244.177795,218.905746 248.718719,217.756836 253.280304,217.281403 
	C254.721191,217.131256 256.226990,217.373505 257.677765,217.598999 
	C260.260925,218.000519 262.817169,218.878769 265.398163,218.934662 
	C273.555481,219.111282 281.719055,218.999542 289.880188,218.999359 
	C289.904816,225.354630 289.929443,231.709900 289.917725,238.532501 
z"/>
<path fill="#B79552" opacity="1.000000" stroke="none" 
	d="
M289.916565,218.531830 
	C281.719055,218.999542 273.555481,219.111282 265.398163,218.934662 
	C262.817169,218.878769 260.260925,218.000519 257.677765,217.598999 
	C256.226990,217.373505 254.721191,217.131256 253.280304,217.281403 
	C248.718719,217.756836 244.177795,218.905746 239.625763,218.921936 
	C203.983871,219.048645 168.341232,218.971542 132.199097,218.932190 
	C133.937241,212.719757 136.175125,206.532455 138.905075,200.436203 
	C141.748566,201.018143 144.098907,201.931274 146.451523,201.937180 
	C188.012329,202.041550 229.573410,202.035385 271.033295,202.403763 
	C270.593567,204.672379 270.254944,206.590363 269.916351,208.508331 
	C271.828735,207.860062 274.164459,207.700043 275.576996,206.475296 
	C280.520081,202.189270 285.144684,197.535934 289.890259,193.022095 
	C289.911163,201.369492 289.932068,209.716888 289.916565,218.531830 
z"/>
<path fill="#917340" opacity="1.000000" stroke="none" 
	d="
M290.055237,192.713837 
	C285.144684,197.535934 280.520081,202.189270 275.576996,206.475296 
	C274.164459,207.700043 271.828735,207.860062 269.916351,208.508331 
	C270.254944,206.590363 270.593567,204.672379 271.302551,202.212753 
	C274.452484,197.119553 277.232025,192.567993 280.253723,187.763275 
	C282.395294,180.349854 284.294678,173.189636 286.194092,166.029404 
	C291.193878,166.304901 296.193634,166.580399 301.600647,166.950348 
	C302.007843,167.044785 301.954468,167.541916 301.741241,168.001343 
	C301.355743,168.989792 301.183472,169.518829 301.011200,170.047852 
	C297.414215,177.500412 293.817230,184.952988 290.055237,192.713837 
z"/>
<path fill="#987A45" opacity="1.000000" stroke="none" 
	d="
M301.214539,169.846848 
	C301.183472,169.518829 301.355743,168.989792 301.709961,168.249390 
	C301.733917,168.573944 301.575897,169.109894 301.214539,169.846848 
z"/>
<path fill="#CAB870" opacity="1.000000" stroke="none" 
	d="
M30.910152,76.017693 
	C30.719463,75.205505 30.528776,74.393311 30.699001,73.285782 
	C117.323746,72.991180 203.587585,72.991913 289.851410,72.992645 
	C289.899170,86.018967 289.946930,99.045296 289.655090,112.510841 
	C281.529327,107.024330 273.787476,101.199539 263.883026,98.908813 
	C249.778152,95.646576 235.918488,96.354820 221.746323,99.897453 
	C219.773773,99.425880 218.143463,99.028168 216.512924,99.027168 
	C163.549164,98.994637 110.585365,98.988205 57.621655,99.049248 
	C55.716225,99.051445 53.811630,99.775002 51.577744,100.058952 
	C41.866737,94.187492 35.348965,85.985779 30.910152,76.017693 
z"/>
<path fill="#CEBB76" opacity="1.000000" stroke="none" 
	d="
M289.895905,72.526337 
	C203.587585,72.991913 117.323746,72.991180 30.607168,72.984749 
	C29.427437,66.960411 28.700457,60.941772 27.958149,54.464897 
	C28.293964,52.901917 28.645103,51.797173 29.441113,50.431499 
	C32.176971,50.446983 34.466228,50.944637 36.759243,50.962635 
	C48.537186,51.055084 60.316101,51.024212 71.922592,51.354706 
	C67.052521,60.394764 70.437134,69.188026 78.757729,70.004242 
	C83.626480,70.481850 87.272507,68.429901 89.617645,64.418678 
	C92.383865,59.687218 91.196312,55.153156 88.434021,51.009453 
	C155.886154,51.002579 222.867310,50.998638 289.848450,50.994694 
	C289.879120,58.016468 289.909760,65.038246 289.895905,72.526337 
z"/>
<path fill="#D1BE79" opacity="1.000000" stroke="none" 
	d="
M72.094673,51.036419 
	C60.316101,51.024212 48.537186,51.055084 36.759243,50.962635 
	C34.466228,50.944637 32.176971,50.446983 29.485806,50.084770 
	C31.087358,45.042534 33.089085,40.086102 35.378609,34.967648 
	C38.433136,35.203743 41.199612,35.947639 43.966640,35.949711 
	C125.622543,36.010815 207.278503,35.998211 289.390137,35.995678 
	C289.877838,40.684994 289.909851,45.375961 289.895172,50.530807 
	C222.867310,50.998638 155.886154,51.002579 88.127365,50.827347 
	C82.161942,46.738972 77.097496,47.677086 72.094673,51.036419 
z"/>
<path fill="#A3854C" opacity="1.000000" stroke="none" 
	d="
M222.088455,100.156265 
	C235.918488,96.354820 249.778152,95.646576 263.883026,98.908813 
	C273.787476,101.199539 281.529327,107.024330 289.662476,112.980080 
	C290.009460,113.010094 289.973297,112.997726 289.984558,113.260841 
	C290.295990,113.974838 290.596161,114.425720 290.896362,114.876602 
	C291.905365,116.360062 292.914368,117.843521 293.519745,119.661697 
	C282.701813,119.997704 272.285034,119.879189 261.875061,120.092392 
	C259.544250,120.140144 257.237274,121.350258 254.509048,122.016739 
	C246.720810,121.624451 239.342834,121.240654 231.829224,120.529694 
	C229.072327,119.468658 226.464828,118.164673 223.827393,118.100975 
	C213.188889,117.844040 202.541122,117.969856 191.922516,117.719238 
	C191.948257,117.484161 192.011505,117.015442 192.305954,116.852081 
	C194.900513,115.062782 197.064331,113.183723 199.526215,111.858261 
	C206.984985,107.842484 214.559204,104.041145 222.088455,100.156265 
z"/>
<path fill="#9F814A" opacity="1.000000" stroke="none" 
	d="
M254.919327,122.025246 
	C257.237274,121.350258 259.544250,120.140144 261.875061,120.092392 
	C272.285034,119.879189 282.701813,119.997704 293.591736,119.992889 
	C297.049744,126.724052 300.032135,133.458740 303.040619,140.593140 
	C295.281982,140.891617 287.497223,140.790390 279.039062,140.674225 
	C275.517456,137.307220 273.122833,133.362656 269.709045,130.749451 
	C265.196960,127.295532 259.886566,124.884529 254.919327,122.025246 
z"/>
<path fill="#CAB870" opacity="1.000000" stroke="none" 
	d="
M290.882751,114.597435 
	C290.596161,114.425720 290.295990,113.974838 289.993164,113.243080 
	C290.283417,113.414223 290.576294,113.866241 290.882751,114.597435 
z"/>
<path fill="#A3854C" opacity="1.000000" stroke="none" 
	d="
M30.450123,76.013863 
	C35.348965,85.985779 41.866737,94.187492 51.774281,100.324219 
	C57.908272,105.069664 63.516819,109.446434 68.780533,114.083328 
	C65.313881,114.562508 62.193954,114.814407 59.069859,114.993843 
	C52.297703,115.382828 45.523418,115.734741 38.750004,116.101807 
	C37.358944,115.519966 35.967884,114.938126 34.283703,114.211670 
	C20.905378,104.870758 10.821969,93.361198 5.979040,77.398552 
	C13.951934,76.682991 21.971014,76.346512 30.450123,76.013863 
z"/>
<path fill="#C3B065" opacity="1.000000" stroke="none" 
	d="
M254.509048,122.016739 
	C259.886566,124.884529 265.196960,127.295532 269.709045,130.749451 
	C273.122833,133.362656 275.517456,137.307220 278.649353,140.833588 
	C279.922607,143.106445 280.912109,145.205002 281.540466,147.679626 
	C279.045868,148.368011 276.913086,148.946838 274.778961,148.952072 
	C248.966690,149.015244 223.153946,149.043442 197.342300,148.903046 
	C195.202469,148.891418 193.069656,147.589676 190.996613,146.552795 
	C191.231979,145.051788 191.404358,143.885330 191.462662,143.490814 
	C183.805603,143.793808 176.597733,144.412735 169.403595,144.280914 
	C159.986618,144.108337 152.746048,138.373718 144.920593,133.518066 
	C137.472000,127.913689 130.218002,122.570312 123.288544,116.959442 
	C124.734680,116.463753 125.855873,116.038841 126.977921,116.036560 
	C147.235397,115.995361 167.493042,115.984840 187.750397,116.047562 
	C189.171753,116.051956 190.591187,116.678314 192.011505,117.015442 
	C192.011505,117.015442 191.948257,117.484161 191.598175,117.813950 
	C179.683151,126.339622 167.147110,131.679062 152.475159,131.184647 
	C160.373032,138.152832 169.657425,141.392197 179.565552,139.325226 
	C188.724869,137.414459 197.471664,133.476395 206.353897,130.301758 
	C214.921646,127.239517 223.430283,124.011856 231.964874,120.856857 
	C239.342834,121.240654 246.720810,121.624451 254.509048,122.016739 
z"/>
<path fill="#BDA15A" opacity="1.000000" stroke="none" 
	d="
M286.122375,165.771149 
	C284.294678,173.189636 282.395294,180.349854 279.909149,187.531036 
	C277.184540,187.367371 275.046783,187.023727 272.908722,187.021820 
	C236.097839,186.988907 199.286850,187.022247 162.476074,186.946808 
	C159.876892,186.941483 157.279205,186.202713 154.680832,185.805008 
	C161.057999,181.080414 167.435181,176.355804 174.252548,171.180099 
	C175.793716,169.819046 176.894684,168.909103 178.347900,168.156082 
	C181.768082,168.874847 184.830017,169.879715 187.905029,169.921402 
	C200.844131,170.096863 213.787155,169.984665 226.786575,170.392395 
	C226.597900,175.757996 228.694565,179.460602 233.003693,181.791138 
	C237.030365,183.968887 240.762238,182.497284 244.118454,180.180099 
	C248.558365,177.114731 249.277573,172.508713 247.327759,165.044403 
	C260.514648,165.017868 273.223602,165.003937 285.932556,164.990021 
	C285.971924,165.164307 286.011292,165.338593 286.122375,165.771149 
z"/>
<path fill="#BFA75E" opacity="1.000000" stroke="none" 
	d="
M285.950928,164.566208 
	C273.223602,165.003937 260.514648,165.017868 247.048218,164.851547 
	C238.093033,157.791840 229.617340,160.090973 226.728745,169.977722 
	C213.787155,169.984665 200.844131,170.096863 187.905029,169.921402 
	C184.830017,169.879715 181.768082,168.874847 178.511230,167.859680 
	C182.526093,160.566696 186.729843,153.727020 190.933594,146.887344 
	C193.069656,147.589676 195.202469,148.891418 197.342300,148.903046 
	C223.153946,149.043442 248.966690,149.015244 274.778961,148.952072 
	C276.913086,148.946838 279.045868,148.368011 281.601868,148.026749 
	C283.339417,153.379333 284.654388,158.760864 285.950928,164.566208 
z"/>
<path fill="#B99A56" opacity="1.000000" stroke="none" 
	d="
M154.315704,185.844162 
	C157.279205,186.202713 159.876892,186.941483 162.476074,186.946808 
	C199.286850,187.022247 236.097839,186.988907 272.908722,187.021820 
	C275.046783,187.023727 277.184540,187.367371 279.666992,187.784210 
	C277.232025,192.567993 274.452484,197.119553 271.403687,201.862122 
	C229.573410,202.035385 188.012329,202.041550 146.451523,201.937180 
	C144.098907,201.931274 141.748566,201.018143 139.157562,200.202026 
	C139.119446,199.282028 139.320908,198.687241 139.522354,198.092453 
	C139.287491,197.733261 139.052628,197.374069 138.817764,197.014877 
	C135.129822,199.262100 131.441864,201.509338 127.480171,203.941193 
	C125.705559,203.749619 124.204697,203.373398 122.312668,202.986328 
	C127.353287,195.868927 134.904724,192.009995 143.127884,189.228455 
	C146.703491,188.018967 150.341110,186.992752 154.315704,185.844162 
z"/>
<path fill="#987A45" opacity="1.000000" stroke="none" 
	d="
M190.996613,146.552795 
	C186.729843,153.727020 182.526093,160.566696 178.158997,167.702759 
	C176.894684,168.909103 175.793716,169.819046 174.442429,170.897369 
	C169.097412,170.709885 164.004562,170.324112 158.907440,170.007187 
	C154.466049,169.731033 150.019821,169.532547 145.252487,168.828369 
	C144.929245,168.357025 144.959473,167.942200 145.317841,167.887680 
	C149.248184,166.067627 152.820145,164.302109 155.684204,162.886490 
	C148.939865,159.087204 142.428650,155.900009 136.442795,151.922195 
	C129.402496,147.243652 122.817917,141.879318 116.210419,136.475098 
	C123.242020,135.759155 130.103973,135.451843 136.953339,134.966675 
	C139.688278,134.772949 142.395401,134.186646 145.115189,133.779053 
	C152.746048,138.373718 159.986618,144.108337 169.403595,144.280914 
	C176.597733,144.412735 183.805603,143.793808 191.462662,143.490814 
	C191.404358,143.885330 191.231979,145.051788 190.996613,146.552795 
z"/>
<path fill="#987A45" opacity="1.000000" stroke="none" 
	d="
M93.535477,165.007462 
	C93.086189,164.851364 93.051361,164.679459 92.969421,164.248505 
	C93.263222,155.972702 93.604141,147.955933 94.408722,139.470612 
	C100.624008,138.982376 106.375641,138.962723 112.349075,139.252579 
	C113.047050,141.476532 113.954254,143.398438 113.921249,145.304047 
	C113.806900,151.905945 113.365585,158.502182 112.854507,165.108414 
	C112.660324,165.116257 112.271675,165.110336 112.271675,165.110336 
	C106.164429,165.070770 100.057175,165.031204 93.535477,165.007462 
z"/>
<path fill="#BDA15A" opacity="1.000000" stroke="none" 
	d="
M112.213058,165.530121 
	C112.271675,165.110336 112.660324,165.116257 113.014519,165.451523 
	C116.374229,166.191193 119.368675,166.789169 122.387436,166.961838 
	C129.905548,167.391800 137.434738,167.628143 144.959473,167.942200 
	C144.959473,167.942200 144.929245,168.357025 144.922165,168.562744 
	C132.849335,172.439575 120.748253,176.044174 112.267082,186.460480 
	C111.743454,186.353973 111.219826,186.247467 110.696205,186.140976 
	C111.182281,179.410614 111.668365,172.680267 112.213058,165.530121 
z"/>
<path fill="#C6B46A" opacity="1.000000" stroke="none" 
	d="
M192.305954,116.852081 
	C190.591187,116.678314 189.171753,116.051956 187.750397,116.047562 
	C167.493042,115.984840 147.235397,115.995361 126.977921,116.036560 
	C125.855873,116.038841 124.734680,116.463753 122.911018,116.884979 
	C108.084641,111.854256 93.722229,109.194954 77.840347,112.862518 
	C79.490257,114.717133 80.904922,115.873444 81.765556,117.352203 
	C84.953262,122.829391 87.958214,128.412933 91.031837,133.956512 
	C89.939896,134.299042 88.847954,134.641571 87.228928,134.679993 
	C82.861145,125.799095 76.969368,118.976387 69.125366,113.823204 
	C63.516819,109.446434 57.908272,105.069664 52.103188,100.427628 
	C53.811630,99.775002 55.716225,99.051445 57.621655,99.049248 
	C110.585365,98.988205 163.549164,98.994637 216.512924,99.027168 
	C218.143463,99.028168 219.773773,99.425880 221.746323,99.897453 
	C214.559204,104.041145 206.984985,107.842484 199.526215,111.858261 
	C197.064331,113.183723 194.900513,115.062782 192.305954,116.852081 
z"/>
<path fill="#9F814A" opacity="1.000000" stroke="none" 
	d="
M91.279877,134.175110 
	C87.958214,128.412933 84.953262,122.829391 81.765556,117.352203 
	C80.904922,115.873444 79.490257,114.717133 77.840347,112.862518 
	C93.722229,109.194954 108.084641,111.854256 122.586479,117.152473 
	C130.218002,122.570312 137.472000,127.913689 144.920593,133.518066 
	C142.395401,134.186646 139.688278,134.772949 136.953339,134.966675 
	C130.103973,135.451843 123.242020,135.759155 115.905891,136.377808 
	C114.257248,136.215103 113.087830,135.812408 111.343910,135.211884 
	C111.685814,136.840378 111.906540,137.891708 112.127266,138.943054 
	C106.375641,138.962723 100.624008,138.982376 94.395866,139.002274 
	C93.122208,137.466232 92.325066,135.929962 91.279877,134.175110 
z"/>
<path fill="#9F814A" opacity="1.000000" stroke="none" 
	d="
M68.780533,114.083328 
	C76.969368,118.976387 82.861145,125.799095 86.871506,134.679840 
	C87.873993,140.917877 88.706818,146.851913 89.539635,152.785965 
	C88.996521,152.949005 88.453407,153.112045 87.910294,153.275085 
	C85.508240,149.963181 83.106194,146.651291 80.432991,143.160446 
	C73.530907,134.476013 64.530899,129.397583 54.891056,125.065041 
	C49.488815,122.637047 44.417953,119.471756 38.973892,116.370239 
	C45.523418,115.734741 52.297703,115.382828 59.069859,114.993843 
	C62.193954,114.814407 65.313881,114.562508 68.780533,114.083328 
z"/>
<path fill="#B79552" opacity="1.000000" stroke="none" 
	d="
M71.922592,51.354706 
	C77.097496,47.677086 82.161942,46.738972 87.656403,50.830276 
	C91.196312,55.153156 92.383865,59.687218 89.617645,64.418678 
	C87.272507,68.429901 83.626480,70.481850 78.757729,70.004242 
	C70.437134,69.188026 67.052521,60.394764 71.922592,51.354706 
z"/>
<path fill="#9F814A" opacity="1.000000" stroke="none" 
	d="
M231.829224,120.529694 
	C223.430283,124.011856 214.921646,127.239517 206.353897,130.301758 
	C197.471664,133.476395 188.724869,137.414459 179.565552,139.325226 
	C169.657425,141.392197 160.373032,138.152832 152.475159,131.184647 
	C167.147110,131.679062 179.683151,126.339622 191.572433,118.049034 
	C202.541122,117.969856 213.188889,117.844040 223.827393,118.100975 
	C226.464828,118.164673 229.072327,119.468658 231.829224,120.529694 
z"/>
<path fill="#917340" opacity="1.000000" stroke="none" 
	d="
M226.786575,170.392395 
	C229.617340,160.090973 238.093033,157.791840 246.570312,164.864151 
	C249.277573,172.508713 248.558365,177.114731 244.118454,180.180099 
	C240.762238,182.497284 237.030365,183.968887 233.003693,181.791138 
	C228.694565,179.460602 226.597900,175.757996 226.786575,170.392395 
z"/>
<path fill="#BFA75E" opacity="1.000000" stroke="none" 
	d="
M112.349075,139.252579 
	C111.906540,137.891708 111.685814,136.840378 111.343910,135.211884 
	C113.087830,135.812408 114.257248,136.215103 115.731186,136.715088 
	C122.817917,141.879318 129.402496,147.243652 136.442795,151.922195 
	C142.428650,155.900009 148.939865,159.087204 155.684204,162.886490 
	C152.820145,164.302109 149.248184,166.067627 145.317841,167.887680 
	C137.434738,167.628143 129.905548,167.391800 122.387436,166.961838 
	C119.368675,166.789169 116.374229,166.191193 113.208710,165.443680 
	C113.365585,158.502182 113.806900,151.905945 113.921249,145.304047 
	C113.954254,143.398438 113.047050,141.476532 112.349075,139.252579 
z"/>
</svg>