<svg xmlns="http://www.w3.org/2000/svg" xmlns:xlink="http://www.w3.org/1999/xlink" version="1.1" id="Layer_1" x="0px" y="0px" width="100%" viewBox="0 0 131 124" enable-background="new 0 0 131 124" xml:space="preserve">
<path fill="#000000" opacity="1.000000" stroke="none" d=" M73.000000,125.000000   C48.666668,125.000000 24.833334,125.000000 1.000000,125.000000   C1.000000,83.666664 1.000000,42.333332 1.000000,1.000000   C44.666668,1.000000 88.333336,1.000000 132.000000,1.000000   C132.000000,42.333332 132.000000,83.666664 132.000000,125.000000   C112.500000,125.000000 93.000000,125.000000 73.000000,125.000000  M45.604507,79.892181   C41.703362,83.867409 37.802216,87.842644 33.322254,92.135902   C31.864511,93.130905 30.406769,94.125916 28.498404,95.154236   C28.183706,95.323318 28.072601,95.580391 27.691563,96.562271   C23.793617,97.435379 19.895670,98.308487 14.980102,99.409531   C17.231787,101.549812 18.408060,102.667892 19.950294,104.290802   C30.528360,114.310287 26.523542,114.607796 37.446804,103.819000   C37.673302,103.595291 37.795479,103.265961 38.557182,102.658791   C40.314789,99.769112 42.072399,96.879433 43.953728,93.227432   C45.271343,88.812286 46.588955,84.397148 48.149765,79.478607   C48.080971,79.070198 48.012173,78.661789 47.943378,78.253380   C47.355465,78.716698 46.767551,79.180016 45.604507,79.892181  M86.956718,52.105831   C86.914925,49.733887 86.873131,47.361942 86.957664,44.139721   C86.921516,42.423107 86.885368,40.706493 86.894279,38.362934   C86.263557,37.948986 85.632828,37.535042 84.362381,36.969063   C83.924583,36.948017 83.486794,36.926971 82.509460,36.334049   C73.668526,34.678658 64.854660,32.844807 55.967091,31.496899   C53.820869,31.171400 51.430916,32.452972 49.010143,33.868191   C48.967224,41.367455 48.988201,41.192360 56.119793,42.046833   C62.429241,42.802799 68.684982,44.007027 74.875954,45.770557   C74.174622,48.494881 73.473289,51.219208 72.275040,54.432880   C76.106346,57.120350 79.937660,59.807823 84.453224,62.975269   C88.306015,61.367748 86.957787,56.963772 86.956718,52.105831  M57.046234,59.940475   C57.046234,59.940475 57.099010,59.910320 57.029385,59.077862   C58.286404,58.297905 59.509914,56.918922 60.806503,56.846405   C65.323769,56.593746 67.827423,54.665318 67.579010,49.260445   C63.369984,48.523315 59.147556,47.182522 54.956951,47.275513   C52.444214,47.331280 49.332859,44.231277 46.826469,48.638840   C45.499397,52.446030 44.172325,56.253216 43.015606,60.719826   C44.334026,62.498711 45.652443,64.277596 47.121906,66.721626   C48.816704,69.140572 50.511501,71.559525 52.428799,74.643471   C52.670273,77.091454 52.911743,79.539444 52.932770,82.712257   C52.007011,85.804489 51.081249,88.896729 49.934227,92.715981   C47.332741,97.284302 50.845387,99.329498 53.998413,102.185883   C56.216694,104.159073 58.492096,106.072350 60.639782,108.119598   C63.813381,111.144791 67.241631,111.645920 70.751015,108.995934   C73.758728,106.724762 76.518684,104.125481 79.959427,101.248657   C82.931786,98.798622 85.763573,96.303749 82.966125,91.196953   C82.281197,88.461327 81.596275,85.725693 80.957817,82.196175   C80.275726,79.462746 79.593628,76.729324 78.963188,73.200180   C78.279015,70.465134 77.594841,67.730087 76.968872,64.411369   C76.745163,63.907547 76.521461,63.403725 75.851311,62.216820   C69.585098,61.437897 63.318882,60.658978 57.046234,59.940475  M87.962830,87.902191   C88.739586,91.594757 89.516335,95.287323 90.513634,99.584175   C93.617798,102.801537 96.496315,106.294922 99.933609,109.104774   C101.373405,110.281746 104.597549,111.020424 105.971497,110.205887   C110.068314,107.777100 113.650475,104.480209 117.433685,101.522438   C117.234055,100.941475 117.034431,100.360504 116.834801,99.779541   C112.917015,99.138710 108.999222,98.497871 104.665794,97.332878   C100.529137,93.530251 96.392487,89.727631 91.919044,85.341141   C90.563950,83.329071 89.208862,81.316994 87.853767,79.304916   C87.249146,79.797707 86.644524,80.290497 86.039902,80.783287   C86.680054,82.881721 87.320206,84.980148 87.962830,87.902191  M23.209509,66.644653   C25.782581,69.996651 28.355654,73.348648 30.928726,76.700645   C31.407969,75.854729 31.887209,75.008812 32.366451,74.162895   C36.057606,73.155983 39.748756,72.149078 43.747486,71.058266   C42.290165,69.111389 40.753624,67.058678 38.937363,64.289780   C38.267303,61.858391 37.597244,59.427002 37.272923,56.392487   C38.206390,54.271198 39.139854,52.149906 40.634949,49.607491   C43.660744,45.247040 43.064671,41.783264 38.109276,39.395889   C37.821335,39.257168 37.543392,39.097691 36.986290,38.433575   C35.066502,36.263020 33.146709,34.092464 31.036209,31.217018   C28.612961,25.569550 26.189711,19.922083 23.492420,13.635951   C19.194399,19.366890 17.770962,25.559437 16.512295,32.642029   C16.397961,35.758018 16.283627,38.874008 16.029232,42.870140   C16.081209,45.243210 16.133186,47.616280 16.109573,50.732647   C16.801144,52.818409 17.492712,54.904175 18.151794,57.700043   C19.755960,60.471516 21.360126,63.242985 23.209509,66.644653  M115.899406,29.219879   C113.689636,24.630516 114.578751,18.468512 108.978363,14.842877   C106.921967,19.986584 105.121300,24.490623 102.924118,29.574471   C100.895439,32.364254 98.866753,35.154037 96.271393,38.187550   C95.511314,38.878311 94.751244,39.569077 93.503593,40.481949   C93.384361,40.976246 93.265129,41.470543 93.032562,42.765827   C93.077232,43.840961 93.121902,44.916096 93.028839,46.871311   C93.074150,49.244255 93.119469,51.617203 93.028877,54.820343   C92.582626,57.514721 92.136375,60.209103 91.150833,63.276402   C90.110542,64.347961 89.118858,65.472427 88.021019,66.481354   C84.444389,69.768333 84.429466,69.752098 85.948662,74.904053   C90.874283,70.744583 95.789696,70.442574 101.307800,76.163826   C105.051987,71.556084 108.527802,67.278610 112.551918,62.573570   C113.642395,59.712357 114.732880,56.851139 116.021706,53.205997   C116.291954,50.801094 116.562195,48.396191 116.958542,45.122963   C116.916222,43.079117 116.873901,41.035275 116.959488,38.149910   C116.585541,35.431122 116.211594,32.712337 115.899406,29.219879  M67.083755,13.618823   C64.817780,16.543392 62.551807,19.467962 60.306396,22.365992   C66.671844,27.572542 66.671844,27.572542 72.161308,22.526058   C70.694649,19.790701 69.163742,16.935535 67.083755,13.618823  M79.111702,20.814209   C79.565704,22.489931 80.019707,24.165653 80.466080,25.813225   C82.997093,25.813225 85.263565,25.813225 87.797234,25.813225   C88.603470,22.243727 89.380959,18.801489 90.436012,14.130355   C85.912704,16.587992 82.678207,18.345387 79.111702,20.814209  M51.017838,18.512594   C48.746429,17.407413 46.475018,16.302233 42.644463,14.438431   C43.753136,19.184362 44.542969,22.565428 45.313797,25.865145   C48.001167,25.865145 50.144917,25.865145 53.360176,25.865145   C51.448750,23.525885 56.590591,20.760525 51.017838,18.512594  z"/>
<path fill="#A88A4C" opacity="1.000000" stroke="none" d=" M86.849228,38.989880   C86.885368,40.706493 86.921516,42.423107 86.444107,44.566483   C82.275185,44.999950 78.619804,45.006649 74.964432,45.013351   C68.684982,44.007027 62.429241,42.802799 56.119793,42.046833   C48.988201,41.192360 48.967224,41.367455 49.522171,33.436752   C59.136578,34.389637 68.230598,35.833702 77.348282,37.108570   C79.202820,37.367882 81.146439,36.990040 83.048996,36.905922   C83.486794,36.926971 83.924583,36.948017 84.790451,37.296288   C85.762093,38.078972 86.305664,38.534424 86.849228,38.989880  z"/>
<path fill="#826331" opacity="1.000000" stroke="none" d=" M50.155487,91.988960   C51.081249,88.896729 52.007011,85.804489 53.501648,82.352745   C63.017467,82.325508 71.964409,82.657791 80.911346,82.990067   C81.596275,85.725693 82.281197,88.461327 82.475533,91.597427   C71.375122,91.994919 60.765305,91.991936 50.155487,91.988960  z"/>
<path fill="#7C5D2D" opacity="1.000000" stroke="none" d=" M50.044857,92.352470   C60.765305,91.991936 71.375122,91.994919 82.447662,91.996857   C85.763573,96.303749 82.931786,98.798622 79.312843,101.179810   C72.652451,100.741455 66.641258,100.181511 60.623501,100.098557   C58.300415,100.066528 55.962402,101.117233 53.631195,101.674637   C50.845387,99.329498 47.332741,97.284302 50.044857,92.352470  z"/>
<path fill="#91733C" opacity="1.000000" stroke="none" d=" M76.910675,64.995041   C77.594841,67.730087 78.279015,70.465134 78.525284,73.550140   C69.460358,73.926224 60.833332,73.952347 52.206303,73.978470   C50.511501,71.559525 48.816704,69.140572 47.413803,66.195419   C57.440693,65.444481 67.175682,65.219757 76.910675,64.995041  z"/>
<path fill="#8A6C37" opacity="1.000000" stroke="none" d=" M52.317551,74.310966   C60.833332,73.952347 69.460358,73.926224 78.499458,73.947998   C79.593628,76.729324 80.275726,79.462746 80.934586,82.593124   C71.964409,82.657791 63.017467,82.325508 53.611870,81.990326   C52.911743,79.539444 52.670273,77.091454 52.317551,74.310966  z"/>
<path fill="#8F723B" opacity="1.000000" stroke="none" d=" M112.003616,63.001141   C108.527802,67.278610 105.051987,71.556084 101.307800,76.163826   C95.789696,70.442574 90.874283,70.744583 85.948662,74.904053   C84.429466,69.752098 84.444389,69.768333 88.021019,66.481354   C89.118858,65.472427 90.110542,64.347961 91.908875,63.109512   C99.112480,62.962132 105.558044,62.981636 112.003616,63.001141  z"/>
<path fill="#9A7D43" opacity="1.000000" stroke="none" d=" M42.845253,60.060406   C44.172325,56.253216 45.499397,52.446030 47.402199,48.333023   C54.601685,48.679661 61.225445,49.332115 67.849205,49.984570   C67.827423,54.665318 65.323769,56.593746 60.806503,56.846405   C59.509914,56.918922 58.286404,58.297905 56.592178,59.510185   C51.718403,59.981808 47.281826,60.021107 42.845253,60.060406  z"/>
<path fill="#A48649" opacity="1.000000" stroke="none" d=" M16.185163,49.989349   C16.133186,47.616280 16.081209,45.243210 16.557028,42.431538   C21.978661,41.989834 26.896503,42.264587 31.754353,41.844910   C33.659046,41.680363 35.429310,39.959793 37.260796,38.947872   C37.543392,39.097691 37.821335,39.257168 38.109276,39.395889   C43.064671,41.783264 43.660744,45.247040 39.880821,49.812862   C31.479517,50.008606 23.832340,49.998978 16.185163,49.989349  z"/>
<path fill="#755729" opacity="1.000000" stroke="none" d=" M105.081436,97.857040   C108.999222,98.497871 112.917015,99.138710 116.834801,99.779541   C117.034431,100.360504 117.234055,100.941475 117.433685,101.522438   C113.650475,104.480209 110.068314,107.777100 105.971497,110.205887   C104.597549,111.020424 101.373405,110.281746 99.933609,109.104774   C96.496315,106.294922 93.617798,102.801537 90.848984,99.283981   C95.816696,98.608208 100.449066,98.232628 105.081436,97.857040  z"/>
<path fill="#997B41" opacity="1.000000" stroke="none" d=" M112.277771,62.787354   C105.558044,62.981636 99.112480,62.962132 92.178513,62.923054   C92.136375,60.209103 92.582626,57.514721 93.554871,54.407463   C101.328369,53.993031 108.575859,53.991478 115.823357,53.989925   C114.732880,56.851139 113.642395,59.712357 112.277771,62.787354  z"/>
<path fill="#AB8D4E" opacity="1.000000" stroke="none" d=" M37.123543,38.690723   C35.429310,39.959793 33.659046,41.680363 31.754353,41.844910   C26.896503,42.264587 21.978661,41.989834 16.627058,41.991467   C16.283627,38.874008 16.397961,35.758018 17.242701,32.325611   C22.391045,31.980099 26.808983,31.951004 31.226921,31.921909   C33.146709,34.092464 35.066502,36.263020 37.123543,38.690723  z"/>
<path fill="#A08246" opacity="1.000000" stroke="none" d=" M115.922531,53.597961   C108.575859,53.991478 101.328369,53.993031 93.622833,53.992363   C93.119469,51.617203 93.074150,49.244255 93.555679,46.432999   C101.665833,45.993557 109.249130,45.992420 116.832436,45.991287   C116.562195,48.396191 116.291954,50.801094 115.922531,53.597961  z"/>
<path fill="#745629" opacity="1.000000" stroke="none" d=" M53.814804,101.930260   C55.962402,101.117233 58.300415,100.066528 60.623501,100.098557   C66.641258,100.181511 72.652451,100.741455 79.027237,101.391144   C76.518684,104.125481 73.758728,106.724762 70.751015,108.995934   C67.241631,111.645920 63.813381,111.144791 60.639782,108.119598   C58.492096,106.072350 56.216694,104.159073 53.814804,101.930260  z"/>
<path fill="#A7894B" opacity="1.000000" stroke="none" d=" M116.895493,45.557125   C109.249130,45.992420 101.665833,45.993557 93.624550,45.992958   C93.121902,44.916096 93.077232,43.840961 93.226624,42.169601   C93.610840,41.135532 93.801003,40.697685 93.991165,40.259838   C94.751244,39.569077 95.511314,38.878311 97.032562,38.078529   C104.139687,38.310146 110.485634,38.650787 116.831581,38.991432   C116.873901,41.035275 116.916222,43.079117 116.895493,45.557125  z"/>
<path fill="#7A5B2C" opacity="1.000000" stroke="none" d=" M19.584335,103.785965   C18.408060,102.667892 17.231787,101.549812 14.980102,99.409531   C19.895670,98.308487 23.793617,97.435379 28.067362,96.118164   C28.622057,95.499069 28.790680,95.314697 28.949028,95.120918   C30.406769,94.125916 31.864511,93.130905 33.862118,92.272018   C37.544659,92.935341 40.687336,93.462547 43.830009,93.989761   C42.072399,96.879433 40.314789,99.769112 37.857201,102.729912   C31.299589,103.129341 25.441961,103.457649 19.584335,103.785965  z"/>
<path fill="#9D7F44" opacity="1.000000" stroke="none" d=" M16.147369,50.361000   C23.832340,49.998978 31.479517,50.008606 39.600006,50.023426   C39.139854,52.149906 38.206390,54.271198 36.636650,56.695198   C30.061682,56.995251 24.122982,56.992592 18.184282,56.989937   C17.492712,54.904175 16.801144,52.818409 16.147369,50.361000  z"/>
<path fill="#B29553" opacity="1.000000" stroke="none" d=" M31.131565,31.569464   C26.808983,31.951004 22.391045,31.980099 17.509727,32.011425   C17.770962,25.559437 19.194399,19.366890 23.492420,13.635951   C26.189711,19.922083 28.612961,25.569550 31.131565,31.569464  z"/>
<path fill="#AD9050" opacity="1.000000" stroke="none" d=" M116.895538,38.570671   C110.485634,38.650787 104.139687,38.310146 97.315903,37.956661   C98.866753,35.154037 100.895439,32.364254 103.555641,29.283939   C108.070656,29.326788 111.954155,29.660168 115.837646,29.993549   C116.211594,32.712337 116.585541,35.431122 116.895538,38.570671  z"/>
<path fill="#977940" opacity="1.000000" stroke="none" d=" M18.168037,57.344990   C24.122982,56.992592 30.061682,56.995251 36.463783,56.996758   C37.597244,59.427002 38.267303,61.858391 38.598495,64.650681   C33.161182,65.345863 28.062738,65.680161 22.964294,66.014458   C21.360126,63.242985 19.755960,60.471516 18.168037,57.344990  z"/>
<path fill="#8E713B" opacity="1.000000" stroke="none" d=" M23.086903,66.329559   C28.062738,65.680161 33.161182,65.345863 38.738350,65.008774   C40.753624,67.058678 42.290165,69.111389 43.747486,71.058266   C39.748756,72.149078 36.057606,73.155983 32.366451,74.162895   C31.887209,75.008812 31.407969,75.854729 30.928726,76.700645   C28.355654,73.348648 25.782581,69.996651 23.086903,66.329559  z"/>
<path fill="#7D5E2E" opacity="1.000000" stroke="none" d=" M104.873611,97.594955   C100.449066,98.232628 95.816696,98.608208 90.738708,98.981842   C89.516335,95.287323 88.739586,91.594757 88.283379,87.300110   C89.821228,86.440346 91.038528,86.182678 92.255829,85.925003   C96.392487,89.727631 100.529137,93.530251 104.873611,97.594955  z"/>
<path fill="#977940" opacity="1.000000" stroke="none" d=" M42.930428,60.390114   C47.281826,60.021107 51.718403,59.981808 56.626991,59.926414   C57.099010,59.910320 57.046234,59.940475 57.243019,60.238945   C63.725784,61.324913 70.011765,62.112408 76.297752,62.899902   C76.521461,63.403725 76.745163,63.907547 76.939774,64.703201   C67.175682,65.219757 57.440693,65.444481 47.338280,65.862839   C45.652443,64.277596 44.334026,62.498711 42.930428,60.390114  z"/>
<path fill="#745528" opacity="1.000000" stroke="none" d=" M19.767315,104.038376   C25.441961,103.457649 31.299589,103.129341 37.561768,102.893463   C37.795479,103.265961 37.673302,103.595291 37.446804,103.819000   C26.523542,114.607796 30.528360,114.310287 19.767315,104.038376  z"/>
<path fill="#B29654" opacity="1.000000" stroke="none" d=" M115.868530,29.606712   C111.954155,29.660168 108.070656,29.326788 103.753899,28.994036   C105.121300,24.490623 106.921967,19.986584 108.978363,14.842877   C114.578751,18.468512 113.689636,24.630516 115.868530,29.606712  z"/>
<path fill="#A28347" opacity="1.000000" stroke="none" d=" M74.920197,45.391953   C78.619804,45.006649 82.275185,44.999950 86.380951,44.991623   C86.873131,47.361942 86.914925,49.733887 86.447083,52.549522   C81.548943,53.309986 77.160454,53.626759 72.771957,53.943531   C73.473289,51.219208 74.174622,48.494881 74.920197,45.391953  z"/>
<path fill="#7F6130" opacity="1.000000" stroke="none" d=" M43.891869,93.608597   C40.687336,93.462547 37.544659,92.935341 34.151524,92.113007   C37.802216,87.842644 41.703362,83.867409 46.322746,79.868607   C47.329514,79.890686 47.618042,79.936340 47.906570,79.982002   C46.588955,84.397148 45.271343,88.812286 43.891869,93.608597  z"/>
<path fill="#B29654" opacity="1.000000" stroke="none" d=" M67.358299,13.849596   C69.163742,16.935535 70.694649,19.790701 72.161308,22.526058   C66.671844,27.572542 66.671844,27.572542 60.306396,22.365992   C62.551807,19.467962 64.817780,16.543392 67.358299,13.849596  z"/>
<path fill="#997B41" opacity="1.000000" stroke="none" d=" M72.523499,54.188206   C77.160454,53.626759 81.548943,53.309986 86.386749,52.990284   C86.957787,56.963772 88.306015,61.367748 84.453224,62.975269   C79.937660,59.807823 76.106346,57.120350 72.523499,54.188206  z"/>
<path fill="#B69854" opacity="1.000000" stroke="none" d=" M79.277702,20.458496   C82.678207,18.345387 85.912704,16.587992 90.436012,14.130355   C89.380959,18.801489 88.603470,22.243727 87.797234,25.813225   C85.263565,25.813225 82.997093,25.813225 80.466080,25.813225   C80.019707,24.165653 79.565704,22.489931 79.277702,20.458496  z"/>
<path fill="#B69854" opacity="1.000000" stroke="none" d=" M51.337406,18.720634   C56.590591,20.760525 51.448750,23.525885 53.360176,25.865145   C50.144917,25.865145 48.001167,25.865145 45.313797,25.865145   C44.542969,22.565428 43.753136,19.184362 42.644463,14.438431   C46.475018,16.302233 48.746429,17.407413 51.337406,18.720634  z"/>
<path fill="#AE9655" opacity="1.000000" stroke="none" d=" M82.779228,36.619987   C81.146439,36.990040 79.202820,37.367882 77.348282,37.108570   C68.230598,35.833702 59.136578,34.389637 49.593620,33.000420   C51.430916,32.452972 53.820869,31.171400 55.967091,31.496899   C64.854660,32.844807 73.668526,34.678658 82.779228,36.619987  z"/>
<path fill="#A88A4C" opacity="1.000000" stroke="none" d=" M67.714111,49.622505   C61.225445,49.332115 54.601685,48.679661 47.560913,48.007217   C49.332859,44.231277 52.444214,47.331280 54.956951,47.275513   C59.147556,47.182522 63.369984,48.523315 67.714111,49.622505  z"/>
<path fill="#9D7F44" opacity="1.000000" stroke="none" d=" M76.074532,62.558361   C70.011765,62.112408 63.725784,61.324913 57.246235,60.208733   C63.318882,60.658978 69.585098,61.437897 76.074532,62.558361  z"/>
<path fill="#8A6C37" opacity="1.000000" stroke="none" d=" M92.087433,85.633072   C91.038528,86.182678 89.821228,86.440346 88.282143,86.888298   C87.320206,84.980148 86.680054,82.881721 86.039902,80.783287   C86.644524,80.290497 87.249146,79.797707 87.853767,79.304916   C89.208862,81.316994 90.563950,83.329071 92.087433,85.633072  z"/>
<path fill="#AE9655" opacity="1.000000" stroke="none" d=" M86.871750,38.676407   C86.305664,38.534424 85.762093,38.078972 85.110321,37.372307   C85.632828,37.535042 86.263557,37.948986 86.871750,38.676407  z"/>
<path fill="#8E713B" opacity="1.000000" stroke="none" d=" M48.028168,79.730301   C47.618042,79.936340 47.329514,79.890686 46.610313,79.744179   C46.767551,79.180016 47.355465,78.716698 47.943378,78.253380   C48.012173,78.661789 48.080971,79.070198 48.028168,79.730301  z"/>
<path fill="#AD9050" opacity="1.000000" stroke="none" d=" M93.747375,40.370895   C93.801003,40.697685 93.610840,41.135532 93.283287,41.769112   C93.265129,41.470543 93.384361,40.976246 93.747375,40.370895  z"/>
<path fill="#8E713B" opacity="1.000000" stroke="none" d=" M28.723717,95.137573   C28.790680,95.314697 28.622057,95.499069 28.304127,95.799759   C28.072601,95.580391 28.183706,95.323318 28.723717,95.137573  z"/>
</svg>